<svg width="40" height="60" viewBox="0 0 40 60" fill="none" xmlns="http://www.w3.org/2000/svg">
<rect x="7.45312" y="18.2607" width="2.73295" height="18.2609" fill="#FF0000"/>
<rect x="30.063" y="20.8696" width="2.73295" height="10.6957" fill="#FF0000"/>
<rect x="37.2671" y="25.8262" width="2.73295" height="13.5652" fill="#FF0000"/>
<rect y="26.0869" width="2.73295" height="10.4348" fill="#FF0000"/>
<rect x="37.2671" y="41.7393" width="2.73295" height="5.73913" fill="#FF0000"/>
<rect x="4.96875" y="41.7393" width="2.73295" height="5.73913" fill="#FF0000"/>
<rect x="2.7334" y="36.522" width="2.73295" height="5.73913" fill="#FF0000"/>
<rect x="35.0317" y="46.4346" width="2.73295" height="5.73913" fill="#FF0000"/>
<rect x="7.70215" y="46.4346" width="2.73295" height="5.73913" fill="#FF0000"/>
<rect x="32.2983" y="52.1738" width="2.73295" height="7.82609" fill="#FF0000"/>
<rect x="10.1865" y="52.1738" width="2.73295" height="7.82609" fill="#FF0000"/>
<rect x="15.1553" y="2.60889" width="2.73295" height="26.3478" fill="#FF0000"/>
<rect x="22.3608" y="2.60889" width="2.73295" height="26.3478" fill="#FF0000"/>
<rect x="10.1865" y="57.3911" width="24.845" height="2.6087" fill="#FF0000"/>
<rect x="9.9375" y="18.2607" width="5.21745" height="2.6087" fill="#FF0000"/>
<rect x="25.0933" y="18.2607" width="5.21745" height="2.6087" fill="#FF0000"/>
<rect x="17.3916" width="5.4659" height="2.6087" fill="#FF0000"/>
<rect x="2.7334" y="26.0869" width="5.4659" height="2.6087" fill="#FF0000"/>
<rect x="35.0317" y="23.478" width="2.73295" height="2.6087" fill="#FF0000"/>
<rect x="32.2983" y="20.8696" width="2.73295" height="2.6087" fill="#FF0000"/>
</svg>
