<svg width="278" height="275" viewBox="0 0 278 275" fill="none" xmlns="http://www.w3.org/2000/svg">
<path d="M114.833 252.329L135.979 254.466L133.863 273.42L112.717 271.283C110.893 271.099 109.32 270.5 107.993 269.49C106.666 268.499 105.673 267.247 105.016 265.74C104.359 264.231 104.13 262.6 104.323 260.849C104.519 259.1 105.105 257.542 106.083 256.181C107.04 254.836 108.286 253.811 109.824 253.109C111.341 252.404 113.009 252.145 114.833 252.329ZM120.422 257.438C118.94 257.288 117.672 257.644 116.618 258.504C115.543 259.364 114.927 260.498 114.769 261.905C114.614 263.313 114.965 264.536 115.828 265.573C116.671 266.624 117.832 267.225 119.312 267.375L123.924 267.84L125.031 257.903L120.422 257.438Z" fill="white" fill-opacity="0.1"/>
<path d="M99.0616 246.229L108.788 249.418L103.409 270.398L93.6826 267.208L99.0616 246.229Z" fill="white" fill-opacity="0.1"/>
<path d="M81.7925 239.734C85.9747 241.624 88.919 243.734 90.6203 246.068C92.5595 248.74 92.681 251.648 90.9848 254.787C89.2886 257.927 86.6912 259.597 83.1975 259.8C80.1368 259.983 76.514 259.132 72.3292 257.244C69.9824 256.185 67.9419 254.984 66.2128 253.642C64.4761 252.317 63.2533 250.838 62.5495 249.205C61.8204 247.581 61.7672 245.798 62.3951 243.857L71.7824 248.095C71.4153 249.245 71.4457 250.223 71.876 251.037C72.2963 251.863 73.1773 252.58 74.5216 253.187C76.1722 253.931 77.5494 254.082 78.6583 253.633C79.7671 253.187 80.7545 252.164 81.6203 250.563C82.4861 248.96 82.7747 247.623 82.4886 246.547C82.2051 245.469 81.2355 244.56 79.5874 243.815C78.2431 243.209 77.0887 242.996 76.1216 243.179C75.1469 243.378 74.271 243.959 73.4963 244.923L64.1065 240.688C65.4128 239.052 66.9976 237.999 68.8634 237.525C70.7014 237.06 72.7292 237.046 74.9444 237.486C77.1621 237.925 79.4431 238.675 81.7925 239.734Z" fill="white" fill-opacity="0.1"/>
<path d="M47.1383 212.996L56.5192 220.211L57.2315 230.578L60.0835 230.829L64.1401 226.067L72.5363 232.523L59.5754 247.739L51.1767 241.283L55.8435 235.805L42.5736 234.668L34.772 228.67L47.8297 229.789L47.1383 212.996Z" fill="white" fill-opacity="0.1"/>
<path d="M32.637 193.359L39.1406 201.322L33.0409 205.818L38.783 212.848L44.8827 208.355L51.3863 216.32L35.3923 228.103L28.8887 220.137L34.9884 215.643L29.2489 208.611L23.1466 213.105L16.6431 205.142L32.637 193.359Z" fill="white" fill-opacity="0.1"/>
<path d="M23.1981 169.19L34.7706 192.777L16.1315 200.912L4.55908 177.328L8.76722 175.491L15.8156 189.859L18.8256 188.544L12.5159 175.686L16.8024 174.605L22.7935 186.813L25.5894 185.592L18.5384 171.227L23.1981 169.19Z" fill="white" fill-opacity="0.1"/>
<path d="M17.4701 138.979L19.605 149.523L17.1681 151.843L19.73 164.494L22.8369 165.492L24.1957 172.212L3.8702 165.684L1.53711 154.158L17.4701 138.979ZM13.4857 155.374L7.90888 160.683L15.0285 162.993L13.4857 155.374Z" fill="white" fill-opacity="0.1"/>
<path d="M21.1748 122.696L20.954 143.51L0.0273438 143.316L0.24815 122.501C0.26677 120.709 0.761538 119.117 1.73246 117.726C2.68476 116.333 3.95093 115.243 5.53633 114.453C7.11906 113.666 8.87737 113.282 10.8112 113.299C12.7424 113.317 14.5034 113.736 16.0888 114.553C17.6556 115.351 18.9005 116.465 19.8209 117.893C20.7439 119.304 21.1934 120.904 21.1748 122.696ZM16.15 128.645C16.1633 127.19 15.6499 125.988 14.6018 125.044C13.5564 124.082 12.2556 123.593 10.7022 123.581C9.14603 123.566 7.84527 124.029 6.79987 124.972C5.73319 125.896 5.19319 127.088 5.17723 128.543L5.12934 133.082L16.1021 133.184L16.15 128.645Z" fill="white" fill-opacity="0.1"/>
<path d="M28.5758 93.5905L22.7333 117.83L3.04932 113.288L8.7273 89.735C9.0486 88.397 9.8017 87.4086 10.9841 86.7723C12.1716 86.1159 13.4491 85.9473 14.8165 86.2617C15.8113 86.4906 16.6364 86.971 17.2892 87.7028C17.9498 88.4171 18.3816 89.2521 18.5847 90.2103C19.2067 89.1917 20.055 88.4196 21.132 87.894C22.2089 87.3683 23.3374 87.2401 24.5197 87.5142C25.9617 87.8462 27.0901 88.5906 27.8998 89.745C28.6915 90.8969 28.9151 92.1771 28.5758 93.5905ZM14.6597 98.7438C14.7703 98.2861 14.706 97.846 14.4721 97.4235C14.2228 96.9783 13.8732 96.7041 13.4234 96.601C12.9556 96.4929 12.5263 96.5482 12.1356 96.767C11.7321 96.9657 11.4776 97.2826 11.3722 97.7227L9.81454 104.189L13.1586 104.961L14.6597 98.7438ZM22.5611 99.5788C22.6896 99.0482 22.6022 98.5829 22.3041 98.1855C22.0085 97.768 21.5972 97.4989 21.0729 97.3782C20.5485 97.2575 20.0498 97.3555 19.5769 97.6724C19.1065 97.9893 18.8084 98.4043 18.6824 98.9174L17.0116 105.851L20.8364 106.734L22.5611 99.5788Z" fill="white" fill-opacity="0.1"/>
<path d="M33.26 83.6693L28.8388 93.6611L9.09082 85.5259L13.512 75.5342L33.26 83.6693Z" fill="white" fill-opacity="0.1"/>
<path d="M45.3441 64.8213L39.7547 74.0241L27.122 65.4417L22.1115 73.69L18.1538 71.0016L33.7441 45.3232L37.7019 48.0144L32.7089 56.2388L45.3441 64.8213Z" fill="white" fill-opacity="0.1"/>
<path d="M59.863 50.8088C56.4794 54.1805 53.2719 56.2684 50.2377 57.0698C46.7635 57.9828 43.6465 57.0465 40.8816 54.2635C38.1193 51.478 37.208 48.3578 38.1504 44.8953C38.9684 41.8608 41.068 38.6576 44.4516 35.2859C46.3493 33.3951 48.2961 31.8545 50.2869 30.664C52.2648 29.4606 54.2375 28.8122 56.1972 28.7214C58.1596 28.6047 60.065 29.1986 61.9134 30.511L54.3203 38.0766C53.2252 37.3037 52.1768 36.9769 51.1749 37.0988C50.1601 37.2052 49.109 37.8017 48.0217 38.8833C46.6884 40.2138 46.0748 41.4951 46.181 42.7322C46.2871 43.9694 47.0456 45.2973 48.454 46.7186C49.8623 48.1373 51.1852 48.9025 52.4201 49.0166C53.6524 49.1307 54.9365 48.5212 56.2723 47.1933C57.357 46.1091 57.9654 45.0665 58.0897 44.0627C58.2036 43.046 57.8774 41.9879 57.1111 40.8856L64.7042 33.3225C66.0012 35.1796 66.5941 37.0988 66.4776 39.0778C66.3637 41.0282 65.7061 42.9994 64.5074 44.9887C63.3088 46.978 61.7607 48.9181 59.863 50.8088Z" fill="white" fill-opacity="0.1"/>
<path d="M95.1922 26.3663L86.2312 31.8939L82.257 25.2979L74.3468 30.1767L78.321 36.7753L69.3574 42.3029L58.9385 25.007L67.8995 19.4793L71.8737 26.0754L79.7865 21.1965L75.8123 14.5979L84.7733 9.07031L95.1922 26.3663Z" fill="white" fill-opacity="0.1"/>
<path d="M117.458 20.7762L93.8019 28.7059L87.6401 9.48074L110.625 1.77468C111.933 1.33757 113.16 1.45328 114.306 2.12438C115.47 2.78776 116.267 3.78799 116.694 5.12504C117.006 6.0944 117.016 7.05604 116.724 8.00483C116.453 8.94591 115.96 9.76101 115.249 10.445C116.433 10.4347 117.524 10.7458 118.522 11.386C119.52 12.0237 120.204 12.9211 120.573 14.073C121.026 15.4846 120.965 16.8422 120.392 18.1484C119.814 19.4392 118.836 20.3134 117.458 20.7762ZM105.967 11.6406C106.415 11.4914 106.759 11.2035 106.998 10.7766C107.252 10.3292 107.307 9.88441 107.166 9.44472C107.018 8.98704 106.751 8.65019 106.367 8.43421C105.992 8.19508 105.59 8.14623 105.16 8.29022L98.85 10.4064L99.8983 13.6744L105.967 11.6406ZM109.283 18.8324C109.801 18.6575 110.153 18.3361 110.341 17.8681C110.545 17.395 110.565 16.9014 110.402 16.3897C110.238 15.8754 109.899 15.5026 109.389 15.2686C108.878 15.0346 108.37 15.0012 107.87 15.1683L101.102 17.4362L102.299 21.1722L109.283 18.8324Z" fill="white" fill-opacity="0.1"/>
<path d="M151.085 18.0833L140.541 19.0576L138.597 16.2954L125.945 17.4646L124.573 20.5337L117.852 21.1549L126.83 1.07374L138.358 0.00683594L151.085 18.0833ZM135.632 12.113L131.179 5.7871L128.013 12.817L135.632 12.113Z" fill="white" fill-opacity="0.1"/>
<path d="M158.968 20.546C157.161 20.3334 155.389 20.0538 153.655 19.7074C151.921 19.3586 150.374 18.8903 149.014 18.2978C147.673 17.6885 146.638 16.9096 145.909 15.9587C145.182 14.9911 144.911 13.7774 145.099 12.32L155.361 13.5218C155.274 14.1955 155.387 14.714 155.7 15.0748C156.031 15.4403 156.517 15.7127 157.156 15.8967C157.792 16.0782 158.542 16.2192 159.399 16.3195L160.434 16.4414C161.383 16.5537 162.185 16.5752 162.837 16.5059C163.564 16.4462 163.97 16.0806 164.057 15.4045C164.123 14.8884 163.614 14.4416 162.526 14.0617C161.491 13.7249 160.186 13.3641 158.609 12.9818C156.737 12.5279 154.83 11.9879 152.886 11.3644C150.963 10.724 149.357 9.89737 148.069 8.87957C146.691 7.81638 146.112 6.44979 146.327 4.77974C146.495 3.46569 147.014 2.4431 147.883 1.7144C148.773 0.99047 149.933 0.503073 151.364 0.256986C152.815 0.0108995 154.422 -0.05363 156.186 0.0634405C157.95 0.161397 159.737 0.316696 161.546 0.526945C163.373 0.741972 165.135 1.01913 166.829 1.36318C168.548 1.6905 170.057 2.154 171.362 2.75847C172.686 3.34621 173.703 4.12269 174.41 5.09031C175.119 6.03882 175.382 7.24298 175.194 8.70039L165.158 7.5249C165.243 6.84875 165.13 6.3303 164.819 5.96953C164.506 5.60876 164.02 5.33642 163.363 5.15007C162.707 4.9661 161.622 4.78451 160.113 4.60771C159.198 4.50019 158.426 4.48348 157.792 4.55277C157.158 4.62205 156.8 4.97804 156.72 5.61835L156.692 5.83096C156.71 6.26579 157.236 6.66957 158.266 7.04229C159.296 7.415 160.609 7.80446 162.203 8.20823C164.05 8.69324 165.934 9.27617 167.854 9.94993C169.791 10.6117 171.408 11.4408 172.698 12.4395C174.054 13.517 174.63 14.8382 174.43 16.4031C174.249 17.8056 173.706 18.8688 172.798 19.5927C171.891 20.3167 170.706 20.7825 169.24 20.9904C167.779 21.1791 166.157 21.2054 164.378 21.0693C162.599 20.9331 160.795 20.7587 158.968 20.546Z" fill="white" fill-opacity="0.1"/>
<path d="M186.574 28.7061L176.318 25.2655L181.423 10.6822L172.231 7.59414L173.832 3.02637L202.443 12.6302L200.843 17.2005L191.677 14.1228L186.574 28.7061Z" fill="white" fill-opacity="0.1"/>
<path d="M219.566 48.3454L210.301 42.8096L210.453 39.3478L199.333 32.7044L196.265 34.4252L190.359 30.8978L210.44 19.6445L220.57 25.695L219.566 48.3454ZM210.669 34.0972L211.024 26.1694L203.973 30.0954L210.669 34.0972Z" fill="white" fill-opacity="0.1"/>
<path d="M236.255 66.4707L228.828 59.4354L229.755 51.6105L226.568 48.5929L222.122 53.0868L214.528 45.896L228.548 31.7275L245.766 48.0289C247.157 49.3498 247.821 50.8786 247.757 52.6206C247.703 54.375 247.003 55.9315 245.653 57.2949C244.505 58.4554 243.153 59.1221 241.595 59.2925C240.063 59.4629 238.597 59.1597 237.201 58.3852L236.255 66.4707ZM234.923 49.9939C235.392 50.44 235.912 50.6831 236.483 50.7283C237.08 50.7709 237.605 50.5629 238.059 50.1042C238.956 49.1994 238.938 48.2445 238.013 47.2369L232.799 42.2994L229.893 45.2343L234.923 49.9939Z" fill="white" fill-opacity="0.1"/>
<path d="M244.413 83.1515L232.656 64.4309L249.561 52.876L261.319 71.5965C262.331 73.2097 262.847 74.9086 262.865 76.696C262.899 78.4726 262.508 80.1582 261.689 81.7499C260.872 83.3417 259.68 84.6709 258.118 85.7374C256.556 86.8039 254.904 87.4176 253.163 87.5757C251.449 87.7391 249.81 87.4417 248.254 86.6833C246.705 85.941 245.425 84.762 244.413 83.1515ZM245.035 75.0185C245.857 76.3289 246.959 77.1114 248.341 77.3686C249.733 77.6419 251.056 77.3499 252.312 76.4924C253.569 75.6322 254.344 74.4906 254.645 73.0596C254.971 71.6367 254.722 70.27 253.9 68.9597L251.336 64.8785L242.471 70.9373L245.035 75.0185Z" fill="white" fill-opacity="0.1"/>
<path d="M258.191 117.83L254.403 107.766L256.735 105.124L252.187 93.0469L248.664 92.5226L246.251 86.1084L269.298 89.5318L273.441 100.535L258.191 117.83ZM260.256 101.103L265.596 95.05L257.519 93.8283L260.256 101.103Z" fill="white" fill-opacity="0.1"/>
<path d="M255.877 126.681C255.623 124.889 255.448 123.115 255.352 121.358C255.26 119.6 255.342 117.99 255.599 116.524C255.88 115.076 256.421 113.874 257.222 112.92C258.038 111.965 259.232 111.382 260.798 111.173L262.245 121.345C261.519 121.442 261.009 121.689 260.715 122.084C260.422 122.5 260.265 123.038 260.244 123.7C260.221 124.362 260.27 125.118 260.391 125.969L260.535 126.995C260.669 127.936 260.86 128.712 261.102 129.319C261.354 130.001 261.843 130.292 262.569 130.198C263.123 130.123 263.455 129.513 263.566 128.371C263.645 127.286 263.676 125.937 263.661 124.319C263.643 122.403 263.702 120.427 263.841 118.393C264.003 116.377 264.444 114.615 265.165 113.107C265.909 111.502 267.181 110.581 268.978 110.342C270.391 110.153 271.591 110.379 272.58 111.021C273.569 111.681 274.38 112.664 275.016 113.973C275.652 115.3 276.141 116.825 276.483 118.55C276.844 120.27 277.153 122.027 277.408 123.819C277.665 125.631 277.838 127.395 277.928 129.115C278.038 130.852 277.951 132.425 277.665 133.839C277.4 135.268 276.857 136.45 276.035 137.386C275.235 138.321 274.05 138.894 272.482 139.101L271.069 129.153C271.795 129.056 272.304 128.809 272.598 128.413C272.891 128.015 273.049 127.478 273.069 126.796C273.09 126.116 272.994 125.029 272.781 123.53C272.652 122.627 272.467 121.878 272.227 121.29C271.988 120.7 271.524 120.452 270.837 120.541L270.608 120.574C270.16 120.708 269.876 121.32 269.758 122.408C269.64 123.498 269.58 124.859 269.58 126.497C269.56 128.401 269.449 130.365 269.248 132.388C269.07 134.424 268.633 136.196 267.93 137.702C267.163 139.29 265.94 140.198 264.256 140.42C262.747 140.621 261.496 140.382 260.504 139.705C259.51 139.028 258.715 138.013 258.115 136.661C257.53 135.31 257.077 133.759 256.753 132.015C256.426 130.27 256.135 128.491 255.877 126.681Z" fill="white" fill-opacity="0.1"/>
<path d="M255.598 151.921C255.725 150.086 255.924 148.286 256.194 146.516C256.463 144.749 256.868 143.162 257.408 141.757C257.964 140.372 258.712 139.286 259.652 138.499C260.608 137.714 261.839 137.377 263.343 137.489L262.619 147.906C261.923 147.853 261.398 147.995 261.042 148.332C260.687 148.683 260.429 149.19 260.275 149.843C260.118 150.496 260.01 151.258 259.951 152.129L259.877 153.18C259.811 154.144 259.828 154.954 259.929 155.608C260.027 156.339 260.422 156.729 261.118 156.78C261.651 156.82 262.085 156.281 262.421 155.164C262.715 154.104 263.019 152.764 263.333 151.154C263.706 149.24 264.164 147.286 264.709 145.291C265.268 143.319 266.038 141.653 267.017 140.299C268.04 138.853 269.41 138.195 271.135 138.321C272.491 138.423 273.563 138.891 274.352 139.729C275.14 140.587 275.696 141.732 276.023 143.162C276.344 144.613 276.491 146.23 276.459 148.015C276.444 149.802 276.376 151.613 276.248 153.448C276.118 155.304 275.92 157.096 275.652 158.825C275.402 160.575 275 162.124 274.446 163.471C273.908 164.84 273.163 165.906 272.206 166.673C271.27 167.44 270.048 167.77 268.545 167.658L269.254 157.468C269.95 157.519 270.475 157.377 270.831 157.043C271.184 156.706 271.441 156.202 271.598 155.529C271.755 154.858 271.888 153.754 271.993 152.22C272.057 151.294 272.037 150.514 271.934 149.878C271.831 149.243 271.451 148.901 270.791 148.851L270.571 148.835C270.124 148.878 269.737 149.43 269.406 150.489C269.075 151.549 268.741 152.894 268.407 154.524C268 156.415 267.498 158.347 266.899 160.319C266.318 162.309 265.548 163.985 264.589 165.339C263.549 166.764 262.225 167.418 260.611 167.299C259.164 167.192 258.045 166.701 257.258 165.825C256.471 164.949 255.936 163.777 255.652 162.311C255.384 160.845 255.276 159.21 255.328 157.408C255.379 155.605 255.47 153.777 255.598 151.921Z" fill="white" fill-opacity="0.1"/>
<path d="M244.738 194.258L248.033 184.179L258.221 183.525L250.261 177.367L253.556 167.289L274.95 166.169L271.69 176.139L259.745 176.752L269.123 183.994L266.249 192.783L254.258 193.532L263.682 200.637L261.617 206.954L244.738 194.258Z" fill="white" fill-opacity="0.1"/>
<path d="M225.103 220.35L231.166 211.307L234.769 211.568L242.047 200.717L240.349 197.609L244.213 191.848L255.314 212.171L248.684 222.059L225.103 220.35ZM240.239 211.948L248.49 212.547L244.621 205.412L240.239 211.948Z" fill="white" fill-opacity="0.1"/>
<path d="M205.466 234.947L214.446 226.716L232.648 228.227L223.281 218.622L227.769 214.507L241.72 228.812L232.72 237.061L214.539 235.532L223.906 245.137L219.417 249.25L205.466 234.947Z" fill="white" fill-opacity="0.1"/>
<path d="M178.275 249.488L188.484 243.262L198.706 246.566L199.944 243.926L196.772 238.206L205.91 232.634L216.04 250.918L206.904 256.49L203.256 249.907L197.543 262.2L189.053 267.377L194.676 255.281L178.275 249.488Z" fill="white" fill-opacity="0.1"/>
<path d="M157.127 254.477L182.666 246.229L188.849 265.17L163.31 273.419L161.913 269.144L177.471 264.118L176.474 261.06L162.546 265.56L161.938 261.298L175.158 257.028L174.23 254.188L158.671 259.212L157.127 254.477Z" fill="white" fill-opacity="0.1"/>
<path d="M128.426 256.654L138.585 255.672L144.033 261.182L148.39 260.759L147.752 254.787L158.137 253.783L160.148 272.618L136.609 274.892C134.704 275.077 133.1 274.606 131.799 273.482C130.478 272.358 129.719 270.891 129.527 269.079C129.362 267.537 129.709 266.153 130.569 264.928C131.412 263.723 132.578 262.859 134.066 262.335L128.426 256.654ZM141.994 265.891C141.351 265.953 140.832 266.175 140.435 266.557C140.02 266.959 139.845 267.467 139.911 268.075C140.04 269.279 140.787 269.858 142.156 269.818L149.286 269.127L148.868 265.227L141.994 265.891Z" fill="white" fill-opacity="0.1"/>
<path d="M116.845 231.173L135.979 233.011L134.071 249.251L114.935 247.413C113.286 247.257 111.862 246.743 110.662 245.876C109.459 245.026 108.562 243.954 107.966 242.663C107.372 241.369 107.162 239.973 107.338 238.474C107.515 236.972 108.046 235.639 108.93 234.473C109.793 233.32 110.921 232.444 112.311 231.841C113.685 231.239 115.196 231.015 116.845 231.173ZM121.903 235.554C120.563 235.426 119.417 235.73 118.461 236.468C117.491 237.203 116.933 238.175 116.791 239.38C116.648 240.587 116.97 241.633 117.75 242.523C118.512 243.424 119.562 243.94 120.903 244.069L125.074 244.468L126.075 235.954L121.903 235.554Z" fill="white" fill-opacity="0.1"/>
<path d="M104.558 226.592L113.321 229.189L108.488 246.229L99.7256 243.632L104.558 226.592Z" fill="white" fill-opacity="0.1"/>
<path d="M90.8965 218.765C94.4539 220.78 96.9571 223.032 98.4038 225.522C100.054 228.376 100.161 231.476 98.7213 234.823C97.2794 238.17 95.0767 239.95 92.1057 240.161C89.5031 240.355 86.4231 239.446 82.8658 237.43C80.8714 236.298 79.1364 235.017 77.6654 233.584C76.1872 232.169 75.15 230.591 74.5491 228.85C73.9287 227.117 73.8827 225.215 74.4134 223.146L82.3956 227.671C82.0855 228.897 82.1121 229.943 82.4756 230.808C82.8343 231.692 83.5831 232.458 84.7269 233.104C86.1299 233.9 87.3028 234.058 88.2454 233.584C89.1857 233.107 90.0241 232.017 90.7584 230.309C91.4926 228.603 91.7398 227.175 91.4951 226.027C91.2503 224.879 90.4288 223.908 89.0257 223.113C87.8819 222.466 86.9005 222.239 86.079 222.433C85.2527 222.644 84.5088 223.262 83.8496 224.291L75.8673 219.766C76.9772 218.024 78.3221 216.901 79.9069 216.399C81.4699 215.903 83.1929 215.892 85.0758 216.36C86.9611 216.832 88.8997 217.633 90.8965 218.765Z" fill="white" fill-opacity="0.1"/>
<path d="M60.7558 197.891L69.0127 204.48L69.641 213.944L72.1518 214.174L75.7195 209.828L83.1091 215.725L71.7078 229.613L64.3182 223.718L68.4207 218.716L56.7442 217.675L49.8765 212.196L61.3686 213.222L60.7558 197.891Z" fill="white" fill-opacity="0.1"/>
<path d="M50.195 181.275L55.8496 188.545L50.5429 192.651L55.532 199.07L60.8412 194.964L66.4932 202.234L52.5799 212.997L46.9253 205.728L52.232 201.622L47.243 195.203L41.9338 199.308L36.2817 192.037L50.195 181.275Z" fill="white" fill-opacity="0.1"/>
<path d="M43.6511 161.637L52.8972 181.843L37.9741 188.827L28.728 168.621L32.0947 167.045L37.7271 179.352L40.1362 178.226L35.0944 167.209L38.527 166.282L43.3124 176.738L45.5521 175.692L39.9198 163.383L43.6511 161.637Z" fill="white" fill-opacity="0.1"/>
<path d="M40.1446 137.468L42.2747 146.573L39.8365 148.578L42.3916 159.505L45.4991 160.366L46.8564 166.169L26.5271 160.542L24.1978 150.586L40.1446 137.468ZM36.1499 151.632L30.5696 156.22L37.6877 158.211L36.1499 151.632Z" fill="white" fill-opacity="0.1"/>
<path d="M42.3242 124.308L42.1369 142L24.1978 141.833L24.385 124.143C24.403 122.618 24.8262 121.266 25.66 120.082C26.4757 118.9 27.5609 117.972 28.9179 117.303C30.275 116.633 31.7834 116.306 33.438 116.321C35.0952 116.337 36.6036 116.693 37.9632 117.386C39.3074 118.065 40.372 119.012 41.1621 120.227C41.9522 121.424 42.3396 122.785 42.3242 124.308ZM38.017 129.365C38.0299 128.126 37.5861 127.106 36.6908 126.305C35.7929 125.488 34.6796 125.07 33.3456 125.058C32.0142 125.047 30.8983 125.442 30.003 126.243C29.0872 127.027 28.6255 128.04 28.6101 129.277L28.569 133.134L37.976 133.222L38.017 129.365Z" fill="white" fill-opacity="0.1"/>
<path d="M48.2223 100.08L42.7358 120.851L24.1978 116.948L29.529 96.7665C29.8314 95.6198 30.5397 94.7737 31.6539 94.2283C32.7708 93.6659 33.9749 93.5228 35.2634 93.7943C36.1978 93.9907 36.9742 94.4028 37.5926 95.0307C38.2137 95.6416 38.6196 96.3592 38.813 97.1786C39.3987 96.3059 40.1969 95.6441 41.2103 95.1956C42.2237 94.7447 43.2861 94.6356 44.4003 94.8707C45.7596 95.1568 46.8194 95.7943 47.5849 96.7859C48.3286 97.7725 48.5437 98.8707 48.2223 100.08ZM35.1217 104.49C35.2253 104.097 35.1653 103.719 34.9447 103.358C34.7104 102.977 34.3807 102.74 33.9558 102.653C33.5144 102.558 33.1113 102.607 32.7435 102.796C32.3649 102.963 32.1251 103.237 32.0243 103.615L30.5615 109.154L33.7133 109.819L35.1217 104.49ZM42.5615 105.21C42.6841 104.754 42.6023 104.357 42.319 104.015C42.0412 103.656 41.6543 103.426 41.1612 103.322C40.6654 103.217 40.1969 103.302 39.7528 103.574C39.3088 103.845 39.0282 104.199 38.9111 104.64L37.342 110.582L40.9433 111.339L42.5615 105.21Z" fill="white" fill-opacity="0.1"/>
<path d="M51.3875 92.8958L47.804 101.214L31.75 94.4243L35.3359 86.1084L51.3875 92.8958Z" fill="white" fill-opacity="0.1"/>
<path d="M61.9602 75.8279L56.9973 83.0883L45.7612 76.3076L41.3104 82.8178L37.791 80.6917L51.6378 60.4297L55.1598 62.5558L50.7241 69.0448L61.9602 75.8279Z" fill="white" fill-opacity="0.1"/>
<path d="M74.1562 65.0983C71.1285 68.1147 68.2575 69.9839 65.5431 70.7009C62.4346 71.5169 59.6471 70.68 57.1728 68.1877C54.7011 65.6979 53.8868 62.9057 54.7298 59.8085C55.4606 57.0919 57.3398 54.2268 60.3675 51.2104C62.0666 49.5184 63.8048 48.1392 65.5875 47.0729C67.3597 45.9962 69.1214 45.4174 70.8754 45.3366C72.6319 45.2297 74.3363 45.7642 75.991 46.9373L69.1971 53.7053C68.2184 53.0145 67.2788 52.7225 66.3836 52.832C65.4753 52.9258 64.533 53.4603 63.5621 54.4275C62.3693 55.6163 61.8186 56.766 61.9152 57.8714C62.0092 58.9794 62.6877 60.1683 63.9484 61.4379C65.209 62.7076 66.3914 63.3932 67.4954 63.4949C68.5994 63.5966 69.7478 63.0517 70.9432 61.8629C71.9142 60.8931 72.457 59.9597 72.5693 59.0629C72.6711 58.153 72.3787 57.2066 71.6949 56.2212L78.4862 49.4506C79.6476 51.1139 80.1774 52.832 80.0756 54.6022C79.9712 56.3463 79.384 58.1113 78.3113 59.8893C77.2386 61.67 75.8527 63.4063 74.1562 65.0983Z" fill="white" fill-opacity="0.1"/>
<path d="M104.257 45.1465L96.4121 49.9229L92.9387 44.2297L86.0145 48.4465L89.4879 54.1423L81.6433 58.9187L72.5347 43.9899L80.3793 39.2135L83.8527 44.9067L90.7794 40.6874L87.3061 34.9941L95.1482 30.2178L104.257 45.1465Z" fill="white" fill-opacity="0.1"/>
<path d="M122.296 40.8429L100.781 48.3438L95.1924 30.2001L116.097 22.9092C117.286 22.4971 118.4 22.6035 119.442 23.2368C120.5 23.8619 121.223 24.8063 121.611 26.0674C121.894 26.9845 121.902 27.8908 121.637 28.7861C121.39 29.676 120.942 30.4457 120.294 31.0926C121.372 31.079 122.363 31.3738 123.271 31.977C124.177 32.5803 124.797 33.4237 125.134 34.5129C125.543 35.8449 125.487 37.1251 124.967 38.3616C124.439 39.5763 123.549 40.4034 122.296 40.8429ZM111.854 32.2254C112.26 32.0835 112.574 31.8133 112.793 31.412C113.022 30.9862 113.074 30.5658 112.945 30.1509C112.811 29.7196 112.569 29.403 112.219 29.1983C111.88 28.9744 111.514 28.9281 111.123 29.0645L105.385 31.0654L106.334 34.1498L111.854 32.2254ZM114.864 39.014C115.335 38.8475 115.657 38.5445 115.827 38.1023C116.015 37.6546 116.033 37.1906 115.883 36.7047C115.734 36.2216 115.428 35.8695 114.962 35.6484C114.499 35.4273 114.038 35.3972 113.583 35.5555L107.428 37.7011L108.514 41.2277L114.864 39.014Z" fill="white" fill-opacity="0.1"/>
<path d="M151.083 39.2228L141.497 40.2009L139.731 37.4393L128.23 38.6091L126.981 41.6804L120.872 42.3023L129.039 22.2228L139.518 21.1543L151.083 39.2228ZM137.037 33.2585L132.992 26.9351L130.111 33.9653L137.037 33.2585Z" fill="white" fill-opacity="0.1"/>
<path d="M156.071 43.1993C154.441 42.987 152.847 42.7049 151.286 42.3583C149.728 42.0116 148.334 41.5414 147.108 40.9476C145.9 40.3403 144.969 39.5611 144.311 38.6099C143.659 37.6399 143.415 36.428 143.583 34.9717L152.819 36.1754C152.741 36.8499 152.842 37.3685 153.124 37.7285C153.423 38.094 153.86 38.3654 154.436 38.5508C155.01 38.7335 155.682 38.8759 156.456 38.9753L157.385 39.0962C158.243 39.2091 158.964 39.2306 159.55 39.1634C160.205 39.1043 160.571 38.7362 160.647 38.0617C160.708 37.5458 160.248 37.0998 159.271 36.7182C158.34 36.3823 157.162 36.0196 155.743 35.638C154.058 35.1839 152.34 34.6439 150.591 34.0178C148.86 33.3783 147.413 32.5507 146.253 31.5323C145.014 30.4682 144.492 29.1032 144.685 27.4319C144.837 26.1179 145.304 25.0969 146.086 24.3714C146.885 23.6459 147.928 23.1595 149.218 22.9123C150.522 22.6678 151.969 22.6033 153.558 22.7215C155.147 22.8209 156.753 22.9768 158.383 23.1891C160.025 23.4041 161.611 23.6808 163.139 24.0247C164.685 24.3526 166.045 24.8174 167.218 25.422C168.411 26.0105 169.325 26.787 169.962 27.7543C170.601 28.7028 170.837 29.9066 170.67 31.363L161.634 30.1861C161.713 29.5089 161.611 28.9904 161.33 28.6303C161.048 28.2702 160.611 27.9962 160.02 27.8108C159.429 27.6254 158.451 27.4426 157.093 27.2653C156.271 27.1605 155.576 27.1417 155.005 27.2116C154.436 27.2814 154.114 27.6361 154.04 28.2756L154.015 28.4879C154.032 28.9232 154.505 29.3262 155.433 29.6997C156.36 30.0732 157.54 30.4628 158.977 30.8659C160.639 31.3522 162.335 31.9353 164.063 32.6098C165.809 33.2708 167.261 34.1011 168.424 35.1006C169.644 36.1781 170.165 37.5001 169.985 39.064C169.822 40.4666 169.332 41.5307 168.518 42.2535C167.7 42.9763 166.634 43.4412 165.317 43.6481C164 43.8361 162.54 43.863 160.939 43.726C159.337 43.5889 157.713 43.4116 156.071 43.1993Z" fill="white" fill-opacity="0.1"/>
<path d="M179.111 48.3443L169.88 45.5031L174.465 33.5026L166.19 30.9567L167.625 27.1963L193.38 35.122L191.945 38.8825L183.696 36.3438L179.111 48.3443Z" fill="white" fill-opacity="0.1"/>
<path d="M207.593 64.9612L199.251 60.2944L199.386 57.3798L189.375 51.7821L186.613 53.2287L181.296 50.2568L199.365 40.792L208.486 45.8932L207.593 64.9612ZM199.579 52.9589L199.893 46.2871L193.549 49.5884L199.579 52.9589Z" fill="white" fill-opacity="0.1"/>
<path d="M219.698 81.5775L213.282 75.1555L214.085 68.011L211.332 65.2576L207.491 69.3581L200.933 62.7921L213.042 49.8555L227.912 64.7408C229.114 65.9466 229.687 67.3426 229.63 68.9339C229.585 70.5356 228.982 71.9573 227.817 73.2016C226.825 74.2608 225.655 74.8701 224.309 75.0243C222.987 75.1812 221.723 74.9061 220.513 74.1965L219.698 81.5775ZM218.546 66.5353C218.952 66.9415 219.401 67.1652 219.895 67.2037C220.411 67.2449 220.865 67.0546 221.256 66.6356C222.029 65.8103 222.017 64.9388 221.216 64.0184L216.71 59.5091L214.204 62.188L218.546 66.5353Z" fill="white" fill-opacity="0.1"/>
<path d="M225.103 92.9939L214.528 77.5337L229.753 67.9814L240.328 83.4392C241.237 84.7725 241.701 86.1755 241.717 87.6531C241.748 89.1208 241.394 90.5138 240.656 91.8272C239.919 93.1432 238.846 94.2427 237.439 95.1258C236.032 96.0064 234.547 96.5138 232.979 96.6457C231.434 96.7825 229.959 96.5362 228.558 95.9093C227.164 95.2974 226.012 94.3248 225.103 92.9939ZM225.666 86.275C226.406 87.3571 227.398 88.0039 228.641 88.2153C229.894 88.4417 231.085 88.1979 232.215 87.489C233.346 86.78 234.047 85.8347 234.318 84.6531C234.612 83.479 234.388 82.3496 233.648 81.2675L231.343 77.8969L223.36 82.9044L225.666 86.275Z" fill="white" fill-opacity="0.1"/>
<path d="M236.548 122.362L233.397 113.735L235.34 111.467L231.558 101.115L228.621 100.668L226.612 95.1719L245.825 98.0894L249.271 107.522L236.548 122.362ZM238.279 108.017L242.733 102.825L236.002 101.782L238.279 108.017Z" fill="white" fill-opacity="0.1"/>
<path d="M233.177 130.266C232.941 128.743 232.779 127.234 232.69 125.742C232.603 124.248 232.682 122.88 232.922 121.635C233.188 120.402 233.691 119.381 234.437 118.57C235.202 117.758 236.317 117.263 237.78 117.085L239.124 125.73C238.448 125.811 237.969 126.021 237.696 126.359C237.423 126.711 237.277 127.17 237.255 127.732C237.234 128.296 237.28 128.936 237.39 129.659L237.528 130.53C237.653 131.332 237.829 131.991 238.053 132.508C238.288 133.086 238.745 133.334 239.424 133.253C239.941 133.191 240.252 132.672 240.355 131.699C240.43 130.778 240.46 129.631 240.447 128.258C240.428 126.628 240.484 124.947 240.617 123.22C240.766 121.506 241.18 120.01 241.853 118.727C242.548 117.363 243.735 116.578 245.412 116.376C246.735 116.214 247.854 116.407 248.774 116.952C249.699 117.511 250.456 118.346 251.049 119.46C251.641 120.588 252.098 121.882 252.417 123.348C252.755 124.812 253.042 126.304 253.277 127.827C253.518 129.367 253.68 130.868 253.761 132.329C253.864 133.805 253.78 135.142 253.512 136.342C253.266 137.558 252.761 138.562 251.993 139.359C251.243 140.154 250.137 140.639 248.674 140.818L247.357 132.363C248.036 132.279 248.512 132.07 248.788 131.732C249.061 131.394 249.209 130.937 249.228 130.359C249.247 129.781 249.158 128.855 248.958 127.584C248.839 126.816 248.669 126.18 248.444 125.678C248.22 125.178 247.787 124.967 247.146 125.045L246.932 125.071C246.513 125.185 246.248 125.704 246.137 126.63C246.026 127.556 245.972 128.715 245.969 130.107C245.95 131.725 245.845 133.393 245.658 135.111C245.493 136.844 245.082 138.35 244.425 139.628C243.708 140.98 242.567 141.751 240.996 141.941C239.587 142.112 238.418 141.91 237.493 141.334C236.566 140.758 235.822 139.897 235.262 138.75C234.718 137.598 234.296 136.282 233.993 134.8C233.688 133.317 233.417 131.806 233.177 130.266Z" fill="white" fill-opacity="0.1"/>
<path d="M232.938 150.476C233.065 148.822 233.264 147.202 233.531 145.61C233.802 144.021 234.207 142.593 234.746 141.327C235.303 140.081 236.051 139.104 236.989 138.396C237.947 137.689 239.178 137.386 240.679 137.486L239.959 146.861C239.263 146.815 238.736 146.943 238.383 147.243C238.027 147.564 237.77 148.017 237.613 148.604C237.458 149.194 237.351 149.878 237.29 150.663L237.218 151.609C237.152 152.478 237.169 153.206 237.271 153.793C237.367 154.452 237.765 154.803 238.46 154.849C238.993 154.885 239.426 154.4 239.76 153.396C240.055 152.439 240.359 151.237 240.674 149.784C241.046 148.063 241.504 146.305 242.048 144.51C242.608 142.734 243.378 141.234 244.355 140.017C245.376 138.717 246.748 138.122 248.473 138.238C249.828 138.327 250.901 138.75 251.691 139.506C252.48 140.275 253.038 141.306 253.36 142.595C253.686 143.9 253.832 145.356 253.799 146.964C253.785 148.571 253.716 150.201 253.589 151.852C253.462 153.521 253.264 155.136 252.996 156.692C252.745 158.266 252.345 159.661 251.79 160.873C251.255 162.104 250.507 163.065 249.552 163.755C248.614 164.444 247.394 164.739 245.89 164.639L246.596 155.469C247.292 155.516 247.816 155.387 248.172 155.087C248.528 154.785 248.782 154.331 248.939 153.726C249.097 153.119 249.229 152.127 249.334 150.747C249.4 149.914 249.381 149.209 249.276 148.638C249.174 148.066 248.79 147.758 248.131 147.715L247.91 147.699C247.465 147.738 247.076 148.235 246.745 149.189C246.414 150.142 246.083 151.352 245.749 152.819C245.34 154.521 244.838 156.259 244.242 158.033C243.663 159.827 242.893 161.332 241.932 162.552C240.894 163.834 239.567 164.424 237.955 164.316C236.506 164.219 235.389 163.775 234.602 162.988C233.816 162.199 233.277 161.145 232.993 159.825C232.725 158.507 232.618 157.036 232.668 155.413C232.72 153.79 232.808 152.145 232.938 150.476Z" fill="white" fill-opacity="0.1"/>
<path d="M223.593 185.554L226.389 176.967L235.053 176.415L228.278 171.166L231.074 162.579L249.273 161.637L246.506 170.129L236.345 170.645L244.327 176.822L241.888 184.308L231.689 184.939L239.709 191L237.956 196.38L223.593 185.554Z" fill="white" fill-opacity="0.1"/>
<path d="M208.485 206.916L213.334 198.781L216.217 199.02L222.034 189.258L220.674 186.46L223.763 181.275L232.655 199.572L227.355 208.466L208.485 206.916ZM220.594 199.362L227.196 199.908L224.095 193.483L220.594 199.362Z" fill="white" fill-opacity="0.1"/>
<path d="M190.359 218.686L198.591 211.529L215.274 212.842L206.687 204.49L210.803 200.912L223.591 213.35L215.338 220.524L198.676 219.194L207.26 227.545L203.144 231.124L190.359 218.686Z" fill="white" fill-opacity="0.1"/>
<path d="M167.701 229.953L176.689 224.806L185.684 227.528L186.773 225.348L183.987 220.625L192.03 216.018L200.934 231.11L192.891 235.718L189.686 230.284L184.65 240.438L177.176 244.718L182.131 234.727L167.701 229.953Z" fill="white" fill-opacity="0.1"/>
<path d="M151.084 233.479L174.202 226.592L179.785 242.364L156.664 249.25L155.405 245.69L169.49 241.496L168.588 238.95L155.98 242.703L155.433 239.156L167.4 235.591L166.563 233.225L152.478 237.421L151.084 233.479Z" fill="white" fill-opacity="0.1"/>
<path d="M128.426 234.004L137.619 233.018L142.547 238.523L146.492 238.101L145.915 232.131L155.311 231.124L157.127 249.952L135.826 252.233C134.099 252.417 132.649 251.949 131.472 250.826C130.276 249.703 129.593 248.236 129.418 246.425C129.269 244.883 129.583 243.5 130.364 242.274C131.126 241.07 132.18 240.204 133.527 239.679L128.426 234.004ZM140.7 243.232C140.118 243.294 139.649 243.516 139.288 243.9C138.915 244.304 138.755 244.81 138.814 245.419C138.93 246.62 139.608 247.199 140.844 247.159L147.298 246.466L146.922 242.566L140.7 243.232Z" fill="white" fill-opacity="0.1"/>
</svg>
