<svg xmlns="http://www.w3.org/2000/svg" viewBox="0 0 856.057 616.085">
  <g id="Calque_2" data-name="Calque 2">
    <g id="Calque_1-2" data-name="Calque 1">
      <path d="M468.933,593.754l21.3,2.263L488.1,616.085l-21.3-2.263a8.946,8.946,0,0,1-4.757-1.9,9.67,9.67,0,0,1-3-3.972,10.444,10.444,0,0,1-.7-5.177,10.612,10.612,0,0,1,1.772-4.943,9.366,9.366,0,0,1,3.767-3.253A9.086,9.086,0,0,1,468.933,593.754Zm5.63,5.411a4.848,4.848,0,0,0-3.831,1.13,5.23,5.23,0,0,0-1.861,3.6,5.134,5.134,0,0,0,1.066,3.882,4.845,4.845,0,0,0,3.508,1.909l4.645.494,1.117-10.522Z"/>
      <path d="M350.534,519.76l10.162,2.947-5.621,19.383-10.162-2.947Z"/>
      <path d="M326.043,508.786q6.358,3.14,8.944,7.021,2.947,4.447.37,9.668t-7.889,5.558q-4.653.306-11.012-2.834a30.119,30.119,0,0,1-6.2-3.992,12.341,12.341,0,0,1-3.712-4.92,8.735,8.735,0,0,1-.158-5.93l9.513,4.7a4.472,4.472,0,0,0,.093,3.261,5.414,5.414,0,0,0,2.681,2.385q2.506,1.239,4.193.5a8.713,8.713,0,0,0,3.88-7.858q-.433-1.789-2.941-3.028a5.535,5.535,0,0,0-3.511-.7,4.6,4.6,0,0,0-2.659,1.934l-9.513-4.7a8.865,8.865,0,0,1,4.818-3.5,12.753,12.753,0,0,1,6.163-.043A30.193,30.193,0,0,1,326.043,508.786Z"/>
      <path d="M145.508,531.1l9.188,7.437.7,10.688,2.8.259,3.972-4.908,8.224,6.657-12.7,15.687-8.224-6.657,4.57-5.647-13-1.172-7.642-6.185,12.79,1.153Z"/>
      <path d="M122.773,502.144l6.484,8.361-6.083,4.717L128.9,522.6l6.082-4.717,6.485,8.361-15.947,12.368-6.485-8.361,6.083-4.718-5.725-7.381-6.082,4.718-6.485-8.361Z"/>
      <path d="M139.21,353.538l11.37,24.567-18.315,8.477L120.9,362.014l4.134-1.914,6.926,14.966,2.956-1.368-6.2-13.4,4.213-1.124,5.885,12.716,2.747-1.272-6.926-14.965Z"/>
      <path d="M263.5,526.906l2.32,10.56-2.648,2.323,2.784,12.671,3.378,1,1.479,6.73-22.1-6.539-2.537-11.545Zm-4.333,16.42-6.064,5.317,7.741,2.314Z"/>
      <path d="M20.393,401.577,20.18,423,0,422.8l.213-21.42a8.952,8.952,0,0,1,1.432-4.916A9.65,9.65,0,0,1,5.312,393.1a10.423,10.423,0,0,1,5.086-1.191,10.606,10.606,0,0,1,5.09,1.291,9.376,9.376,0,0,1,3.6,3.438A9.09,9.09,0,0,1,20.393,401.577ZM15.546,407.7a4.848,4.848,0,0,0-1.491-3.7,5.233,5.233,0,0,0-3.762-1.507,5.137,5.137,0,0,0-3.763,1.433,4.847,4.847,0,0,0-1.564,3.674l-.047,4.671,10.58.105Z"/>
      <path d="M27.974,357.745l-5.83,24.721L2.5,377.833l5.665-24.019a4.457,4.457,0,0,1,2.254-3.023,5.123,5.123,0,0,1,3.825-.52,4.6,4.6,0,0,1,2.467,1.47,5.385,5.385,0,0,1,1.293,2.557,6.048,6.048,0,0,1,2.542-2.363,4.848,4.848,0,0,1,3.379-.388,5.46,5.46,0,0,1,3.373,2.277A4.769,4.769,0,0,1,27.974,357.745ZM14.086,363a1.837,1.837,0,0,0-.186-1.347,1.582,1.582,0,0,0-1.046-.839,1.7,1.7,0,0,0-1.284.171,1.394,1.394,0,0,0-.763.975l-1.555,6.594,3.339.788Zm7.886.853a1.65,1.65,0,0,0-.257-1.423,2,2,0,0,0-1.228-.823,1.8,1.8,0,0,0-1.492.3,2.08,2.08,0,0,0-.892,1.27l-1.668,7.071,3.816.9Z"/>
      <path d="M36.539,337.476l-4.155,9.732-18.56-7.926,4.155-9.73Z"/>
      <path d="M68.472,165.462l-5.718,8.9L49.825,166.06,44.7,174.041l-4.051-2.6L56.6,146.6l4.051,2.6-5.111,7.956Z"/>
      <path d="M90.272,141.08q-5.03,5-9.537,6.192-5.162,1.352-9.268-2.777t-2.707-9.263q1.215-4.5,6.243-9.5a30.149,30.149,0,0,1,5.782-4.571,12.333,12.333,0,0,1,5.856-1.921,8.73,8.73,0,0,1,5.662,1.768l-7.522,7.482a4.476,4.476,0,0,0-3.116-.967,5.416,5.416,0,0,0-3.124,1.766,4.929,4.929,0,0,0-1.825,3.807,8.715,8.715,0,0,0,6.181,6.214q1.835.168,3.817-1.8a5.543,5.543,0,0,0,1.8-3.094,4.6,4.6,0,0,0-.97-3.142l7.522-7.482a8.861,8.861,0,0,1,1.759,5.693,12.74,12.74,0,0,1-1.953,5.845A30.166,30.166,0,0,1,90.272,141.08Z"/>
      <path d="M154.712,76.555l-9.035,5.507-4.006-6.572L133.7,80.351l4.006,6.573-9.034,5.507L118.163,75.2l9.034-5.508,4.007,6.573L139.18,71.4l-4.007-6.573,9.034-5.507Z"/>
      <path d="M190.155,63.805l-24.136,7.91-6.285-19.177,23.451-7.686a4.456,4.456,0,0,1,3.754.347,5.131,5.131,0,0,1,2.438,2.994,4.6,4.6,0,0,1,.031,2.872A5.383,5.383,0,0,1,187.9,53.5a6.061,6.061,0,0,1,3.342.937,4.859,4.859,0,0,1,2.092,2.682,5.462,5.462,0,0,1-.185,4.066A4.773,4.773,0,0,1,190.155,63.805Zm-11.724-9.112a1.849,1.849,0,0,0,1.053-.861,1.588,1.588,0,0,0,.171-1.33,1.7,1.7,0,0,0-.816-1.007,1.394,1.394,0,0,0-1.23-.143l-6.438,2.11,1.068,3.26Zm3.383,7.174a1.652,1.652,0,0,0,1.08-.961,2,2,0,0,0,.062-1.477,1.8,1.8,0,0,0-1.033-1.117,2.082,2.082,0,0,0-1.55-.1l-6.9,2.262L174.69,64.2Z"/>
      <path d="M498.151,95.216l-10.762,1.026-1.986-2.91-12.915,1.231-1.4,3.232-6.859.654L473.392,77.3l11.767-1.121Zm-15.774-6.287-4.545-6.662-3.233,7.4Z"/>
      <path d="M617.466,37.951q-2.775-.341-5.437-.9a22.618,22.618,0,0,1-4.753-1.513,8.173,8.173,0,0,1-3.177-2.51,5.364,5.364,0,0,1-.827-3.907l10.5,1.289a2.133,2.133,0,0,0,.347,1.67,3.108,3.108,0,0,0,1.49.88,14.013,14.013,0,0,0,2.3.456l1.058.13a10.962,10.962,0,0,0,2.461.07,1.235,1.235,0,0,0,1.249-1.183q.1-.83-1.566-1.441-1.589-.544-4.011-1.161-2.874-.73-5.858-1.736a15.842,15.842,0,0,1-4.93-2.667,4.614,4.614,0,0,1-1.783-4.4,5,5,0,0,1,1.595-3.29,7.382,7.382,0,0,1,3.561-1.567,20.309,20.309,0,0,1,4.935-.207q2.71.159,5.486.5,2.805.345,5.409.9a19.253,19.253,0,0,1,4.638,1.5,7.623,7.623,0,0,1,3.12,2.5,5.332,5.332,0,0,1,.8,3.874L623.8,23.973a2.127,2.127,0,0,0-.347-1.669,2.955,2.955,0,0,0-1.489-.88,23.029,23.029,0,0,0-3.327-.583,10.294,10.294,0,0,0-2.375-.059,1.165,1.165,0,0,0-1.1,1.143l-.029.229q.031.7,1.613,1.3a42.048,42.048,0,0,0,4.029,1.25q2.836.783,5.783,1.872a16.686,16.686,0,0,1,4.958,2.671A4.546,4.546,0,0,1,633.29,33.5a5.063,5.063,0,0,1-1.669,3.425,7.2,7.2,0,0,1-3.641,1.5,23.307,23.307,0,0,1-4.977.086Q620.27,38.3,617.466,37.951Z"/>
      <path d="M656.892,47.249l-10.008-3.432,4.983-14.535-8.973-3.076,1.562-4.555,27.926,9.574-1.561,4.554-8.945-3.066Z"/>
      <path d="M701.076,71.063l-9.231-5.627.153-3.52L680.92,55.164l-3.058,1.748-5.883-3.586,20.006-11.44,10.093,6.153Zm-8.863-14.485.354-8.057-7.025,3.99Z"/>
      <path d="M728.228,97.176l-7.436-7.2.93-8.008-3.191-3.088-4.451,4.6-7.6-7.359,14.036-14.5L737.749,78.3a6.017,6.017,0,0,1,1.992,4.7,7,7,0,0,1-2.1,4.785,6.538,6.538,0,0,1-4.065,2.044,7.1,7.1,0,0,1-4.4-.928Zm-1.334-16.86a2.489,2.489,0,0,0,1.561.749,2.082,2.082,0,0,0,1.533-3.572l-5.221-5.053-2.907,3Z"/>
      <path d="M796.49,28.977,784.751,11.059,801.632,0l11.739,17.918a8.953,8.953,0,0,1,1.544,4.882,9.653,9.653,0,0,1-1.175,4.836,10.437,10.437,0,0,1-3.564,3.818,10.613,10.613,0,0,1-4.948,1.76,9.385,9.385,0,0,1-4.9-.855A9.085,9.085,0,0,1,796.49,28.977Zm.622-7.783a4.851,4.851,0,0,0,3.3,2.25,5.241,5.241,0,0,0,3.965-.84,5.135,5.135,0,0,0,2.329-3.284,4.845,4.845,0,0,0-.744-3.924L803.4,11.489l-8.851,5.8Z"/>
      <path d="M816.46,75.362l-3.745-10.141,2.3-2.665-4.494-12.17-3.483-.527L804.654,43.4l22.787,3.447,4.095,11.089ZM818.5,58.5l5.278-6.1L815.8,51.175Z"/>
      <path d="M818.716,97.034q-.381-2.771-.522-5.487a22.712,22.712,0,0,1,.247-4.981,8.167,8.167,0,0,1,1.614-3.714,5.361,5.361,0,0,1,3.564-1.8l1.441,10.482a2.127,2.127,0,0,0-1.524.762,3.1,3.1,0,0,0-.47,1.665,13.861,13.861,0,0,0,.147,2.337l.145,1.057a10.913,10.913,0,0,0,.562,2.4,1.234,1.234,0,0,0,1.463.905q.828-.114.993-1.882.119-1.675.1-4.175-.029-2.964.179-6.107a15.866,15.866,0,0,1,1.317-5.448,4.614,4.614,0,0,1,3.8-2.85,5.007,5.007,0,0,1,3.589.7,7.39,7.39,0,0,1,2.426,3.043,20.307,20.307,0,0,1,1.463,4.717q.54,2.661.921,5.431.386,2.8.518,5.458a19.282,19.282,0,0,1-.262,4.867,7.616,7.616,0,0,1-1.622,3.657,5.333,5.333,0,0,1-3.54,1.767l-1.41-10.253a2.131,2.131,0,0,0,1.525-.763,2.958,2.958,0,0,0,.469-1.665,22.73,22.73,0,0,0-.288-3.365,10.2,10.2,0,0,0-.55-2.311,1.165,1.165,0,0,0-1.386-.77l-.229.032q-.669.208-.846,1.891a42.088,42.088,0,0,0-.177,4.215q-.031,2.943-.33,6.069a16.674,16.674,0,0,1-1.313,5.477,4.547,4.547,0,0,1-3.66,2.8,5.068,5.068,0,0,1-3.739-.737,7.2,7.2,0,0,1-2.381-3.136,23.257,23.257,0,0,1-1.356-4.79Q819.1,99.833,818.716,97.034Z"/>
      <path d="M833.811,258.974q.2-2.788.624-5.476a22.688,22.688,0,0,1,1.27-4.823,8.19,8.19,0,0,1,2.347-3.3,5.363,5.363,0,0,1,3.859-1.024l-.756,10.553a2.132,2.132,0,0,0-1.649.431,3.1,3.1,0,0,0-.8,1.533,13.829,13.829,0,0,0-.34,2.317l-.076,1.064a10.907,10.907,0,0,0,.055,2.46,1.234,1.234,0,0,0,1.244,1.188q.834.06,1.361-1.637.462-1.614.955-4.065.585-2.906,1.437-5.938a15.844,15.844,0,0,1,2.415-5.058,4.614,4.614,0,0,1,4.306-2,5,5,0,0,1,3.366,1.426,7.369,7.369,0,0,1,1.745,3.478,20.259,20.259,0,0,1,.457,4.917q-.021,2.717-.221,5.505-.2,2.818-.621,5.447a19.251,19.251,0,0,1-1.262,4.708,7.617,7.617,0,0,1-2.342,3.243,5.334,5.334,0,0,1-3.829,1l.739-10.323a2.135,2.135,0,0,0,1.65-.431,2.961,2.961,0,0,0,.8-1.532,23.045,23.045,0,0,0,.414-3.353,10.241,10.241,0,0,0-.062-2.374,1.165,1.165,0,0,0-1.2-1.04l-.23-.016q-.7.066-1.218,1.676a41.894,41.894,0,0,0-1.045,4.087q-.639,2.874-1.576,5.87a16.716,16.716,0,0,1-2.417,5.088,4.549,4.549,0,0,1-4.16,1.985,5.064,5.064,0,0,1-3.506-1.494,7.193,7.193,0,0,1-1.681-3.56,23.252,23.252,0,0,1-.338-4.967Q833.61,261.793,833.811,258.974Z"/>
      <path d="M825.509,544.466l3.332-10.042,10.3-.653-8.05-6.133,3.332-10.043,21.633-1.115-3.3,9.933-12.079.609,9.483,7.217L847.26,543l-12.124.746,9.528,7.08-2.089,6.293Z"/>
      <path d="M800.564,585.91l5.908-9.054,3.513.262,7.091-10.865-1.654-3.11,3.766-5.77,10.818,20.349-6.46,9.9Zm14.751-8.413,8.042.6-3.772-7.143Z"/>
      <path d="M604.477,558.386l8.924-8.437,18.087,1.548-9.308-9.847,4.462-4.218L640.506,552.1l-8.946,8.457-18.066-1.568,9.309,9.846-4.463,4.219Z"/>
      <path d="M566.739,581.578l10.219-5.941,10.236,3.153,1.237-2.519-3.173-5.459,9.147-5.317,10.142,17.447L595.4,588.26l-3.651-6.281-5.72,11.728-8.5,4.941,5.629-11.542Z"/>
      <path d="M535.08,591.708l25.749-8.36,6.232,19.2-25.749,8.36-1.406-4.333,15.685-5.092-1.007-3.1-14.039,4.558-.614-4.317,13.327-4.327-.935-2.879-15.685,5.093Z"/>
      <path d="M495.6,596.467l10.3-1.047,5.523,5.872,4.417-.449-.647-6.367,10.526-1.07,2.041,20.077-23.864,2.426a6.016,6.016,0,0,1-4.876-1.5,7,7,0,0,1-2.3-4.692,6.54,6.54,0,0,1,1.058-4.426,7.1,7.1,0,0,1,3.544-2.765Zm13.751,9.846a2.493,2.493,0,0,0-1.579.711,2.082,2.082,0,0,0,1.744,3.474l7.228-.735-.423-4.159Z"/>
      <path d="M471.963,571.391,490.9,573.4,489,591.243l-18.936-2.012a7.951,7.951,0,0,1-4.229-1.686,8.592,8.592,0,0,1-2.666-3.531,9.28,9.28,0,0,1-.62-4.6,9.434,9.434,0,0,1,1.576-4.394,8.32,8.32,0,0,1,3.348-2.892A8.084,8.084,0,0,1,471.963,571.391Zm5,4.81a4.309,4.309,0,0,0-3.4,1,4.656,4.656,0,0,0-1.655,3.2,4.564,4.564,0,0,0,.948,3.451,4.308,4.308,0,0,0,3.119,1.7l4.129.439.993-9.354Z"/>
      <path d="M357.286,498.235l9.034,2.62-5,17.231-9.034-2.62Z"/>
      <path d="M335.926,488.61q5.654,2.791,7.951,6.242a9,9,0,0,1-6.684,13.535q-4.137.273-9.79-2.519a26.823,26.823,0,0,1-5.508-3.549,10.973,10.973,0,0,1-3.3-4.374,7.769,7.769,0,0,1-.141-5.272l8.457,4.177a3.979,3.979,0,0,0,.083,2.9,4.813,4.813,0,0,0,2.384,2.12,4.384,4.384,0,0,0,3.727.441,7.749,7.749,0,0,0,3.45-6.987,4.383,4.383,0,0,0-2.615-2.692,4.931,4.931,0,0,0-3.121-.626,4.083,4.083,0,0,0-2.364,1.719L320,489.548a7.877,7.877,0,0,1,4.283-3.116,11.322,11.322,0,0,1,5.479-.038A26.809,26.809,0,0,1,335.926,488.61Z"/>
      <path d="M161.188,514.791l8.168,6.611.619,9.5,2.484.23,3.532-4.363,7.311,5.918-11.286,13.946-7.312-5.918,4.063-5.02-11.554-1.042-6.793-5.5,11.37,1.025Z"/>
      <path d="M175.308,376.144l5.765,7.433-5.408,4.194,5.09,6.561,5.407-4.193,5.765,7.432-14.177,11-5.765-7.433,5.408-4.194-5.09-6.562-5.407,4.194-5.765-7.433Z"/>
      <path d="M160.287,345.418,170.4,367.259l-16.282,7.535-10.108-21.841,3.675-1.7,6.157,13.305,2.629-1.216-5.512-11.909,3.746-1,5.231,11.305,2.443-1.131-6.158-13.3Z"/>
      <path d="M162.561,510.1l2.062,9.387-2.354,2.065,2.475,11.265,3,.889,1.315,5.982-19.646-5.812-2.255-10.264Zm-3.852,14.6-5.391,4.727,6.881,2.057Z"/>
      <path d="M42.922,402.48l-.189,19.042-17.94-.178.189-19.043a7.949,7.949,0,0,1,1.274-4.37,8.583,8.583,0,0,1,3.259-2.992,9.275,9.275,0,0,1,4.521-1.057,9.427,9.427,0,0,1,4.526,1.147,8.328,8.328,0,0,1,3.2,3.056A8.086,8.086,0,0,1,42.922,402.48Zm-4.309,5.442a4.311,4.311,0,0,0-1.326-3.294,4.656,4.656,0,0,0-3.344-1.34,4.562,4.562,0,0,0-3.345,1.274,4.309,4.309,0,0,0-1.39,3.267l-.042,4.151,9.406.094Z"/>
      <path d="M498.386,117.861l-9.568.911-1.766-2.586-11.481,1.094-1.246,2.873-6.1.582,8.146-18.8,10.461-1Zm-14.024-5.59-4.04-5.922-2.874,6.581Z"/>
      <path d="M49.569,365.063l-5.184,21.978-17.461-4.119,5.036-21.353a3.962,3.962,0,0,1,2-2.688,4.561,4.561,0,0,1,3.4-.462,4.088,4.088,0,0,1,2.193,1.308A4.781,4.781,0,0,1,40.706,362a5.391,5.391,0,0,1,2.26-2.1,4.307,4.307,0,0,1,3-.344,4.847,4.847,0,0,1,3,2.023A4.241,4.241,0,0,1,49.569,365.063Zm-12.346,4.673a1.638,1.638,0,0,0-.166-1.2,1.41,1.41,0,0,0-.93-.746,1.511,1.511,0,0,0-1.141.152,1.241,1.241,0,0,0-.679.867l-1.383,5.862,2.969.7Zm7.01.758A1.469,1.469,0,0,0,44,369.228a1.774,1.774,0,0,0-1.091-.731,1.606,1.606,0,0,0-1.327.266,1.855,1.855,0,0,0-.793,1.13l-1.482,6.287,3.392.8Z"/>
      <path d="M57.063,346.813l-3.694,8.65-16.5-7.045,3.694-8.65Z"/>
      <path d="M87.132,178.126l-5.084,7.914-11.494-7.382L66,185.753l-3.6-2.313,14.183-22.083,3.6,2.313-4.543,7.073Z"/>
      <path d="M220.075,68.674q-4.471,4.447-8.479,5.5a8.1,8.1,0,0,1-8.239-2.469,8.046,8.046,0,0,1-2.406-8.234q1.08-4,5.55-8.449a26.832,26.832,0,0,1,5.14-4.064,10.974,10.974,0,0,1,5.206-1.707,7.764,7.764,0,0,1,5.034,1.572l-6.687,6.651a3.976,3.976,0,0,0-2.771-.859,4.814,4.814,0,0,0-2.777,1.569,4.382,4.382,0,0,0-1.622,3.385,5.994,5.994,0,0,0,2,3.5,6,6,0,0,0,3.492,2.021,4.382,4.382,0,0,0,3.394-1.6,4.926,4.926,0,0,0,1.6-2.75,4.09,4.09,0,0,0-.862-2.794l6.687-6.651A7.873,7.873,0,0,1,225.9,58.36a11.323,11.323,0,0,1-1.736,5.2A26.75,26.75,0,0,1,220.075,68.674Z"/>
      <path d="M165.153,96.6l-8.032,4.9-3.562-5.844-7.09,4.323,3.562,5.843-8.032,4.9L132.661,95.4l8.031-4.9,3.562,5.843,7.091-4.322-3.562-5.844,8.032-4.895Z"/>
      <path d="M196,85.628,174.546,92.66l-5.588-17.049,20.848-6.832a3.96,3.96,0,0,1,3.338.308,4.56,4.56,0,0,1,2.167,2.662,4.091,4.091,0,0,1,.028,2.553A4.8,4.8,0,0,1,194,76.467a5.388,5.388,0,0,1,2.971.834,4.309,4.309,0,0,1,1.86,2.384,4.854,4.854,0,0,1-.164,3.614A4.245,4.245,0,0,1,196,85.628Zm-10.423-8.1a1.64,1.64,0,0,0,.936-.765,1.408,1.408,0,0,0,.152-1.183,1.511,1.511,0,0,0-.725-.895,1.241,1.241,0,0,0-1.094-.127l-5.723,1.876.95,2.9Zm3.007,6.378a1.469,1.469,0,0,0,.961-.855,1.773,1.773,0,0,0,.055-1.312,1.605,1.605,0,0,0-.919-.994,1.855,1.855,0,0,0-1.377-.088l-6.138,2.012,1.086,3.312Z"/>
      <path d="M565.666,156.109q-2.468-.3-4.834-.8a20.139,20.139,0,0,1-4.225-1.345,7.262,7.262,0,0,1-2.824-2.232,4.765,4.765,0,0,1-.736-3.473l9.336,1.146a1.9,1.9,0,0,0,.308,1.484,2.762,2.762,0,0,0,1.325.783,12.485,12.485,0,0,0,2.042.405l.941.116a9.778,9.778,0,0,0,2.187.062,1.1,1.1,0,0,0,1.11-1.052q.091-.738-1.392-1.281-1.412-.483-3.566-1.032-2.553-.649-5.207-1.543a14.086,14.086,0,0,1-4.383-2.371,4.1,4.1,0,0,1-1.585-3.913,4.446,4.446,0,0,1,1.418-2.925,6.551,6.551,0,0,1,3.166-1.393,18.046,18.046,0,0,1,4.387-.185q2.409.141,4.877.444,2.493.306,4.809.8a17.134,17.134,0,0,1,4.123,1.333,6.766,6.766,0,0,1,2.773,2.225,4.742,4.742,0,0,1,.714,3.445l-9.133-1.121a1.9,1.9,0,0,0-.308-1.484,2.631,2.631,0,0,0-1.325-.783,20.589,20.589,0,0,0-2.957-.518,9.091,9.091,0,0,0-2.111-.052,1.035,1.035,0,0,0-.977,1.016l-.025.2q.027.624,1.433,1.158a37.466,37.466,0,0,0,3.582,1.111q2.523.7,5.141,1.664a14.86,14.86,0,0,1,4.408,2.374,4.045,4.045,0,0,1,1.576,3.783,4.508,4.508,0,0,1-1.484,3.046,6.39,6.39,0,0,1-3.237,1.332,20.673,20.673,0,0,1-4.425.077Q568.16,156.415,565.666,156.109Z"/>
      <path d="M649.024,68.416l-8.9-3.05,4.43-12.923-7.976-2.734,1.388-4.049L662.8,54.171l-1.388,4.049-7.953-2.726Z"/>
      <path d="M756.527,282.8l-8.207-5,.137-3.129-9.848-6-2.719,1.555-5.23-3.189,17.785-10.169,8.973,5.469Zm-7.879-12.878.314-7.162-6.245,3.547Z"/>
      <path d="M815.538,343.918l-6.611-6.4.826-7.119-2.836-2.745-3.957,4.088L796.2,325.2,808.68,312.31,824,327.141a5.346,5.346,0,0,1,1.772,4.176,6.222,6.222,0,0,1-1.87,4.254,5.807,5.807,0,0,1-3.614,1.817,6.314,6.314,0,0,1-3.91-.824Zm-1.186-14.989a2.212,2.212,0,0,0,1.388.667,1.851,1.851,0,0,0,1.362-3.176l-4.641-4.492-2.584,2.67Z"/>
      <path d="M777.219,40.78,766.783,24.851l15.007-9.832,10.436,15.929a7.952,7.952,0,0,1,1.373,4.341,8.6,8.6,0,0,1-1.044,4.3,9.287,9.287,0,0,1-3.169,3.394,9.429,9.429,0,0,1-4.4,1.564,8.328,8.328,0,0,1-4.359-.76A8.081,8.081,0,0,1,777.219,40.78Zm.553-6.919a4.311,4.311,0,0,0,2.934,2,4.66,4.66,0,0,0,3.525-.747A4.569,4.569,0,0,0,786.3,32.2a4.315,4.315,0,0,0-.662-3.489l-2.275-3.473L775.5,30.388Z"/>
      <path d="M794.612,81.41l-3.329-9.016,2.048-2.369-4-10.819-3.1-.468-2.122-5.746,20.257,3.065,3.641,9.857Zm1.815-14.987L801.119,61l-7.1-1.094Z"/>
      <path d="M796.406,100.011q-.339-2.463-.464-4.878a20.131,20.131,0,0,1,.22-4.428,7.263,7.263,0,0,1,1.434-3.3,4.769,4.769,0,0,1,3.169-1.6l1.281,9.318a1.9,1.9,0,0,0-1.355.678,2.763,2.763,0,0,0-.418,1.48,12.435,12.435,0,0,0,.131,2.078l.129.939a9.706,9.706,0,0,0,.5,2.131,1.1,1.1,0,0,0,1.3.8q.736-.1.883-1.673.1-1.489.085-3.712-.027-2.635.159-5.429a14.086,14.086,0,0,1,1.171-4.843,4.1,4.1,0,0,1,3.377-2.534,4.449,4.449,0,0,1,3.19.622,6.56,6.56,0,0,1,2.157,2.7,18.066,18.066,0,0,1,1.3,4.193q.48,2.365.819,4.829.342,2.489.46,4.852a17.109,17.109,0,0,1-.233,4.327,6.77,6.77,0,0,1-1.442,3.251,4.743,4.743,0,0,1-3.147,1.571l-1.253-9.116a1.888,1.888,0,0,0,1.355-.678,2.626,2.626,0,0,0,.418-1.48,20.648,20.648,0,0,0-.256-2.992,9.053,9.053,0,0,0-.49-2.054,1.035,1.035,0,0,0-1.232-.684l-.2.028q-.6.184-.752,1.681a37.143,37.143,0,0,0-.158,3.747q-.029,2.617-.293,5.4a14.853,14.853,0,0,1-1.167,4.869,4.045,4.045,0,0,1-3.254,2.491,4.5,4.5,0,0,1-3.324-.656,6.393,6.393,0,0,1-2.117-2.787,20.736,20.736,0,0,1-1.206-4.258Q796.748,102.5,796.406,100.011Z"/>
      <path d="M745.091,224.108q.179-2.479.555-4.868a20.145,20.145,0,0,1,1.129-4.288,7.283,7.283,0,0,1,2.086-2.934,4.771,4.771,0,0,1,3.431-.91l-.672,9.382a1.894,1.894,0,0,0-1.466.383,2.749,2.749,0,0,0-.714,1.362,12.389,12.389,0,0,0-.3,2.06l-.068.946a9.727,9.727,0,0,0,.049,2.188,1.1,1.1,0,0,0,1.106,1.055q.742.054,1.209-1.455.412-1.435.85-3.614.519-2.583,1.278-5.278a14.086,14.086,0,0,1,2.146-4.5,4.1,4.1,0,0,1,3.828-1.781,4.449,4.449,0,0,1,2.993,1.268,6.554,6.554,0,0,1,1.551,3.092,18.044,18.044,0,0,1,.407,4.371q-.019,2.415-.2,4.894-.178,2.5-.552,4.843a17.122,17.122,0,0,1-1.122,4.185,6.77,6.77,0,0,1-2.083,2.883,4.741,4.741,0,0,1-3.4.887l.658-9.178a1.893,1.893,0,0,0,1.466-.383,2.637,2.637,0,0,0,.715-1.362,20.55,20.55,0,0,0,.367-2.98,9.091,9.091,0,0,0-.054-2.111,1.036,1.036,0,0,0-1.065-.925l-.2-.014q-.621.058-1.083,1.49a37.318,37.318,0,0,0-.929,3.633q-.569,2.554-1.4,5.219a14.863,14.863,0,0,1-2.149,4.523,4.044,4.044,0,0,1-3.7,1.765,4.509,4.509,0,0,1-3.117-1.328,6.4,6.4,0,0,1-1.494-3.165,20.614,20.614,0,0,1-.3-4.416Q744.912,226.613,745.091,224.108Z"/>
      <path d="M804.528,535.972l2.962-8.928,9.158-.58-7.156-5.453,2.962-8.927,19.231-.992-2.929,8.83-10.739.542,8.431,6.416-2.583,7.784-10.779.664,8.471,6.293-1.857,5.6Z"/>
      <path d="M782.673,572l5.253-8.049,3.123.232,6.3-9.658-1.47-2.765,3.348-5.13,9.617,18.09-5.743,8.8Zm13.114-7.479,7.15.534-3.354-6.351Z"/>
      <path d="M661.534,493.149l7.935-7.5,16.079,1.377-8.275-8.754,3.967-3.75,12.325,13.037-7.953,7.518-16.061-1.394,8.276,8.754-3.968,3.75Z"/>
      <path d="M557.055,561.1l9.084-5.281,9.1,2.8,1.1-2.239-2.821-4.853,8.132-4.727,9.017,15.51-8.132,4.728-3.246-5.584L574.2,571.879l-7.556,4.392,5-10.261Z"/>
      <path d="M529.506,569.789l22.891-7.432,5.54,17.064-22.89,7.432L533.8,583l13.944-4.527-.894-2.754-12.482,4.052-.545-3.838,11.847-3.847-.831-2.559-13.944,4.527Z"/>
      <path d="M495.033,573.844l9.154-.931,4.91,5.22,3.927-.4-.576-5.66,9.358-.952,1.815,17.849-21.215,2.157a5.349,5.349,0,0,1-4.335-1.337,6.218,6.218,0,0,1-2.047-4.172,5.81,5.81,0,0,1,.939-3.934,6.309,6.309,0,0,1,3.151-2.458Zm12.225,8.753a2.216,2.216,0,0,0-1.4.632,1.852,1.852,0,0,0,1.55,3.089l6.426-.654-.376-3.7Z"/>
      <path d="M474.713,548.916l16.831,1.787L489.86,566.56l-16.831-1.788a7.07,7.07,0,0,1-3.758-1.5,7.647,7.647,0,0,1-2.37-3.139,8.249,8.249,0,0,1-.55-4.09,8.368,8.368,0,0,1,1.4-3.906,7.4,7.4,0,0,1,2.976-2.57A7.175,7.175,0,0,1,474.713,548.916Zm4.449,4.275a3.832,3.832,0,0,0-3.027.892,4.135,4.135,0,0,0-1.471,2.845,4.06,4.06,0,0,0,.843,3.068,3.832,3.832,0,0,0,2.772,1.508l3.669.39.883-8.313Z"/>
      <path d="M454.71,543.944l8.03,2.329L458.3,561.588l-8.029-2.329Z"/>
      <path d="M345.661,468.26q5.023,2.481,7.067,5.548a8,8,0,0,1-5.942,12.03q-3.677.243-8.7-2.239a23.817,23.817,0,0,1-4.895-3.154,9.752,9.752,0,0,1-2.933-3.888,6.9,6.9,0,0,1-.125-4.685l7.516,3.712a3.539,3.539,0,0,0,.074,2.577,4.284,4.284,0,0,0,2.118,1.884,3.9,3.9,0,0,0,3.313.391,6.885,6.885,0,0,0,3.067-6.209,3.9,3.9,0,0,0-2.325-2.393,4.377,4.377,0,0,0-2.773-.557,3.637,3.637,0,0,0-2.1,1.529l-7.516-3.712a7,7,0,0,1,3.806-2.77,10.072,10.072,0,0,1,4.87-.034A23.839,23.839,0,0,1,345.661,468.26Z"/>
      <path d="M414.164,347.113l7.26,5.875.55,8.446,2.208.2,3.138-3.877,6.5,5.259-10.032,12.4-6.5-5.259,3.611-4.463-10.269-.926-6.038-4.887,10.1.911Z"/>
      <path d="M193.847,363.135l5.124,6.606-4.806,3.728,4.523,5.832,4.807-3.727,5.123,6.606-12.6,9.772-5.123-6.606,4.806-3.727-4.523-5.833-4.807,3.728-5.123-6.606Z"/>
      <path d="M400.311,438.445l8.984,19.412-14.471,6.7-8.984-19.412,3.266-1.512,5.473,11.825,2.336-1.081-4.9-10.585,3.329-.888L400,452.949l2.171-1-5.473-11.825Z"/>
      <path d="M274.244,365.686l1.834,8.343-2.093,1.836,2.2,10.012,2.669.79,1.169,5.317-17.462-5.166-2-9.122Zm-3.423,12.973-4.791,4.2,6.116,1.828Z"/>
      <path d="M65.534,403.1l-.168,16.924-15.945-.158.168-16.925a7.077,7.077,0,0,1,1.132-3.884,7.632,7.632,0,0,1,2.9-2.659,8.245,8.245,0,0,1,4.019-.94,8.382,8.382,0,0,1,4.022,1.019A7.414,7.414,0,0,1,64.5,399.19,7.172,7.172,0,0,1,65.534,403.1Zm-3.83,4.837a3.829,3.829,0,0,0-1.178-2.928,4.139,4.139,0,0,0-2.972-1.191,4.06,4.06,0,0,0-2.973,1.132,3.829,3.829,0,0,0-1.236,2.9l-.037,3.69,8.36.084Z"/>
      <path d="M71.38,371.117l-4.607,19.535-15.52-3.662,4.476-18.978a3.516,3.516,0,0,1,1.78-2.388,4.046,4.046,0,0,1,3.023-.412,3.632,3.632,0,0,1,1.949,1.162,4.251,4.251,0,0,1,1.022,2.02,4.783,4.783,0,0,1,2.008-1.867,3.833,3.833,0,0,1,2.671-.306,4.312,4.312,0,0,1,2.665,1.8A3.772,3.772,0,0,1,71.38,371.117ZM60.407,375.27a1.457,1.457,0,0,0-.147-1.064,1.252,1.252,0,0,0-.827-.664,1.345,1.345,0,0,0-1.015.136,1.1,1.1,0,0,0-.6.77l-1.229,5.21,2.639.623Zm6.23.674a1.3,1.3,0,0,0-.2-1.125,1.58,1.58,0,0,0-.97-.65,1.426,1.426,0,0,0-1.179.237,1.648,1.648,0,0,0-.7,1L62.262,381l3.016.711Z"/>
      <path d="M77.718,356.04l-3.282,7.689L59.77,357.467l3.283-7.689Z"/>
      <path d="M123.075,222.782l-4.518,7.034-10.216-6.561-4.05,6.306-3.2-2.056L113.7,207.878l3.2,2.056-4.038,6.286Z"/>
      <path d="M236.146,84.5q-3.972,3.951-7.535,4.892a8,8,0,0,1-9.462-9.513q.96-3.556,4.933-7.509a23.85,23.85,0,0,1,4.568-3.612,9.749,9.749,0,0,1,4.628-1.518,6.9,6.9,0,0,1,4.474,1.4l-5.944,5.912a3.529,3.529,0,0,0-2.462-.764,4.279,4.279,0,0,0-2.469,1.395,3.891,3.891,0,0,0-1.441,3.008,6.886,6.886,0,0,0,4.883,4.91,3.9,3.9,0,0,0,3.016-1.426,4.371,4.371,0,0,0,1.424-2.444,3.633,3.633,0,0,0-.766-2.483l5.944-5.912a7.008,7.008,0,0,1,1.389,4.5,10.06,10.06,0,0,1-1.543,4.619A23.807,23.807,0,0,1,236.146,84.5Z"/>
      <path d="M269.574,59.741l-7.138,4.351L259.27,58.9l-6.3,3.841,3.166,5.194L249,72.285,240.7,58.67l7.139-4.352L251,59.511l6.3-3.841-3.166-5.194,7.138-4.351Z"/>
      <path d="M202.194,107.422l-19.071,6.25-4.966-15.153,18.529-6.073a3.523,3.523,0,0,1,2.967.275,4.048,4.048,0,0,1,1.926,2.365,3.624,3.624,0,0,1,.024,2.269,4.242,4.242,0,0,1-1.191,1.925,4.777,4.777,0,0,1,2.64.741,3.83,3.83,0,0,1,1.654,2.119,4.318,4.318,0,0,1-.146,3.212A3.77,3.77,0,0,1,202.194,107.422Zm-9.264-7.2a1.457,1.457,0,0,0,.832-.68,1.256,1.256,0,0,0,.135-1.051,1.344,1.344,0,0,0-.644-.8,1.1,1.1,0,0,0-.972-.113l-5.087,1.667.844,2.576Zm2.673,5.668a1.305,1.305,0,0,0,.854-.759,1.582,1.582,0,0,0,.049-1.167,1.43,1.43,0,0,0-.817-.883,1.651,1.651,0,0,0-1.224-.078l-5.455,1.788.965,2.944Z"/>
      <path d="M659.618,138.413l-8.5.81-1.569-2.3-10.2.972-1.106,2.554-5.42.517,7.24-16.708,9.3-.886Zm-12.464-4.968-3.591-5.264-2.554,5.849Z"/>
      <path d="M547.072,247.954q-2.193-.27-4.3-.711a17.9,17.9,0,0,1-3.755-1.2,6.46,6.46,0,0,1-2.511-1.983,4.242,4.242,0,0,1-.653-3.087l8.3,1.019a1.681,1.681,0,0,0,.274,1.319,2.446,2.446,0,0,0,1.177.695,11.029,11.029,0,0,0,1.814.36l.837.1a8.58,8.58,0,0,0,1.944.055.975.975,0,0,0,.987-.934q.081-.657-1.237-1.139-1.255-.431-3.17-.917-2.269-.578-4.628-1.372a12.511,12.511,0,0,1-3.9-2.107,3.646,3.646,0,0,1-1.409-3.478,3.956,3.956,0,0,1,1.26-2.6,5.842,5.842,0,0,1,2.815-1.238,16.069,16.069,0,0,1,3.9-.164q2.142.126,4.335.395,2.215.272,4.274.708a15.216,15.216,0,0,1,3.664,1.184,6.012,6.012,0,0,1,2.465,1.978,4.211,4.211,0,0,1,.634,3.062l-8.117-1a1.682,1.682,0,0,0-.274-1.319,2.338,2.338,0,0,0-1.177-.695,18.218,18.218,0,0,0-2.628-.46,8.047,8.047,0,0,0-1.877-.047.92.92,0,0,0-.868.9l-.022.181q.024.554,1.274,1.029a33.273,33.273,0,0,0,3.183.987q2.242.62,4.57,1.479a13.205,13.205,0,0,1,3.918,2.111,3.594,3.594,0,0,1,1.4,3.362,4,4,0,0,1-1.319,2.707,5.692,5.692,0,0,1-2.877,1.184,18.338,18.338,0,0,1-3.933.068Q549.289,248.227,547.072,247.954Z"/>
      <path d="M587.179,173.968l-7.908-2.711,3.937-11.486-7.089-2.431,1.233-3.6,22.066,7.565-1.233,3.6-7.068-2.423Z"/>
      <path d="M743.458,301.37l-7.294-4.447.121-2.781-8.753-5.335-2.416,1.381-4.649-2.833,15.808-9.039,7.975,4.861Zm-7-11.446.28-6.366-5.551,3.153Z"/>
      <path d="M763.328,320.947l-5.876-5.687.735-6.328-2.521-2.439-3.517,3.633-6.007-5.814,11.09-11.458,13.618,13.182a4.748,4.748,0,0,1,1.575,3.712,5.531,5.531,0,0,1-1.662,3.781,5.165,5.165,0,0,1-3.212,1.614,5.607,5.607,0,0,1-3.475-.732Zm-1.054-13.322a1.969,1.969,0,0,0,1.234.593,1.646,1.646,0,0,0,1.21-2.823l-4.124-3.993-2.3,2.373Z"/>
      <path d="M758.036,52.866,748.76,38.709,762.1,29.97l9.275,14.158a7.063,7.063,0,0,1,1.22,3.857,7.634,7.634,0,0,1-.928,3.822,8.236,8.236,0,0,1-2.816,3.016,8.383,8.383,0,0,1-3.91,1.391,7.406,7.406,0,0,1-3.874-.676A7.183,7.183,0,0,1,758.036,52.866Zm.491-6.15a3.833,3.833,0,0,0,2.608,1.778,4.137,4.137,0,0,0,3.133-.664,4.058,4.058,0,0,0,1.84-2.594,3.826,3.826,0,0,0-.588-3.1L763.5,39.048l-6.993,4.582Z"/>
      <path d="M772.833,87.879l-2.96-8.013,1.821-2.106-3.551-9.616-2.752-.416-1.886-5.107,18,2.724,3.236,8.761Zm1.613-13.32,4.17-4.819-6.309-.972Z"/>
      <path d="M722.2,195.723q-.3-2.19-.412-4.336a17.9,17.9,0,0,1,.2-3.935,6.463,6.463,0,0,1,1.275-2.935,4.243,4.243,0,0,1,2.817-1.422l1.138,8.282a1.686,1.686,0,0,0-1.205.6,2.454,2.454,0,0,0-.371,1.316,11.025,11.025,0,0,0,.116,1.846l.115.835a8.645,8.645,0,0,0,.444,1.894.977.977,0,0,0,1.156.715q.655-.09.785-1.488.093-1.323.075-3.3-.023-2.343.141-4.826a12.523,12.523,0,0,1,1.041-4.3,3.647,3.647,0,0,1,3-2.252,3.953,3.953,0,0,1,2.835.553,5.827,5.827,0,0,1,1.917,2.4,16.023,16.023,0,0,1,1.156,3.727q.427,2.1.728,4.292.3,2.211.409,4.313a15.2,15.2,0,0,1-.207,3.845,6.02,6.02,0,0,1-1.281,2.89,4.219,4.219,0,0,1-2.8,1.4l-1.113-8.1a1.683,1.683,0,0,0,1.2-.6,2.331,2.331,0,0,0,.371-1.316,18.2,18.2,0,0,0-.227-2.659,8.051,8.051,0,0,0-.435-1.826.92.92,0,0,0-1.095-.608l-.181.025q-.529.164-.668,1.494a32.865,32.865,0,0,0-.14,3.331q-.026,2.325-.261,4.795a13.212,13.212,0,0,1-1.038,4.328,3.592,3.592,0,0,1-2.891,2.214,4.006,4.006,0,0,1-2.955-.583,5.68,5.68,0,0,1-1.881-2.477,18.43,18.43,0,0,1-1.072-3.785Q722.5,197.935,722.2,195.723Z"/>
      <path d="M722.542,222.61q.158-2.2.493-4.327a17.9,17.9,0,0,1,1-3.81,6.476,6.476,0,0,1,1.854-2.608,4.239,4.239,0,0,1,3.05-.809l-.6,8.339a1.679,1.679,0,0,0-1.3.34,2.447,2.447,0,0,0-.635,1.211,11.018,11.018,0,0,0-.268,1.83l-.061.841a8.675,8.675,0,0,0,.044,1.945.975.975,0,0,0,.983.938q.659.047,1.075-1.294.365-1.275.755-3.211.462-2.3,1.136-4.692a12.51,12.51,0,0,1,1.907-4,3.647,3.647,0,0,1,3.4-1.584,3.955,3.955,0,0,1,2.659,1.127,5.818,5.818,0,0,1,1.379,2.748,16.013,16.013,0,0,1,.362,3.886q-.016,2.145-.175,4.349-.159,2.228-.491,4.305a15.181,15.181,0,0,1-1,3.719,6.021,6.021,0,0,1-1.851,2.563,4.215,4.215,0,0,1-3.025.788l.584-8.157a1.683,1.683,0,0,0,1.3-.341,2.333,2.333,0,0,0,.635-1.21,18.193,18.193,0,0,0,.327-2.649,8.114,8.114,0,0,0-.048-1.876.921.921,0,0,0-.946-.822l-.182-.013q-.552.053-.963,1.324a33.092,33.092,0,0,0-.825,3.23q-.505,2.271-1.246,4.638a13.218,13.218,0,0,1-1.909,4.02,3.6,3.6,0,0,1-3.287,1.569,4,4,0,0,1-2.77-1.181,5.665,5.665,0,0,1-1.329-2.813,18.309,18.309,0,0,1-.267-3.924Q722.382,224.837,722.542,222.61Z"/>
      <path d="M783.328,527.877l2.633-7.935,8.139-.515-6.36-4.847,2.632-7.935,17.093-.881-2.6,7.848-9.544.482,7.493,5.7-2.3,6.919-9.58.59,7.529,5.593-1.65,4.973Z"/>
      <path d="M764.485,558.394l4.669-7.154,2.775.207,5.6-8.585-1.307-2.457,2.976-4.56,8.548,16.079-5.105,7.821Zm11.655-6.647,6.355.475-2.981-5.645Z"/>
      <path d="M744.013,577.673l7.052-6.667,14.291,1.223L758,564.449l3.526-3.333L772.481,572.7l-7.068,6.682-14.275-1.239,7.355,7.78-3.526,3.333Z"/>
      <path d="M618.471,492.933l8.074-4.694,8.089,2.492.977-1.991-2.508-4.313,7.228-4.2,8.014,13.786-7.228,4.2-2.885-4.963-4.52,9.267-6.715,3.9,4.447-9.12Z"/>
      <path d="M523.568,547.9l20.345-6.6,4.924,15.167-20.345,6.605-1.112-3.423,12.394-4.024-.795-2.448-11.094,3.6-.484-3.411,10.53-3.419-.739-2.275L524.8,551.693Z"/>
      <path d="M494.066,551.179l8.136-.827,4.365,4.64,3.49-.355-.512-5.031,8.318-.845,1.612,15.864-18.856,1.916a4.751,4.751,0,0,1-3.853-1.188,5.533,5.533,0,0,1-1.819-3.707,5.166,5.166,0,0,1,.835-3.5,5.613,5.613,0,0,1,2.8-2.185Zm10.866,7.78a1.97,1.97,0,0,0-1.248.562,1.645,1.645,0,0,0,1.378,2.745l5.711-.58-.334-3.287Z"/>
      <path d="M477.053,531.5l14.962,1.589-1.5,14.1-14.962-1.589a6.286,6.286,0,0,1-3.34-1.332,6.789,6.789,0,0,1-2.107-2.79,7.32,7.32,0,0,1-.489-3.636,7.446,7.446,0,0,1,1.244-3.472,6.567,6.567,0,0,1,2.646-2.285A6.38,6.38,0,0,1,477.053,531.5Zm3.955,3.8a3.4,3.4,0,0,0-2.691.793,3.679,3.679,0,0,0-1.307,2.529,3.6,3.6,0,0,0,.749,2.727,3.4,3.4,0,0,0,2.464,1.341l3.262.346.785-7.39Z"/>
      <path d="M459.963,527.178l7.138,2.07-3.949,13.614-7.137-2.07Z"/>
      <path d="M457.064,355.568a15.644,15.644,0,0,1,6.282,4.932,7.108,7.108,0,0,1-5.281,10.694,15.661,15.661,0,0,1-7.735-1.99,21.154,21.154,0,0,1-4.351-2.805,8.658,8.658,0,0,1-2.607-3.455,6.131,6.131,0,0,1-.112-4.165l6.682,3.3a3.143,3.143,0,0,0,.066,2.291,3.8,3.8,0,0,0,1.883,1.675,3.462,3.462,0,0,0,2.945.348,6.119,6.119,0,0,0,2.725-5.52,3.462,3.462,0,0,0-2.066-2.127,3.9,3.9,0,0,0-2.466-.5,3.232,3.232,0,0,0-1.867,1.359l-6.682-3.3a6.226,6.226,0,0,1,3.384-2.462,8.961,8.961,0,0,1,4.328-.03A21.152,21.152,0,0,1,457.064,355.568Z"/>
      <path d="M426.374,334.405l6.454,5.224.489,7.507,1.963.182,2.79-3.447,5.777,4.675-8.918,11.019-5.777-4.676,3.21-3.966-9.128-.824-5.368-4.344,8.983.81Z"/>
      <path d="M412.174,315.592l4.554,5.873-4.272,3.313,4.021,5.185,4.272-3.314,4.555,5.873-11.2,8.687-4.554-5.873,4.272-3.313-4.021-5.185-4.272,3.314-4.555-5.873Z"/>
      <path d="M297.723,389.893l7.986,17.256L292.844,413.1l-7.986-17.256,2.9-1.344,4.865,10.512,2.076-.961-4.354-9.409,2.959-.79,4.134,8.932,1.93-.893-4.866-10.512Z"/>
      <path d="M291.7,363.349l1.63,7.417-1.86,1.632,1.955,8.9,2.373.7,1.039,4.727-15.523-4.593-1.781-8.109Zm-3.043,11.533-4.259,3.734,5.437,1.626Z"/>
      <path d="M83.082,403.78l-.15,15.045-14.174-.141.149-15.045a6.288,6.288,0,0,1,1.007-3.453,6.777,6.777,0,0,1,2.575-2.364,7.33,7.33,0,0,1,3.572-.836,7.454,7.454,0,0,1,3.576.907,6.586,6.586,0,0,1,2.527,2.414A6.39,6.39,0,0,1,83.082,403.78Zm-3.4,4.3a3.4,3.4,0,0,0-1.047-2.6,3.676,3.676,0,0,0-2.643-1.059,3.608,3.608,0,0,0-2.642,1.006,3.407,3.407,0,0,0-1.1,2.582l-.033,3.28,7.432.075Z"/>
      <path d="M59.767,257.4l-4.1,17.364-13.8-3.254,3.979-16.871a3.128,3.128,0,0,1,1.583-2.123,3.6,3.6,0,0,1,2.687-.365,3.226,3.226,0,0,1,1.733,1.033,3.786,3.786,0,0,1,.908,1.795,4.244,4.244,0,0,1,1.785-1.659,3.409,3.409,0,0,1,2.374-.273,3.841,3.841,0,0,1,2.369,1.6A3.35,3.35,0,0,1,59.767,257.4Zm-9.755,3.692a1.3,1.3,0,0,0-.13-.947,1.115,1.115,0,0,0-.735-.589,1.2,1.2,0,0,0-.9.12.979.979,0,0,0-.536.685l-1.093,4.632,2.346.553Zm5.539.6a1.16,1.16,0,0,0-.18-1,1.407,1.407,0,0,0-.863-.578,1.268,1.268,0,0,0-1.048.211,1.464,1.464,0,0,0-.627.892l-1.171,4.967,2.68.632Z"/>
      <path d="M127.52,249.949l-2.918,6.835-13.037-5.566,2.918-6.835Z"/>
      <path d="M234.474,112.156l-4.016,6.253-9.082-5.833-3.6,5.605-2.846-1.827,11.207-17.447,2.845,1.827-3.589,5.589Z"/>
      <path d="M248.519,96.866a15.657,15.657,0,0,1-6.7,4.349,7.108,7.108,0,0,1-8.411-8.456,15.663,15.663,0,0,1,4.385-6.676,21.2,21.2,0,0,1,4.061-3.21,8.67,8.67,0,0,1,4.113-1.35,6.134,6.134,0,0,1,3.978,1.243l-5.284,5.255a3.14,3.14,0,0,0-2.189-.679,3.8,3.8,0,0,0-2.194,1.24A3.464,3.464,0,0,0,239,91.256a6.121,6.121,0,0,0,4.342,4.365,3.466,3.466,0,0,0,2.681-1.268,3.892,3.892,0,0,0,1.266-2.173,3.229,3.229,0,0,0-.682-2.207l5.284-5.255a6.23,6.23,0,0,1,1.235,4,8.937,8.937,0,0,1-1.372,4.105A21.176,21.176,0,0,1,248.519,96.866Z"/>
      <path d="M428.756,33.222,422.41,37.09,419.6,32.473l-5.6,3.415,2.814,4.617-6.346,3.868-7.378-12.1L409.43,28.4l2.814,4.617,5.6-3.415-2.814-4.616,6.346-3.868Z"/>
      <path d="M451.4,25.518l-16.953,5.556L430.029,17.6l16.472-5.4a3.127,3.127,0,0,1,2.637.244,3.6,3.6,0,0,1,1.712,2.1,3.232,3.232,0,0,1,.022,2.018,3.773,3.773,0,0,1-1.059,1.71,4.263,4.263,0,0,1,2.347.659,3.411,3.411,0,0,1,1.47,1.884,3.834,3.834,0,0,1-.13,2.855A3.348,3.348,0,0,1,451.4,25.518Zm-8.235-6.4a1.293,1.293,0,0,0,.739-.6,1.111,1.111,0,0,0,.12-.934,1.191,1.191,0,0,0-.572-.707.979.979,0,0,0-.864-.1l-4.522,1.482.75,2.29Zm2.376,5.039a1.16,1.16,0,0,0,.759-.675,1.405,1.405,0,0,0,.044-1.037,1.268,1.268,0,0,0-.726-.785,1.465,1.465,0,0,0-1.089-.07l-4.849,1.589.858,2.617Z"/>
      <path d="M659.805,156.048l-7.56.721-1.394-2.044-9.072.864-.984,2.271-4.818.459,6.437-14.853,8.265-.787Zm-11.08-4.416-3.192-4.679-2.271,5.2Z"/>
      <path d="M544.874,265.328q-1.95-.24-3.82-.632a15.919,15.919,0,0,1-3.338-1.063,5.746,5.746,0,0,1-2.231-1.763,3.771,3.771,0,0,1-.582-2.744l7.377.905a1.5,1.5,0,0,0,.244,1.173,2.175,2.175,0,0,0,1.046.618,9.738,9.738,0,0,0,1.613.32l.744.092a7.677,7.677,0,0,0,1.728.048.866.866,0,0,0,.877-.83q.072-.584-1.1-1.013-1.116-.381-2.817-.815-2.018-.513-4.114-1.219a11.12,11.12,0,0,1-3.463-1.874,3.24,3.24,0,0,1-1.253-3.091,3.516,3.516,0,0,1,1.12-2.311,5.193,5.193,0,0,1,2.5-1.1,14.29,14.29,0,0,1,3.466-.145q1.9.111,3.854.35,1.97.243,3.8.63a13.525,13.525,0,0,1,3.257,1.053,5.345,5.345,0,0,1,2.192,1.758,3.75,3.75,0,0,1,.563,2.722l-7.215-.886a1.5,1.5,0,0,0-.244-1.173,2.085,2.085,0,0,0-1.046-.618,16.254,16.254,0,0,0-2.337-.409,7.163,7.163,0,0,0-1.668-.042.819.819,0,0,0-.772.8l-.019.161q.021.492,1.132.914a29.289,29.289,0,0,0,2.83.878q1.994.551,4.062,1.315a11.759,11.759,0,0,1,3.483,1.876,3.2,3.2,0,0,1,1.245,2.989,3.56,3.56,0,0,1-1.173,2.406,5.045,5.045,0,0,1-2.557,1.053,16.381,16.381,0,0,1-3.5.061Q546.843,265.569,544.874,265.328Z"/>
      <path d="M581.067,190.459l-7.03-2.41,3.5-10.21-6.3-2.161,1.1-3.2,19.616,6.725-1.1,3.2-6.283-2.154Z"/>
      <path d="M733.039,315.613l-6.484-3.952.107-2.472-7.781-4.743-2.148,1.228-4.132-2.519,14.052-8.035,7.089,4.321Zm-6.225-10.174.248-5.659-4.934,2.8Z"/>
      <path d="M750.108,332.63l-5.224-5.056.653-5.625-2.24-2.169-3.127,3.23-5.34-5.169,9.859-10.185L756.8,319.374a4.232,4.232,0,0,1,1.4,3.3,4.92,4.92,0,0,1-1.478,3.361,4.594,4.594,0,0,1-2.855,1.435,4.982,4.982,0,0,1-3.09-.651Zm-.938-11.843a1.753,1.753,0,0,0,1.1.527,1.463,1.463,0,0,0,1.076-2.51l-3.666-3.549-2.042,2.11Z"/>
      <path d="M760.038,348.045l-8.245-12.586,11.857-7.768,8.245,12.586a6.287,6.287,0,0,1,1.085,3.429,6.785,6.785,0,0,1-.825,3.4,7.329,7.329,0,0,1-2.5,2.681,7.441,7.441,0,0,1-3.475,1.236,6.588,6.588,0,0,1-3.444-.6A6.38,6.38,0,0,1,760.038,348.045Zm.437-5.467a3.407,3.407,0,0,0,2.318,1.58,3.677,3.677,0,0,0,2.785-.59,3.6,3.6,0,0,0,1.636-2.307,3.4,3.4,0,0,0-.522-2.756l-1.8-2.744-6.216,4.073Z"/>
      <path d="M755.819,92.593l-2.631-7.124,1.619-1.871L751.65,75.05l-2.447-.371-1.676-4.54,16,2.422,2.876,7.788Zm1.434-11.841,3.707-4.284-5.608-.864Z"/>
      <path d="M704.826,198.064q-.267-1.947-.366-3.854a15.931,15.931,0,0,1,.173-3.5,5.75,5.75,0,0,1,1.134-2.608,3.763,3.763,0,0,1,2.5-1.264l1.012,7.362a1.5,1.5,0,0,0-1.071.536,2.174,2.174,0,0,0-.33,1.169,9.753,9.753,0,0,0,.1,1.642l.1.742a7.661,7.661,0,0,0,.395,1.683.868.868,0,0,0,1.028.636q.581-.081.7-1.323.082-1.176.067-2.932-.021-2.082.126-4.289a11.107,11.107,0,0,1,.925-3.827,3.24,3.24,0,0,1,2.668-2,3.517,3.517,0,0,1,2.52.491,5.189,5.189,0,0,1,1.7,2.137,14.257,14.257,0,0,1,1.027,3.313q.38,1.871.647,3.816.271,1.965.364,3.833a13.534,13.534,0,0,1-.184,3.419,5.346,5.346,0,0,1-1.139,2.568,3.746,3.746,0,0,1-2.487,1.242l-.99-7.2a1.5,1.5,0,0,0,1.071-.536,2.076,2.076,0,0,0,.33-1.17,16.289,16.289,0,0,0-.2-2.363,7.2,7.2,0,0,0-.387-1.623.818.818,0,0,0-.974-.541l-.16.022q-.471.147-.594,1.329a29.375,29.375,0,0,0-.125,2.96q-.023,2.069-.231,4.263a11.747,11.747,0,0,1-.923,3.847,3.2,3.2,0,0,1-2.571,1.968,3.553,3.553,0,0,1-2.626-.518,5.043,5.043,0,0,1-1.672-2.2,16.351,16.351,0,0,1-.953-3.364Q705.1,200.029,704.826,198.064Z"/>
      <path d="M705.062,221.316q.139-1.959.438-3.846a15.87,15.87,0,0,1,.892-3.388,5.742,5.742,0,0,1,1.648-2.318,3.767,3.767,0,0,1,2.711-.719l-.531,7.412a1.5,1.5,0,0,0-1.159.3,2.187,2.187,0,0,0-.564,1.076,9.833,9.833,0,0,0-.238,1.628l-.054.747a7.687,7.687,0,0,0,.039,1.729.867.867,0,0,0,.874.834q.585.042.955-1.15.326-1.134.672-2.855.41-2.042,1.009-4.171a11.112,11.112,0,0,1,1.7-3.553,3.241,3.241,0,0,1,3.024-1.408,3.521,3.521,0,0,1,2.365,1,5.185,5.185,0,0,1,1.226,2.443,14.3,14.3,0,0,1,.321,3.454q-.015,1.906-.156,3.866-.141,1.98-.436,3.827a13.47,13.47,0,0,1-.887,3.306,5.336,5.336,0,0,1-1.645,2.278,3.747,3.747,0,0,1-2.689.7l.519-7.252a1.5,1.5,0,0,0,1.159-.3,2.077,2.077,0,0,0,.564-1.076,16.063,16.063,0,0,0,.291-2.355,7.2,7.2,0,0,0-.043-1.668.819.819,0,0,0-.841-.73l-.162-.012q-.49.047-.856,1.178a29.483,29.483,0,0,0-.733,2.87q-.45,2.019-1.108,4.124a11.744,11.744,0,0,1-1.7,3.573,3.2,3.2,0,0,1-2.922,1.395,3.558,3.558,0,0,1-2.462-1.05,5.055,5.055,0,0,1-1.182-2.5,16.333,16.333,0,0,1-.237-3.489Q704.92,223.3,705.062,221.316Z"/>
      <path d="M766.982,521.28l2.34-7.054,7.235-.459-5.654-4.308,2.34-7.053,15.195-.784-2.315,6.977-8.484.428L784.3,514.1l-2.041,6.15-8.516.525,6.692,4.972-1.466,4.421Z"/>
      <path d="M750.549,547.563l4.15-6.359,2.467.183,4.981-7.631-1.162-2.185,2.645-4.052,7.6,14.292-4.538,6.953Zm10.361-5.909,5.648.422-2.649-5.018Z"/>
      <path d="M732.755,564.113l6.269-5.926,12.7,1.088-6.538-6.916,3.134-2.964,9.738,10.3-6.284,5.94-12.689-1.1,6.538,6.916-3.134,2.963Z"/>
      <path d="M610.926,476.981l7.178-4.172,7.19,2.214.868-1.769-2.228-3.834,6.425-3.735,7.124,12.255-6.425,3.735-2.565-4.412-4.018,8.238-5.97,3.471,3.954-8.108Z"/>
      <path d="M590.721,483.014l18.086-5.872,4.377,13.482L595.1,496.5l-.988-3.043,11.017-3.577-.706-2.177-9.862,3.2-.431-3.032,9.361-3.039-.657-2.023-11.017,3.577Z"/>
      <path d="M493.623,533.56l7.232-.735,3.88,4.124,3.1-.315-.454-4.472,7.393-.752,1.434,14.1-16.762,1.7a4.224,4.224,0,0,1-3.425-1.056,4.915,4.915,0,0,1-1.618-3.3,4.6,4.6,0,0,1,.743-3.108,4.983,4.983,0,0,1,2.489-1.943Zm9.658,6.916a1.753,1.753,0,0,0-1.109.5,1.463,1.463,0,0,0,1.225,2.441l5.077-.516-.3-2.922Z"/>
      <path d="M479.216,514.953l13.3,1.412-1.331,12.53-13.3-1.413a5.587,5.587,0,0,1-2.969-1.184,6.03,6.03,0,0,1-1.873-2.48,6.515,6.515,0,0,1-.435-3.232,6.627,6.627,0,0,1,1.106-3.086,5.843,5.843,0,0,1,2.352-2.031A5.668,5.668,0,0,1,479.216,514.953Zm3.515,3.378a3.027,3.027,0,0,0-2.392.7,3.269,3.269,0,0,0-1.162,2.248,3.206,3.206,0,0,0,.666,2.424,3.025,3.025,0,0,0,2.19,1.192l2.9.308.7-6.569Z"/>
      <path d="M464.914,511.252l6.345,1.84-3.509,12.1-6.345-1.84Z"/>
      <path d="M464.328,340.626a13.928,13.928,0,0,1,5.584,4.384,6.319,6.319,0,0,1-4.695,9.506,13.915,13.915,0,0,1-6.875-1.769,18.833,18.833,0,0,1-3.868-2.493,7.7,7.7,0,0,1-2.318-3.071,5.457,5.457,0,0,1-.1-3.7l5.94,2.933a2.788,2.788,0,0,0,.058,2.036,3.38,3.38,0,0,0,1.674,1.489,3.076,3.076,0,0,0,2.617.31,5.438,5.438,0,0,0,2.423-4.907,3.078,3.078,0,0,0-1.836-1.891,3.46,3.46,0,0,0-2.192-.439,2.867,2.867,0,0,0-1.66,1.207l-5.94-2.933a5.538,5.538,0,0,1,3.008-2.188A7.941,7.941,0,0,1,460,339.07,18.838,18.838,0,0,1,464.328,340.626Z"/>
      <path d="M437.874,322.269l5.737,4.643.434,6.673,1.745.162,2.48-3.064,5.135,4.156-7.926,9.794-5.135-4.156,2.853-3.526-8.114-.732-4.772-3.861,7.986.72Z"/>
      <path d="M425.944,306.156l4.049,5.22-3.8,2.945,3.574,4.609,3.8-2.945,4.048,5.22-9.956,7.722-4.049-5.221,3.8-2.945-3.574-4.608-3.8,2.945-4.048-5.22Z"/>
      <path d="M422.521,245.564l7.1,15.339L418.185,266.2l-7.1-15.339,2.581-1.195,4.324,9.344,1.846-.854-3.871-8.364,2.631-.7,3.674,7.939,1.715-.793-4.324-9.344Z"/>
      <path d="M313.775,319.75l1.448,6.592-1.653,1.451,1.738,7.911,2.109.624.923,4.2-13.8-4.082-1.584-7.208ZM311.069,330l-3.785,3.32,4.832,1.444Z"/>
      <path d="M133.554,291.015l-.133,13.373-12.6-.125.133-13.374a5.58,5.58,0,0,1,.894-3.069,6.03,6.03,0,0,1,2.289-2.1,6.52,6.52,0,0,1,3.176-.743,6.621,6.621,0,0,1,3.178.806,5.85,5.85,0,0,1,2.247,2.146A5.673,5.673,0,0,1,133.554,291.015Zm-3.026,3.822a3.031,3.031,0,0,0-.931-2.314,3.269,3.269,0,0,0-2.349-.941,3.208,3.208,0,0,0-2.349.895,3.028,3.028,0,0,0-.977,2.294l-.028,2.916,6.6.066Z"/>
      <path d="M75.8,262.015,72.16,277.45,59.9,274.557l3.537-15a2.784,2.784,0,0,1,1.406-1.888,3.2,3.2,0,0,1,2.389-.324,2.87,2.87,0,0,1,1.54.918,3.353,3.353,0,0,1,.807,1.6,3.775,3.775,0,0,1,1.587-1.475,3.027,3.027,0,0,1,2.11-.242,3.412,3.412,0,0,1,2.106,1.421A2.976,2.976,0,0,1,75.8,262.015ZM67.13,265.3a1.152,1.152,0,0,0-.116-.841.991.991,0,0,0-.654-.524,1.058,1.058,0,0,0-.8.107.872.872,0,0,0-.477.609l-.971,4.117,2.085.492Zm4.923.533a1.033,1.033,0,0,0-.16-.889,1.248,1.248,0,0,0-.767-.513,1.124,1.124,0,0,0-.932.187,1.3,1.3,0,0,0-.557.793L68.6,269.822l2.383.562Z"/>
      <path d="M142.71,256.814l-2.595,6.075-11.587-4.948,2.594-6.075Z"/>
      <path d="M151.447,241.937l-3.57,5.558-8.072-5.185-3.2,4.983-2.529-1.625,9.961-15.508,2.529,1.624-3.19,4.968Z"/>
      <path d="M260.284,108.594a13.92,13.92,0,0,1-5.955,3.866,6.319,6.319,0,0,1-7.476-7.517,13.925,13.925,0,0,1,3.9-5.934,18.846,18.846,0,0,1,3.61-2.854,7.7,7.7,0,0,1,3.656-1.2,5.451,5.451,0,0,1,3.535,1.1l-4.7,4.671a2.791,2.791,0,0,0-1.946-.6,3.377,3.377,0,0,0-1.95,1.1,3.074,3.074,0,0,0-1.139,2.377,5.443,5.443,0,0,0,3.858,3.88,3.08,3.08,0,0,0,2.384-1.127,3.457,3.457,0,0,0,1.125-1.931,2.876,2.876,0,0,0-.606-1.962l4.7-4.671a5.529,5.529,0,0,1,1.1,3.554,7.951,7.951,0,0,1-1.219,3.65A18.83,18.83,0,0,1,260.284,108.594Z"/>
      <path d="M436.571,47.986l-5.641,3.439-2.5-4.1-4.98,3.036,2.5,4.1L420.31,57.9,413.751,47.14l5.641-3.438,2.5,4.1,4.979-3.035-2.5-4.1,5.64-3.438Z"/>
      <path d="M455.809,41.624,440.74,46.563l-3.925-11.974,14.642-4.8a2.782,2.782,0,0,1,2.344.216,3.2,3.2,0,0,1,1.522,1.869,2.867,2.867,0,0,1,.019,1.794,3.352,3.352,0,0,1-.941,1.52,3.784,3.784,0,0,1,2.086.586,3.031,3.031,0,0,1,1.307,1.674,3.406,3.406,0,0,1-.116,2.538A2.978,2.978,0,0,1,455.809,41.624Zm-7.32-5.689a1.154,1.154,0,0,0,.657-.538.987.987,0,0,0,.107-.83,1.06,1.06,0,0,0-.509-.629.87.87,0,0,0-.768-.089l-4.02,1.317.667,2.036Zm2.112,4.479a1.033,1.033,0,0,0,.675-.6,1.248,1.248,0,0,0,.038-.922,1.123,1.123,0,0,0-.645-.7,1.3,1.3,0,0,0-.967-.062l-4.311,1.413.763,2.326Z"/>
      <path d="M660.1,172.779l-6.72.64-1.24-1.816-8.063.768-.875,2.018-4.282.408,5.721-13.2,7.347-.7Zm-9.849-3.925-2.838-4.16-2.018,4.622Z"/>
      <path d="M610.247,276.823q-1.732-.213-3.395-.562a14.123,14.123,0,0,1-2.967-.944,5.1,5.1,0,0,1-1.983-1.568,3.345,3.345,0,0,1-.517-2.439l6.557.805a1.327,1.327,0,0,0,.216,1.042,1.936,1.936,0,0,0,.93.55,8.856,8.856,0,0,0,1.434.285l.661.081a6.828,6.828,0,0,0,1.536.043.77.77,0,0,0,.78-.738q.064-.519-.977-.9-.993-.339-2.5-.725-1.794-.456-3.657-1.083A9.874,9.874,0,0,1,603.282,269a2.877,2.877,0,0,1-1.113-2.748,3.127,3.127,0,0,1,1-2.054,4.614,4.614,0,0,1,2.224-.978,12.638,12.638,0,0,1,3.081-.13q1.692.1,3.425.312,1.752.214,3.377.56a12.01,12.01,0,0,1,2.9.935,4.75,4.75,0,0,1,1.948,1.563,3.329,3.329,0,0,1,.5,2.419L614.2,268.1a1.327,1.327,0,0,0-.217-1.042,1.847,1.847,0,0,0-.929-.55,14.385,14.385,0,0,0-2.078-.363,6.365,6.365,0,0,0-1.482-.037.726.726,0,0,0-.686.713l-.018.143q.019.438,1.007.813a26.157,26.157,0,0,0,2.515.78q1.772.49,3.611,1.169a10.426,10.426,0,0,1,3.1,1.668,2.839,2.839,0,0,1,1.106,2.656,3.163,3.163,0,0,1-1.042,2.139,4.492,4.492,0,0,1-2.273.936,14.551,14.551,0,0,1-3.108.054Q612,277.039,610.247,276.823Z"/>
      <path d="M575.31,206.132l-6.249-2.143,3.112-9.075-5.6-1.921.975-2.843,17.435,5.977-.974,2.844-5.585-1.915Z"/>
      <path d="M600.221,219.976l-5.763-3.513.1-2.2-6.916-4.216-1.909,1.092-3.674-2.239,12.491-7.142,6.3,3.841Zm-5.533-9.044.22-5.03-4.385,2.491Z"/>
      <path d="M737.634,343.8l-4.643-4.494.58-5-1.991-1.928-2.78,2.871-4.746-4.594,8.763-9.054,10.761,10.416a3.753,3.753,0,0,1,1.244,2.933,4.368,4.368,0,0,1-1.313,2.988,4.084,4.084,0,0,1-2.538,1.276,4.429,4.429,0,0,1-2.746-.579ZM736.8,333.27a1.555,1.555,0,0,0,.975.468,1.3,1.3,0,0,0,.956-2.23l-3.259-3.155-1.815,1.875Z"/>
      <path d="M745.831,356.836,738.5,345.649l10.54-6.9,7.329,11.186a5.587,5.587,0,0,1,.964,3.049A6.035,6.035,0,0,1,756.6,356a6.517,6.517,0,0,1-2.226,2.384,6.614,6.614,0,0,1-3.089,1.1,5.846,5.846,0,0,1-3.061-.534A5.672,5.672,0,0,1,745.831,356.836Zm.389-4.859a3.026,3.026,0,0,0,2.06,1.4,3.267,3.267,0,0,0,2.476-.524,3.2,3.2,0,0,0,1.454-2.05,3.027,3.027,0,0,0-.464-2.45l-1.6-2.439-5.526,3.62Z"/>
      <path d="M690.429,349.974l-2.338-6.332,1.439-1.664-2.806-7.6-2.175-.329-1.49-4.035,14.226,2.152,2.557,6.923Zm1.275-10.525,3.3-3.808-4.985-.768Z"/>
      <path d="M726.347,398.887q-.238-1.73-.326-3.425a14.19,14.19,0,0,1,.154-3.11,5.108,5.108,0,0,1,1.008-2.319,3.351,3.351,0,0,1,2.225-1.124l.9,6.545a1.33,1.33,0,0,0-.952.476,1.937,1.937,0,0,0-.293,1.04,8.747,8.747,0,0,0,.091,1.459l.091.66a6.786,6.786,0,0,0,.351,1.5.772.772,0,0,0,.914.565q.516-.072.619-1.176.075-1.046.06-2.606-.018-1.851.112-3.813a9.885,9.885,0,0,1,.822-3.4,2.88,2.88,0,0,1,2.372-1.779,3.119,3.119,0,0,1,2.24.437,4.6,4.6,0,0,1,1.515,1.9,12.68,12.68,0,0,1,.914,2.945q.338,1.662.575,3.391.24,1.748.323,3.408a12,12,0,0,1-.164,3.039,4.752,4.752,0,0,1-1.012,2.283,3.333,3.333,0,0,1-2.211,1.1l-.88-6.4a1.326,1.326,0,0,0,.952-.476,1.847,1.847,0,0,0,.294-1.039,14.5,14.5,0,0,0-.18-2.1,6.378,6.378,0,0,0-.344-1.443.728.728,0,0,0-.865-.481l-.143.02q-.418.13-.528,1.181a26.086,26.086,0,0,0-.111,2.632q-.019,1.838-.206,3.789a10.423,10.423,0,0,1-.82,3.419,2.84,2.84,0,0,1-2.285,1.75,3.158,3.158,0,0,1-2.334-.461,4.491,4.491,0,0,1-1.487-1.957,14.541,14.541,0,0,1-.847-2.991Q726.587,400.635,726.347,398.887Z"/>
      <path d="M726.474,418.687q.125-1.741.389-3.419a14.175,14.175,0,0,1,.793-3.011,5.108,5.108,0,0,1,1.465-2.06,3.349,3.349,0,0,1,2.41-.64l-.472,6.59a1.329,1.329,0,0,0-1.03.269,1.938,1.938,0,0,0-.5.956,8.765,8.765,0,0,0-.211,1.447l-.048.664a6.84,6.84,0,0,0,.034,1.536.771.771,0,0,0,.777.742q.521.037.85-1.022.288-1.008.6-2.538.365-1.815.9-3.707a9.888,9.888,0,0,1,1.507-3.159,2.882,2.882,0,0,1,2.688-1.251,3.123,3.123,0,0,1,2.1.891,4.6,4.6,0,0,1,1.09,2.171,12.665,12.665,0,0,1,.285,3.07q-.014,1.7-.138,3.437-.126,1.76-.388,3.4a11.972,11.972,0,0,1-.788,2.939,4.754,4.754,0,0,1-1.462,2.025,3.329,3.329,0,0,1-2.391.623l.462-6.446a1.329,1.329,0,0,0,1.03-.269,1.848,1.848,0,0,0,.5-.956,14.391,14.391,0,0,0,.259-2.093,6.357,6.357,0,0,0-.039-1.483.726.726,0,0,0-.747-.649l-.144-.01q-.437.04-.761,1.046t-.652,2.552q-.4,1.794-.984,3.665a10.444,10.444,0,0,1-1.509,3.177,2.84,2.84,0,0,1-2.6,1.239,3.167,3.167,0,0,1-2.189-.933,4.486,4.486,0,0,1-1.05-2.222,14.581,14.581,0,0,1-.211-3.1Q726.348,420.447,726.474,418.687Z"/>
      <path d="M751.429,515.118l2.08-6.27,6.431-.408-5.026-3.829,2.081-6.27,13.506-.7-2.057,6.2-7.542.381,5.92,4.505-1.813,5.467-7.57.466,5.949,4.42-1.3,3.93Z"/>
      <path d="M737.254,537.379l3.689-5.653,2.194.164,4.426-6.784-1.032-1.942,2.351-3.6,6.755,12.705-4.034,6.18Zm9.21-5.252,5.021.375-2.355-4.46Z"/>
      <path d="M721.994,551.312l5.573-5.267,11.292.966-5.812-6.147,2.786-2.634,8.656,9.156-5.585,5.28-11.279-.979,5.811,6.148-2.786,2.634Z"/>
      <path d="M700.927,563.628l6.38-3.709,6.392,1.969.772-1.573-1.982-3.408,5.712-3.32,6.332,10.893-5.711,3.32-2.28-3.922-3.571,7.323-5.307,3.085,3.515-7.206Z"/>
      <path d="M586.5,466.839l16.076-5.219L606.47,473.6l-16.076,5.219-.878-2.7,9.792-3.179L598.68,471l-8.765,2.846-.383-2.7,8.32-2.7-.583-1.8-9.793,3.179Z"/>
      <path d="M564.594,469.028l6.429-.653,3.448,3.666,2.758-.28-.4-3.976,6.572-.668,1.274,12.535-14.9,1.515a3.76,3.76,0,0,1-3.045-.939,4.366,4.366,0,0,1-1.437-2.93,4.077,4.077,0,0,1,.66-2.763,4.428,4.428,0,0,1,2.212-1.726Zm8.585,6.148a1.558,1.558,0,0,0-.986.444,1.3,1.3,0,0,0,1.089,2.169l4.513-.459-.264-2.6Z"/>
      <path d="M481.1,501.1l11.821,1.255-1.182,11.138-11.822-1.256a4.965,4.965,0,0,1-2.64-1.053,5.36,5.36,0,0,1-1.664-2.2,5.8,5.8,0,0,1-.387-2.873,5.886,5.886,0,0,1,.983-2.743,5.2,5.2,0,0,1,2.091-1.805A5.045,5.045,0,0,1,481.1,501.1Zm3.124,3a2.69,2.69,0,0,0-2.126.627,2.9,2.9,0,0,0-1.033,2,2.851,2.851,0,0,0,.592,2.154,2.692,2.692,0,0,0,1.947,1.06l2.578.274.62-5.84Z"/>
      <path d="M452.1,448.724l5.64,1.635-3.119,10.757-5.64-1.635Z"/>
      <path d="M440.515,443.254a12.377,12.377,0,0,1,4.964,3.9,5.617,5.617,0,0,1-4.173,8.45,12.379,12.379,0,0,1-6.112-1.573,16.765,16.765,0,0,1-3.438-2.215,6.848,6.848,0,0,1-2.06-2.731,4.847,4.847,0,0,1-.088-3.291l5.279,2.607a2.487,2.487,0,0,0,.052,1.811,3.013,3.013,0,0,0,1.488,1.323,2.737,2.737,0,0,0,2.327.275,4.837,4.837,0,0,0,2.154-4.361,2.735,2.735,0,0,0-1.633-1.681,3.077,3.077,0,0,0-1.948-.391,2.554,2.554,0,0,0-1.476,1.073l-5.279-2.607a4.916,4.916,0,0,1,2.673-1.945,7.064,7.064,0,0,1,3.421-.024A16.758,16.758,0,0,1,440.515,443.254Z"/>
      <path d="M447.6,312.171l5.1,4.127.387,5.932,1.551.144,2.2-2.724,4.564,3.694-7.046,8.706-4.564-3.694,2.537-3.134-7.213-.651-4.241-3.432,7.1.64Z"/>
      <path d="M367.571,208.229l3.6,4.64-3.375,2.618,3.177,4.1,3.375-2.618,3.6,4.64-8.85,6.864-3.6-4.64,3.376-2.618-3.177-4.1-3.376,2.618-3.6-4.64Z"/>
      <path d="M352.18,155.624l6.31,13.635-10.164,4.7-6.31-13.635,2.294-1.062,3.844,8.306,1.641-.759-3.441-7.435,2.338-.623,3.266,7.056,1.525-.705-3.844-8.306Z"/>
      <path d="M327.663,317.9l1.288,5.86-1.47,1.289,1.546,7.033,1.874.554.821,3.735-12.264-3.628-1.408-6.408Zm-2.4,9.112-3.365,2.951,4.3,1.284Z"/>
      <path d="M147.51,291.578l-.118,11.888-11.2-.112.118-11.887a4.963,4.963,0,0,1,.795-2.728,5.357,5.357,0,0,1,2.034-1.868,5.8,5.8,0,0,1,2.823-.66,5.883,5.883,0,0,1,2.825.716,5.193,5.193,0,0,1,2,1.908A5.039,5.039,0,0,1,147.51,291.578Zm-2.69,3.4a2.693,2.693,0,0,0-.827-2.057,2.907,2.907,0,0,0-2.088-.836,2.846,2.846,0,0,0-2.088.795,2.688,2.688,0,0,0-.868,2.039l-.026,2.592,5.871.058Z"/>
      <path d="M89.214,265.963l-3.236,13.72-10.9-2.571,3.144-13.331a2.471,2.471,0,0,1,1.251-1.677,2.842,2.842,0,0,1,2.122-.289,2.555,2.555,0,0,1,1.37.816,2.988,2.988,0,0,1,.717,1.419,3.354,3.354,0,0,1,1.411-1.311,2.691,2.691,0,0,1,1.875-.216,3.029,3.029,0,0,1,1.872,1.264A2.648,2.648,0,0,1,89.214,265.963Zm-7.708,2.917a1.02,1.02,0,0,0-.1-.748.879.879,0,0,0-.58-.466.947.947,0,0,0-.713.1.775.775,0,0,0-.424.541l-.863,3.66,1.853.437Zm4.377.473a.916.916,0,0,0-.143-.79,1.107,1.107,0,0,0-.681-.457,1,1,0,0,0-.828.167,1.156,1.156,0,0,0-.5.7L82.81,272.9l2.118.5Z"/>
      <path d="M93.124,257.3l-2.306,5.4-10.3-4.4,2.306-5.4Z"/>
      <path d="M163,249.784l-3.173,4.941-7.176-4.609-2.845,4.429-2.248-1.444,8.854-13.785,2.249,1.444-2.836,4.415Z"/>
      <path d="M173.252,238.921a12.375,12.375,0,0,1-5.293,3.436,5.616,5.616,0,0,1-6.646-6.681,12.386,12.386,0,0,1,3.465-5.275,16.767,16.767,0,0,1,3.209-2.537,6.856,6.856,0,0,1,3.25-1.066,4.846,4.846,0,0,1,3.142.982l-4.174,4.152a2.481,2.481,0,0,0-1.73-.536,3.006,3.006,0,0,0-1.733.979,2.734,2.734,0,0,0-1.013,2.113,4.837,4.837,0,0,0,3.43,3.449,2.736,2.736,0,0,0,2.118-1,3.081,3.081,0,0,0,1-1.717,2.555,2.555,0,0,0-.539-1.744l4.175-4.152a4.919,4.919,0,0,1,.976,3.159,7.083,7.083,0,0,1-1.084,3.244A16.716,16.716,0,0,1,173.252,238.921Z"/>
      <path d="M443.031,60.409l-5.014,3.057-2.224-3.648-4.426,2.7,2.223,3.648-5.014,3.056-5.829-9.563,5.014-3.056,2.223,3.647,4.427-2.7L432.187,53.9l5.014-3.056Z"/>
      <path d="M459.425,55.144l-13.4,4.39-3.488-10.643,13.015-4.265a2.469,2.469,0,0,1,2.083.192,2.843,2.843,0,0,1,1.353,1.662,2.546,2.546,0,0,1,.017,1.593,2.983,2.983,0,0,1-.836,1.352,3.365,3.365,0,0,1,1.854.521,2.686,2.686,0,0,1,1.161,1.488,3.03,3.03,0,0,1-.1,2.256A2.651,2.651,0,0,1,459.425,55.144Zm-6.507-5.057a1.021,1.021,0,0,0,.585-.478.881.881,0,0,0,.1-.738.944.944,0,0,0-.453-.559.772.772,0,0,0-.683-.079L448.889,49.4l.593,1.809Zm1.878,3.981a.912.912,0,0,0,.6-.533,1.11,1.11,0,0,0,.035-.82,1,1,0,0,0-.574-.62,1.16,1.16,0,0,0-.86-.055L450.165,53.3l.678,2.068Z"/>
      <path d="M499.655,188.939l-5.973.57-1.1-1.615-7.167.683-.778,1.794-3.806.362L485.914,179l6.531-.622ZM490.9,185.45l-2.522-3.7-1.8,4.108Z"/>
      <path d="M608.478,290.64q-1.54-.189-3.017-.5a12.593,12.593,0,0,1-2.638-.839,4.547,4.547,0,0,1-1.763-1.394,2.974,2.974,0,0,1-.459-2.168l5.828.716a1.182,1.182,0,0,0,.193.926,1.717,1.717,0,0,0,.826.489,7.782,7.782,0,0,0,1.275.253l.587.072a6.121,6.121,0,0,0,1.366.039.686.686,0,0,0,.693-.657q.057-.461-.869-.8-.882-.3-2.226-.644-1.595-.4-3.251-.963a8.8,8.8,0,0,1-2.736-1.48,2.562,2.562,0,0,1-.99-2.443,2.785,2.785,0,0,1,.885-1.826,4.109,4.109,0,0,1,1.977-.87,11.288,11.288,0,0,1,2.739-.115q1.5.089,3.045.277t3,.5a10.643,10.643,0,0,1,2.574.832,4.223,4.223,0,0,1,1.732,1.389,2.959,2.959,0,0,1,.445,2.15l-5.7-.7a1.182,1.182,0,0,0-.193-.926,1.637,1.637,0,0,0-.826-.488,12.635,12.635,0,0,0-1.847-.324,5.707,5.707,0,0,0-1.318-.033.646.646,0,0,0-.609.635l-.016.127q.017.389.9.722a23.217,23.217,0,0,0,2.236.694q1.575.435,3.209,1.039a9.269,9.269,0,0,1,2.752,1.482,2.526,2.526,0,0,1,.984,2.361,2.814,2.814,0,0,1-.927,1.9,3.994,3.994,0,0,1-2.02.832,12.861,12.861,0,0,1-2.763.047Q610.035,290.831,608.478,290.64Z"/>
      <path d="M570.433,219.243l-5.555-1.905,2.766-8.067-4.98-1.707.867-2.527,15.5,5.313-.866,2.527-4.965-1.7Z"/>
      <path d="M591.921,231.3l-5.123-3.123.085-1.953-6.147-3.748-1.7.971-3.265-1.99,11.1-6.349,5.6,3.414ZM587,223.259l.2-4.471L583.3,221Z"/>
      <path d="M727.11,353.08l-4.128-4,.516-4.444-1.77-1.714-2.47,2.552-4.22-4.084,7.79-8.047,9.565,9.258a3.337,3.337,0,0,1,1.106,2.607,3.887,3.887,0,0,1-1.167,2.656A3.628,3.628,0,0,1,730.076,349a3.936,3.936,0,0,1-2.441-.515Zm-.741-9.357a1.382,1.382,0,0,0,.867.415,1.155,1.155,0,0,0,.85-1.982l-2.9-2.805-1.614,1.667Z"/>
      <path d="M733.891,364.145l-6.515-9.944,9.369-6.138,6.514,9.944a4.956,4.956,0,0,1,.857,2.709,5.365,5.365,0,0,1-.651,2.684,5.791,5.791,0,0,1-1.979,2.119,5.886,5.886,0,0,1-2.746.977,5.205,5.205,0,0,1-2.721-.475A5.04,5.04,0,0,1,733.891,364.145Zm.345-4.32a2.691,2.691,0,0,0,1.832,1.248,2.9,2.9,0,0,0,2.2-.466,2.851,2.851,0,0,0,1.293-1.822,2.69,2.69,0,0,0-.413-2.178l-1.421-2.168-4.911,3.218Z"/>
      <path d="M676.892,353.711l-2.079-5.628,1.279-1.479L673.6,339.85l-1.933-.293-1.325-3.587,12.646,1.914,2.273,6.153Zm1.133-9.356,2.929-3.384-4.431-.683Z"/>
      <path d="M712.528,400.731q-.212-1.537-.289-3.045a12.6,12.6,0,0,1,.136-2.765,4.548,4.548,0,0,1,.9-2.061,2.979,2.979,0,0,1,1.978-1l.8,5.817a1.18,1.18,0,0,0-.846.423,1.725,1.725,0,0,0-.261.924,7.79,7.79,0,0,0,.082,1.3l.08.587a6.037,6.037,0,0,0,.312,1.329.686.686,0,0,0,.812.5q.461-.065.551-1.045.066-.93.053-2.317-.016-1.645.1-3.389a8.791,8.791,0,0,1,.731-3.024,2.563,2.563,0,0,1,2.109-1.582,2.776,2.776,0,0,1,1.991.389,4.1,4.1,0,0,1,1.347,1.688,11.3,11.3,0,0,1,.812,2.618q.3,1.478.511,3.014.213,1.554.287,3.029a10.684,10.684,0,0,1-.145,2.7,4.241,4.241,0,0,1-.9,2.03,2.961,2.961,0,0,1-1.965.981l-.782-5.691a1.182,1.182,0,0,0,.846-.423,1.646,1.646,0,0,0,.26-.924,12.714,12.714,0,0,0-.159-1.868,5.684,5.684,0,0,0-.306-1.282.645.645,0,0,0-.769-.427l-.127.017q-.372.115-.469,1.05a23.139,23.139,0,0,0-.1,2.339q-.018,1.634-.183,3.368a9.264,9.264,0,0,1-.729,3.04,2.524,2.524,0,0,1-2.031,1.555,2.814,2.814,0,0,1-2.075-.409,4,4,0,0,1-1.321-1.741,12.877,12.877,0,0,1-.753-2.658Q712.742,402.284,712.528,400.731Z"/>
      <path d="M712.57,417.64q.111-1.548.346-3.039a12.627,12.627,0,0,1,.7-2.677,4.533,4.533,0,0,1,1.3-1.831,2.98,2.98,0,0,1,2.143-.569l-.42,5.857a1.183,1.183,0,0,0-.915.239,1.715,1.715,0,0,0-.446.851,7.668,7.668,0,0,0-.189,1.285l-.042.591a6.01,6.01,0,0,0,.031,1.366.685.685,0,0,0,.69.659q.463.033.755-.909.257-.9.531-2.256.324-1.612.8-3.3a8.793,8.793,0,0,1,1.34-2.807,2.563,2.563,0,0,1,2.39-1.113,2.782,2.782,0,0,1,1.868.792,4.093,4.093,0,0,1,.968,1.93,11.22,11.22,0,0,1,.254,2.729q-.012,1.507-.123,3.055-.111,1.565-.344,3.023a10.693,10.693,0,0,1-.7,2.613,4.228,4.228,0,0,1-1.3,1.8,2.959,2.959,0,0,1-2.125.553l.411-5.729a1.183,1.183,0,0,0,.915-.239,1.642,1.642,0,0,0,.446-.851,12.7,12.7,0,0,0,.229-1.86,5.648,5.648,0,0,0-.033-1.318.648.648,0,0,0-.665-.577l-.128-.009q-.387.036-.676.93a23.386,23.386,0,0,0-.579,2.269q-.356,1.594-.875,3.257a9.274,9.274,0,0,1-1.341,2.824,2.527,2.527,0,0,1-2.309,1.1,2.818,2.818,0,0,1-1.946-.829,4,4,0,0,1-.933-1.976,12.961,12.961,0,0,1-.188-2.757Q712.458,419.2,712.57,417.64Z"/>
      <path d="M568.428,387.674l1.849-5.573,5.717-.362-4.468-3.4,1.85-5.574,12-.619-1.829,5.513-6.7.338,5.262,4-1.612,4.86-6.729.414,5.288,3.929-1.159,3.493Z"/>
      <path d="M726.178,528.754l3.279-5.025,1.95.145,3.935-6.029-.918-1.727,2.09-3.2,6,11.293-3.585,5.494Zm8.186-4.669,4.464.333-2.094-3.964Z"/>
      <path d="M713.053,540.517l4.953-4.683,10.038.86-5.166-5.465,2.477-2.341,7.694,8.139-4.965,4.693-10.026-.87,5.166,5.464-2.477,2.342Z"/>
      <path d="M694.937,550.935l5.671-3.3,5.681,1.75.686-1.4-1.761-3.03,5.077-2.951,5.629,9.683-5.077,2.951-2.026-3.486-3.175,6.51-4.717,2.742L704.049,554Z"/>
      <path d="M583.057,453.259l14.29-4.64,3.458,10.653-14.289,4.64-.781-2.4,8.705-2.826-.559-1.72-7.791,2.53-.341-2.4,7.4-2.4-.519-1.6-8.7,2.826Z"/>
      <path d="M564.255,455.013l5.714-.581,3.065,3.259,2.452-.249-.359-3.534,5.842-.594,1.132,11.143L568.857,465.8a3.336,3.336,0,0,1-2.706-.835,3.884,3.884,0,0,1-1.278-2.6,3.628,3.628,0,0,1,.587-2.456,3.935,3.935,0,0,1,1.967-1.534Zm7.631,5.465a1.382,1.382,0,0,0-.876.394,1.155,1.155,0,0,0,.968,1.928l4.011-.408-.235-2.308Z"/>
      <path d="M465.756,439.509l10.507,1.116-1.052,9.9-10.506-1.116a4.409,4.409,0,0,1-2.346-.936,4.759,4.759,0,0,1-1.479-1.959,5.14,5.14,0,0,1-.344-2.553,5.224,5.224,0,0,1,.874-2.438,4.617,4.617,0,0,1,1.858-1.605A4.481,4.481,0,0,1,465.756,439.509Zm2.777,2.669a2.4,2.4,0,0,0-1.89.557,2.587,2.587,0,0,0-.917,1.776,2.532,2.532,0,0,0,.525,1.915,2.394,2.394,0,0,0,1.731.942l2.291.243.551-5.189Z"/>
      <path d="M455.835,436.792l5.012,1.454-2.772,9.56-5.013-1.454Z"/>
      <path d="M445.972,432.063a11,11,0,0,1,4.412,3.463,4.992,4.992,0,0,1-3.709,7.51,10.99,10.99,0,0,1-5.431-1.4,14.837,14.837,0,0,1-3.056-1.969,6.078,6.078,0,0,1-1.831-2.426,4.3,4.3,0,0,1-.078-2.925l4.692,2.317a2.21,2.21,0,0,0,.046,1.609,2.678,2.678,0,0,0,1.322,1.176,2.43,2.43,0,0,0,2.068.244,4.3,4.3,0,0,0,1.915-3.876,2.437,2.437,0,0,0-1.451-1.494,2.737,2.737,0,0,0-1.732-.347,2.267,2.267,0,0,0-1.312.954l-4.692-2.317a4.371,4.371,0,0,1,2.377-1.729,6.271,6.271,0,0,1,3.039-.021A14.863,14.863,0,0,1,445.972,432.063Z"/>
      <path d="M386.3,213.02l4.532,3.667.343,5.272,1.379.128,1.959-2.421,4.057,3.283-6.262,7.738L388.25,227.4l2.254-2.786-6.41-.578-3.769-3.05,6.308.568Z"/>
      <path d="M377.933,201.206l3.2,4.124-3,2.326,2.823,3.641,3-2.327,3.2,4.124-7.866,6.1-3.2-4.123,3-2.327-2.824-3.641-3,2.327-3.2-4.124Z"/>
      <path d="M363.855,151.11l5.608,12.118-9.033,4.18-5.608-12.118,2.039-.943,3.416,7.381,1.458-.674-3.058-6.608,2.078-.554,2.9,6.272,1.355-.627-3.416-7.382Z"/>
      <path d="M356.462,107.3l-1.428-5.139,1.242-1.216-1.713-6.164-1.69-.4-.91-3.276,11.06,2.625,1.561,5.618Zm1.692-8.2L361,96.313l-3.874-.931Z"/>
      <path d="M160,292.059l-.105,10.565-9.953-.1.1-10.565a4.418,4.418,0,0,1,.707-2.424,4.768,4.768,0,0,1,1.808-1.66,5.144,5.144,0,0,1,2.509-.587,5.219,5.219,0,0,1,2.511.637,4.618,4.618,0,0,1,1.775,1.695A4.488,4.488,0,0,1,160,292.059Zm-2.391,3.02a2.388,2.388,0,0,0-.735-1.828,2.583,2.583,0,0,0-1.856-.743,2.531,2.531,0,0,0-1.855.706,2.389,2.389,0,0,0-.772,1.813l-.023,2.3,5.219.051Z"/>
      <path d="M163.518,274.776l-2.876,12.194-9.688-2.285,2.794-11.847a2.2,2.2,0,0,1,1.111-1.492,2.531,2.531,0,0,1,1.887-.256,2.266,2.266,0,0,1,1.217.725,2.668,2.668,0,0,1,.638,1.261,2.983,2.983,0,0,1,1.253-1.165,2.392,2.392,0,0,1,1.667-.191,2.688,2.688,0,0,1,1.664,1.123A2.355,2.355,0,0,1,163.518,274.776Zm-6.85,2.593a.911.911,0,0,0-.092-.665.78.78,0,0,0-.516-.414.837.837,0,0,0-.633.085.686.686,0,0,0-.377.481l-.767,3.252,1.647.389Zm3.889.42a.814.814,0,0,0-.127-.7.987.987,0,0,0-.605-.406.9.9,0,0,0-.736.148,1.029,1.029,0,0,0-.44.627l-.823,3.488,1.882.444Z"/>
      <path d="M104.5,262.463l-2.049,4.8L93.3,263.354l2.049-4.8Z"/>
      <path d="M173.353,256.788l-2.82,4.391-6.378-4.1-2.528,3.937-2-1.284,7.869-12.251,2,1.283-2.52,3.924Z"/>
      <path d="M182.057,247.722a11,11,0,0,1-4.7,3.054,4.992,4.992,0,0,1-5.907-5.938,11,11,0,0,1,3.08-4.688,14.916,14.916,0,0,1,2.851-2.255,6.085,6.085,0,0,1,2.889-.947,4.309,4.309,0,0,1,2.793.872l-3.711,3.691a2.2,2.2,0,0,0-1.537-.477,2.671,2.671,0,0,0-1.541.87,2.433,2.433,0,0,0-.9,1.878,4.3,4.3,0,0,0,3.049,3.065,2.43,2.43,0,0,0,1.883-.889,2.738,2.738,0,0,0,.889-1.526,2.268,2.268,0,0,0-.479-1.55l3.71-3.69a4.368,4.368,0,0,1,.868,2.807,6.3,6.3,0,0,1-.963,2.883A14.873,14.873,0,0,1,182.057,247.722Z"/>
      <path d="M200.936,234.11l-4.456,2.716-1.976-3.242-3.934,2.4,1.976,3.242-4.456,2.717-5.181-8.5,4.456-2.716,1.976,3.242,3.934-2.4-1.976-3.242,4.456-2.716Z"/>
      <path d="M462.683,67.233l-11.9,3.9-3.1-9.459,11.567-3.791a2.2,2.2,0,0,1,1.852.171,2.527,2.527,0,0,1,1.2,1.477,2.264,2.264,0,0,1,.016,1.416,2.662,2.662,0,0,1-.744,1.2,2.988,2.988,0,0,1,1.648.462,2.4,2.4,0,0,1,1.032,1.323,2.7,2.7,0,0,1-.091,2.005A2.352,2.352,0,0,1,462.683,67.233ZM456.9,62.739a.911.911,0,0,0,.52-.425.781.781,0,0,0,.084-.656.841.841,0,0,0-.4-.5.691.691,0,0,0-.607-.07l-3.175,1.041.526,1.608Zm1.669,3.538a.811.811,0,0,0,.533-.474.988.988,0,0,0,.031-.728.892.892,0,0,0-.51-.551,1.025,1.025,0,0,0-.765-.049l-3.405,1.116.6,1.838Z"/>
      <path d="M499.8,201.488l-5.309.506-.979-1.435-6.37.607-.691,1.594-3.383.323,4.519-10.43,5.8-.553Zm-7.781-3.1L489.78,195.1l-1.595,3.652Z"/>
      <path d="M606.915,303q-1.37-.168-2.682-.444a11.124,11.124,0,0,1-2.344-.746,4.029,4.029,0,0,1-1.567-1.238,2.644,2.644,0,0,1-.408-1.927l5.18.636a1.049,1.049,0,0,0,.171.823,1.522,1.522,0,0,0,.735.434,6.857,6.857,0,0,0,1.132.225l.523.064a5.386,5.386,0,0,0,1.213.035.609.609,0,0,0,.616-.584q.051-.408-.772-.71-.784-.269-1.979-.573-1.416-.36-2.889-.856a7.791,7.791,0,0,1-2.431-1.316,2.274,2.274,0,0,1-.88-2.171,2.469,2.469,0,0,1,.787-1.622,3.631,3.631,0,0,1,1.756-.773,10.035,10.035,0,0,1,2.434-.1q1.338.079,2.706.247,1.385.169,2.668.442a9.5,9.5,0,0,1,2.288.739,3.759,3.759,0,0,1,1.539,1.235,2.63,2.63,0,0,1,.395,1.911l-5.067-.622a1.049,1.049,0,0,0-.171-.823,1.455,1.455,0,0,0-.734-.434,11.268,11.268,0,0,0-1.641-.288,5.094,5.094,0,0,0-1.172-.029.575.575,0,0,0-.542.564l-.013.113q.015.345.8.642a20.678,20.678,0,0,0,1.987.616q1.4.387,2.852.923a8.251,8.251,0,0,1,2.446,1.318,2.242,2.242,0,0,1,.874,2.1,2.5,2.5,0,0,1-.823,1.689,3.542,3.542,0,0,1-1.8.74,11.507,11.507,0,0,1-2.455.042Q608.3,303.174,606.915,303Z"/>
      <path d="M566.088,230.981l-4.937-1.693,2.458-7.169-4.425-1.517.77-2.247,13.774,4.722-.77,2.247-4.412-1.513Z"/>
      <path d="M584.519,241.442l-4.554-2.775.076-1.736-5.464-3.331-1.508.863-2.9-1.769,9.868-5.643,4.978,3.035Zm-4.372-7.144.174-3.974-3.464,1.968Z"/>
      <path d="M651.433,328.228l-3.668-3.551.458-3.95L646.65,319.2l-2.2,2.269-3.749-3.63,6.923-7.152,8.5,8.228a2.973,2.973,0,0,1,.983,2.317,3.45,3.45,0,0,1-1.038,2.36,3.227,3.227,0,0,1-2,1.009,3.5,3.5,0,0,1-2.17-.458Zm-.658-8.316a1.227,1.227,0,0,0,.77.369,1.027,1.027,0,0,0,.756-1.762l-2.575-2.492-1.434,1.481Z"/>
      <path d="M723.22,370.7l-5.79-8.838,8.326-5.455,5.79,8.838a4.411,4.411,0,0,1,.762,2.408,4.762,4.762,0,0,1-.579,2.385,5.147,5.147,0,0,1-1.759,1.883,5.231,5.231,0,0,1-2.44.868,4.617,4.617,0,0,1-2.418-.422A4.478,4.478,0,0,1,723.22,370.7Zm.307-3.839a2.392,2.392,0,0,0,1.628,1.109,2.582,2.582,0,0,0,1.955-.414,2.53,2.53,0,0,0,1.149-1.62,2.389,2.389,0,0,0-.367-1.935l-1.262-1.927-4.366,2.86Z"/>
      <path d="M664.789,357.08l-1.847-5,1.136-1.314-2.217-6-1.717-.259-1.178-3.189,11.239,1.7,2.02,5.469Zm1.007-8.315,2.6-3.008-3.938-.607Z"/>
      <path d="M700.164,402.4q-.187-1.366-.257-2.707a11.2,11.2,0,0,1,.122-2.456,4.027,4.027,0,0,1,.8-1.832,2.646,2.646,0,0,1,1.758-.888l.711,5.17a1.051,1.051,0,0,0-.752.376,1.53,1.53,0,0,0-.232.822,6.839,6.839,0,0,0,.073,1.152l.071.522a5.341,5.341,0,0,0,.278,1.182.608.608,0,0,0,.721.446q.408-.057.49-.929.058-.826.047-2.059-.015-1.463.088-3.012a7.8,7.8,0,0,1,.65-2.687,2.275,2.275,0,0,1,1.873-1.406,2.465,2.465,0,0,1,1.77.345,3.625,3.625,0,0,1,1.2,1.5,10.031,10.031,0,0,1,.722,2.326q.267,1.313.454,2.679.19,1.382.255,2.692a9.437,9.437,0,0,1-.129,2.4,3.753,3.753,0,0,1-.8,1.8,2.631,2.631,0,0,1-1.746.871l-.695-5.057a1.053,1.053,0,0,0,.752-.376,1.467,1.467,0,0,0,.232-.822,11.443,11.443,0,0,0-.143-1.659,5,5,0,0,0-.271-1.14.575.575,0,0,0-.684-.38l-.112.016q-.332.1-.418.933a20.526,20.526,0,0,0-.087,2.079q-.017,1.45-.163,2.993a8.26,8.26,0,0,1-.647,2.7,2.246,2.246,0,0,1-1.806,1.382,2.5,2.5,0,0,1-1.844-.364,3.55,3.55,0,0,1-1.174-1.547,11.456,11.456,0,0,1-.669-2.362Q700.353,403.78,700.164,402.4Z"/>
      <path d="M700.13,416.721q.1-1.376.307-2.7a11.179,11.179,0,0,1,.627-2.378,4.03,4.03,0,0,1,1.157-1.628,2.642,2.642,0,0,1,1.9-.5l-.373,5.2a1.046,1.046,0,0,0-.813.213,1.529,1.529,0,0,0-.4.755,6.922,6.922,0,0,0-.167,1.143l-.038.525a5.464,5.464,0,0,0,.027,1.214.609.609,0,0,0,.614.585q.411.03.671-.807.228-.8.472-2,.288-1.434.708-2.929a7.851,7.851,0,0,1,1.191-2.5,2.276,2.276,0,0,1,2.124-.988,2.465,2.465,0,0,1,1.66.7,3.632,3.632,0,0,1,.861,1.716,10.012,10.012,0,0,1,.226,2.425q-.01,1.339-.109,2.715t-.307,2.687a9.507,9.507,0,0,1-.622,2.322,3.755,3.755,0,0,1-1.156,1.6,2.634,2.634,0,0,1-1.888.492l.364-5.092a1.052,1.052,0,0,0,.814-.213,1.455,1.455,0,0,0,.4-.756,11.371,11.371,0,0,0,.2-1.653,5.017,5.017,0,0,0-.03-1.171.573.573,0,0,0-.59-.513l-.114-.008q-.343.032-.6.826t-.515,2.017q-.315,1.416-.778,2.895a8.238,8.238,0,0,1-1.191,2.509,2.242,2.242,0,0,1-2.052.979,2.5,2.5,0,0,1-1.73-.736,3.554,3.554,0,0,1-.829-1.756,11.49,11.49,0,0,1-.167-2.45Q700.031,418.112,700.13,416.721Z"/>
      <path d="M556.791,382.991l1.643-4.954,5.081-.321-3.971-3.026,1.644-4.953,10.67-.55-1.626,4.9-5.957.3,4.677,3.559-1.433,4.319-5.98.368,4.7,3.492-1.03,3.1Z"/>
      <path d="M716.253,521.058l2.914-4.465,1.733.129,3.5-5.359-.815-1.534,1.857-2.846,5.336,10.037-3.187,4.882Zm7.276-4.149,3.966.3-1.86-3.524Z"/>
      <path d="M705.033,530.877l4.4-4.162,8.921.764-4.591-4.857,2.2-2.081,6.838,7.234-4.412,4.171-8.911-.773,4.591,4.856-2.2,2.081Z"/>
      <path d="M592.288,437.863l5.04-2.931,5.049,1.556.61-1.243-1.565-2.692,4.512-2.623,5,8.605-4.512,2.623-1.8-3.1-2.822,5.785-4.192,2.437,2.777-5.693Z"/>
      <path d="M491.452,439.739l12.7-4.124,3.074,9.468-12.7,4.123-.694-2.137,7.736-2.512-.5-1.528-6.925,2.248-.3-2.129,6.573-2.134-.461-1.42-7.737,2.511Z"/>
      <path d="M475.425,441.1l5.078-.516,2.725,2.9,2.178-.221-.319-3.141,5.192-.528,1.007,9.9-11.771,1.2a2.972,2.972,0,0,1-2.4-.742,3.457,3.457,0,0,1-1.136-2.315,3.226,3.226,0,0,1,.522-2.182,3.492,3.492,0,0,1,1.748-1.364Zm6.782,4.856a1.236,1.236,0,0,0-.779.351,1.027,1.027,0,0,0,.86,1.714l3.565-.363-.208-2.051Z"/>
      <path d="M467.317,427.5l9.339.992-.935,8.8-9.339-.992a3.92,3.92,0,0,1-2.085-.831,4.232,4.232,0,0,1-1.315-1.742,4.577,4.577,0,0,1-.306-2.269,4.664,4.664,0,0,1,.777-2.168,4.108,4.108,0,0,1,1.652-1.426A3.979,3.979,0,0,1,467.317,427.5Zm2.468,2.372a2.13,2.13,0,0,0-1.68.5,2.3,2.3,0,0,0-.816,1.579,2.255,2.255,0,0,0,.468,1.7,2.129,2.129,0,0,0,1.538.837l2.036.216.49-4.613Z"/>
      <path d="M459.422,425.226l4.455,1.293-2.464,8.5-4.455-1.292Z"/>
      <path d="M451.248,421.214a9.782,9.782,0,0,1,3.922,3.078,4.438,4.438,0,0,1-3.3,6.676,9.782,9.782,0,0,1-4.828-1.243,13.166,13.166,0,0,1-2.716-1.75,5.406,5.406,0,0,1-1.628-2.157,3.83,3.83,0,0,1-.069-2.6l4.171,2.06a1.959,1.959,0,0,0,.041,1.43,2.368,2.368,0,0,0,1.175,1.045,2.158,2.158,0,0,0,1.838.217,3.818,3.818,0,0,0,1.7-3.445,2.163,2.163,0,0,0-1.29-1.328,2.439,2.439,0,0,0-1.539-.309,2.017,2.017,0,0,0-1.166.848l-4.171-2.059a3.89,3.89,0,0,1,2.112-1.537,5.588,5.588,0,0,1,2.7-.019A13.218,13.218,0,0,1,451.248,421.214Z"/>
      <path d="M394.624,204.188l4.028,3.26.305,4.686,1.225.114,1.742-2.152,3.606,2.918-5.566,6.878-3.606-2.918,2-2.476-5.7-.514-3.35-2.712,5.607.506Z"/>
      <path d="M380.016,158.251l2.843,3.665-2.667,2.068,2.51,3.237,2.667-2.069,2.843,3.666-6.992,5.422-2.843-3.665,2.667-2.068-2.51-3.237-2.666,2.069-2.843-3.666Z"/>
      <path d="M375.128,146.663l4.985,10.771-8.03,3.716L367.1,150.379l1.813-.839,3.036,6.562,1.3-.6-2.719-5.873,1.848-.493,2.58,5.575,1.2-.558-3.036-6.561Z"/>
      <path d="M344.567,109.675l-1.27-4.567,1.1-1.08-1.522-5.481-1.5-.356-.809-2.912,9.831,2.334,1.387,4.993Zm1.5-7.292L348.6,99.91l-3.445-.827Z"/>
      <path d="M172.091,292.478,172,301.869l-8.848-.088.093-9.391a3.927,3.927,0,0,1,.628-2.155,4.248,4.248,0,0,1,1.608-1.476,4.561,4.561,0,0,1,2.23-.521,4.651,4.651,0,0,1,2.232.565,4.1,4.1,0,0,1,1.577,1.508A3.98,3.98,0,0,1,172.091,292.478Zm-2.125,2.684a2.13,2.13,0,0,0-.654-1.625,2.3,2.3,0,0,0-1.649-.661,2.257,2.257,0,0,0-1.65.628,2.128,2.128,0,0,0-.686,1.612l-.02,2.047,4.639.046Z"/>
      <path d="M175.161,278.106l-2.556,10.839-8.612-2.031,2.484-10.531a1.952,1.952,0,0,1,.988-1.326,2.243,2.243,0,0,1,1.677-.227,2.012,2.012,0,0,1,1.081.644,2.353,2.353,0,0,1,.567,1.121,2.659,2.659,0,0,1,1.115-1.036,2.126,2.126,0,0,1,1.481-.17,2.394,2.394,0,0,1,1.479,1A2.093,2.093,0,0,1,175.161,278.106Zm-6.089,2.3a.807.807,0,0,0-.081-.59.693.693,0,0,0-.459-.368.748.748,0,0,0-.563.075.613.613,0,0,0-.335.427l-.681,2.892,1.463.345Zm3.457.374a.721.721,0,0,0-.112-.624.876.876,0,0,0-.538-.36.789.789,0,0,0-.655.131.915.915,0,0,0-.391.557l-.731,3.1,1.673.395Z"/>
      <path d="M177.83,272.742l-1.822,4.266-8.137-3.474,1.821-4.266Z"/>
      <path d="M121.1,258.234l-2.507,3.9-5.669-3.641-2.247,3.5-1.776-1.141,7-10.89,1.776,1.14-2.241,3.489Z"/>
      <path d="M190.6,256.238a9.779,9.779,0,0,1-4.181,2.715,4.437,4.437,0,0,1-5.25-5.279,9.772,9.772,0,0,1,2.737-4.167,13.191,13.191,0,0,1,2.535-2,5.413,5.413,0,0,1,2.567-.842,3.833,3.833,0,0,1,2.483.775l-3.3,3.281a1.959,1.959,0,0,0-1.367-.424,2.368,2.368,0,0,0-1.369.774,2.16,2.16,0,0,0-.8,1.669,3.815,3.815,0,0,0,2.71,2.724,2.157,2.157,0,0,0,1.673-.79,2.432,2.432,0,0,0,.79-1.357,2.014,2.014,0,0,0-.425-1.377l3.3-3.281a3.887,3.887,0,0,1,.771,2.5,5.586,5.586,0,0,1-.856,2.563A13.273,13.273,0,0,1,190.6,256.238Z"/>
      <path d="M206.63,244.816l-3.961,2.414-1.756-2.882-3.5,2.132,1.756,2.882-3.961,2.414-4.605-7.555,3.961-2.414,1.757,2.881,3.5-2.131-1.757-2.882,3.961-2.414Z"/>
      <path d="M246.683,172.992,236.1,176.46l-2.755-8.408,10.281-3.37a1.955,1.955,0,0,1,1.646.153,2.249,2.249,0,0,1,1.069,1.312,2.016,2.016,0,0,1,.014,1.259,2.362,2.362,0,0,1-.661,1.068,2.664,2.664,0,0,1,1.465.411,2.13,2.13,0,0,1,.917,1.176,2.394,2.394,0,0,1-.081,1.782A2.092,2.092,0,0,1,246.683,172.992ZM241.543,169a.814.814,0,0,0,.462-.378.7.7,0,0,0,.074-.583.74.74,0,0,0-.357-.441.61.61,0,0,0-.539-.063l-2.823.925.468,1.429Zm1.483,3.145a.724.724,0,0,0,.474-.421.878.878,0,0,0,.027-.648.791.791,0,0,0-.453-.49.917.917,0,0,0-.679-.043l-3.027.992.535,1.634Z"/>
      <path d="M500.044,213.631l-4.719.45-.87-1.276-5.663.54-.614,1.417-3.007.286,4.018-9.271,5.159-.491Zm-6.916-2.757-1.992-2.921-1.418,3.246Z"/>
      <path d="M605.42,314.984q-1.218-.148-2.384-.394a9.962,9.962,0,0,1-2.084-.664,3.593,3.593,0,0,1-1.393-1.1,2.354,2.354,0,0,1-.363-1.713l4.605.565a.932.932,0,0,0,.152.732,1.357,1.357,0,0,0,.653.386,6.091,6.091,0,0,0,1.007.2l.464.057a4.812,4.812,0,0,0,1.079.03.54.54,0,0,0,.547-.518q.045-.364-.686-.632-.7-.238-1.759-.509-1.26-.319-2.568-.761a6.945,6.945,0,0,1-2.161-1.169,2.022,2.022,0,0,1-.782-1.93,2.2,2.2,0,0,1,.7-1.443,3.243,3.243,0,0,1,1.561-.687,8.961,8.961,0,0,1,2.164-.091q1.188.07,2.4.219t2.372.393a8.44,8.44,0,0,1,2.033.657,3.344,3.344,0,0,1,1.368,1.1,2.339,2.339,0,0,1,.352,1.7l-4.5-.553a.936.936,0,0,0-.152-.732,1.3,1.3,0,0,0-.653-.386,10.1,10.1,0,0,0-1.459-.255,4.449,4.449,0,0,0-1.041-.026.511.511,0,0,0-.482.5l-.012.1q.014.308.707.571a18.327,18.327,0,0,0,1.766.548q1.245.343,2.536.821a7.319,7.319,0,0,1,2.174,1.171,1.994,1.994,0,0,1,.777,1.865,2.227,2.227,0,0,1-.732,1.5,3.154,3.154,0,0,1-1.6.658,10.221,10.221,0,0,1-2.182.037Q606.649,315.135,605.42,314.984Z"/>
      <path d="M618.665,318.406l-4.389-1.5,2.185-6.373-3.933-1.349.684-2,12.244,4.2-.685,2-3.922-1.345Z"/>
      <path d="M634.181,327.364l-4.048-2.467.067-1.543-4.856-2.961L624,321.16l-2.58-1.573,8.772-5.015,4.425,2.7Zm-3.886-6.351.155-3.532-3.08,1.749Z"/>
      <path d="M642.4,336.353l-3.261-3.156.408-3.511-1.4-1.354-1.952,2.016-3.333-3.226,6.154-6.357,7.556,7.314a2.635,2.635,0,0,1,.874,2.059,3.068,3.068,0,0,1-.922,2.1,2.861,2.861,0,0,1-1.782.9,3.114,3.114,0,0,1-1.929-.406Zm-.586-7.392a1.09,1.09,0,0,0,.685.328.913.913,0,0,0,.672-1.566l-2.289-2.215-1.275,1.317Z"/>
      <path d="M646.635,343.917l-5.147-7.856,7.4-4.849,5.147,7.856a3.926,3.926,0,0,1,.677,2.141,4.239,4.239,0,0,1-.515,2.12A4.572,4.572,0,0,1,652.635,345a4.646,4.646,0,0,1-2.169.771,4.1,4.1,0,0,1-2.15-.375A3.978,3.978,0,0,1,646.635,343.917Zm.273-3.413a2.126,2.126,0,0,0,1.447.987,2.3,2.3,0,0,0,1.738-.369,2.251,2.251,0,0,0,1.021-1.439,2.126,2.126,0,0,0-.326-1.721l-1.122-1.713-3.88,2.543Z"/>
      <path d="M688.558,398.733l-1.643-4.446,1.011-1.168-1.971-5.336-1.527-.231-1.046-2.834,9.99,1.512,1.8,4.861Zm.895-7.391,2.313-2.673-3.5-.54Z"/>
      <path d="M688.191,404.034q-.168-1.215-.229-2.406a9.953,9.953,0,0,1,.108-2.184,3.59,3.59,0,0,1,.708-1.628,2.35,2.35,0,0,1,1.563-.789l.631,4.6a.931.931,0,0,0-.668.334,1.354,1.354,0,0,0-.206.73,6.091,6.091,0,0,0,.064,1.025l.064.463a4.816,4.816,0,0,0,.246,1.051.542.542,0,0,0,.642.4q.363-.05.435-.825.053-.735.042-1.83-.014-1.3.078-2.678a6.957,6.957,0,0,1,.578-2.389,2.022,2.022,0,0,1,1.665-1.249,2.193,2.193,0,0,1,1.574.307,3.229,3.229,0,0,1,1.063,1.333,8.929,8.929,0,0,1,.642,2.068q.237,1.167.4,2.382t.227,2.393a8.444,8.444,0,0,1-.115,2.134,3.35,3.35,0,0,1-.711,1.6,2.342,2.342,0,0,1-1.552.775l-.618-4.5a.931.931,0,0,0,.668-.334,1.3,1.3,0,0,0,.206-.73,10.05,10.05,0,0,0-.126-1.476,4.515,4.515,0,0,0-.242-1.013.51.51,0,0,0-.607-.337l-.1.014c-.2.061-.319.337-.37.829a18.1,18.1,0,0,0-.078,1.848q-.014,1.29-.145,2.661a7.317,7.317,0,0,1-.575,2.4,2,2,0,0,1-1.605,1.229,2.219,2.219,0,0,1-1.639-.324,3.143,3.143,0,0,1-1.044-1.374,10.2,10.2,0,0,1-.6-2.1Q688.358,405.261,688.191,404.034Z"/>
      <path d="M688.076,415.849q.087-1.223.273-2.4a9.971,9.971,0,0,1,.557-2.114,3.6,3.6,0,0,1,1.029-1.447,2.353,2.353,0,0,1,1.692-.449l-.331,4.627a.933.933,0,0,0-.723.189,1.347,1.347,0,0,0-.352.672,5.986,5.986,0,0,0-.149,1.015l-.034.467a4.883,4.883,0,0,0,.024,1.079.541.541,0,0,0,.546.52q.366.027.6-.717.2-.708.419-1.782.256-1.275.63-2.6a6.982,6.982,0,0,1,1.059-2.218,2.023,2.023,0,0,1,1.888-.878,2.193,2.193,0,0,1,1.476.625,3.24,3.24,0,0,1,.765,1.525,8.89,8.89,0,0,1,.2,2.156q-.009,1.191-.1,2.413t-.272,2.389a8.455,8.455,0,0,1-.553,2.064,3.345,3.345,0,0,1-1.027,1.421,2.341,2.341,0,0,1-1.679.438l.324-4.526a.935.935,0,0,0,.723-.189,1.3,1.3,0,0,0,.353-.672,10.152,10.152,0,0,0,.181-1.47,4.476,4.476,0,0,0-.027-1.041.511.511,0,0,0-.525-.456l-.1-.007q-.306.029-.534.735t-.458,1.792q-.28,1.26-.691,2.574a7.334,7.334,0,0,1-1.059,2.23,2,2,0,0,1-1.824.871,2.222,2.222,0,0,1-1.537-.655,3.16,3.16,0,0,1-.738-1.561,10.265,10.265,0,0,1-.148-2.178Q687.988,417.085,688.076,415.849Z"/>
      <path d="M545.493,378.537l1.461-4.4,4.516-.286-3.529-2.689,1.461-4.4,9.484-.489-1.445,4.355-5.3.267,4.158,3.164-1.274,3.839-5.316.327,4.178,3.1-.916,2.759Z"/>
      <path d="M536.578,391.515l2.591-3.969,1.54.114,3.109-4.763-.725-1.364,1.651-2.53,4.743,8.922-2.832,4.34Zm6.468-3.688,3.526.263-1.654-3.132Z"/>
      <path d="M528.436,467.687l3.913-3.7,7.93.678-4.082-4.317,1.957-1.849,6.078,6.429-3.922,3.708-7.92-.687,4.081,4.317-1.957,1.849Z"/>
      <path d="M515.485,474.745l4.481-2.605,4.488,1.383.542-1.105-1.391-2.393,4.01-2.331,4.447,7.649-4.011,2.331-1.6-2.753-2.508,5.142-3.727,2.166,2.468-5.06Z"/>
      <path d="M488.367,428l11.288-3.665,2.733,8.415L491.1,436.418l-.617-1.9,6.877-2.233-.441-1.358-6.156,2-.269-1.892,5.843-1.9-.41-1.263-6.876,2.233Z"/>
      <path d="M475.013,428.967l4.514-.459,2.422,2.575,1.936-.2-.283-2.792,4.615-.469.894,8.8-10.462,1.063a2.635,2.635,0,0,1-2.138-.659,3.07,3.07,0,0,1-1.01-2.057,2.868,2.868,0,0,1,.464-1.94,3.1,3.1,0,0,1,1.554-1.213Zm6.029,4.317a1.1,1.1,0,0,0-.693.312.913.913,0,0,0,.765,1.523l3.169-.322-.186-1.823Z"/>
      <path d="M489.907,356.34l8.3.882-.831,7.824-8.3-.882a3.49,3.49,0,0,1-1.855-.74,3.772,3.772,0,0,1-1.169-1.548,4.08,4.08,0,0,1-.272-2.019,4.136,4.136,0,0,1,.691-1.927,3.656,3.656,0,0,1,1.469-1.268A3.54,3.54,0,0,1,489.907,356.34Zm2.195,2.109a1.89,1.89,0,0,0-1.494.44,2.045,2.045,0,0,0-.726,1.4,2.007,2.007,0,0,0,.416,1.514,1.894,1.894,0,0,0,1.368.744l1.811.192.435-4.1Z"/>
      <path d="M422.565,209.577l3.962,1.149-2.191,7.557-3.962-1.149Z"/>
      <path d="M415.872,206.18a8.7,8.7,0,0,1,3.487,2.738,3.946,3.946,0,0,1-2.932,5.936,8.7,8.7,0,0,1-4.293-1.105,11.761,11.761,0,0,1-2.416-1.557,4.809,4.809,0,0,1-1.447-1.918,3.4,3.4,0,0,1-.061-2.312l3.708,1.832a1.741,1.741,0,0,0,.037,1.272A2.113,2.113,0,0,0,413,212a1.917,1.917,0,0,0,1.634.193,3.393,3.393,0,0,0,1.513-3.063A1.919,1.919,0,0,0,415,207.944a2.162,2.162,0,0,0-1.369-.275,1.794,1.794,0,0,0-1.037.754l-3.709-1.831a3.454,3.454,0,0,1,1.879-1.367,4.969,4.969,0,0,1,2.4-.017A11.766,11.766,0,0,1,415.872,206.18Z"/>
      <path d="M394.135,160.089l3.582,2.9.272,4.167,1.089.1,1.549-1.914,3.206,2.595-4.949,6.116-3.207-2.595,1.782-2.2-5.067-.457-2.979-2.411,4.986.45Z"/>
      <path d="M388.932,151.977l2.528,3.259-2.371,1.84,2.232,2.877,2.371-1.839,2.528,3.26L390,166.2l-2.528-3.26,2.371-1.839-2.231-2.878-2.372,1.839-2.528-3.259Z"/>
      <path d="M331.231,100.438l-4.95-9.323,6.948-3.689,4.95,9.321-1.568.833L333.6,91.9l-1.122.6,2.7,5.082-1.615.528-2.563-4.825-1.042.554,3.016,5.677Z"/>
      <path d="M333.888,111.917l-1.129-4.061.982-.961-1.354-4.873-1.336-.318-.719-2.588,8.743,2.074,1.233,4.44Zm1.337-6.484,2.247-2.2-3.063-.736Z"/>
      <path d="M182.976,292.756l-.083,8.351-7.867-.078.083-8.351a3.486,3.486,0,0,1,.558-1.916,3.767,3.767,0,0,1,1.43-1.313,4.075,4.075,0,0,1,1.983-.463,4.133,4.133,0,0,1,1.984.5,3.642,3.642,0,0,1,1.4,1.34A3.542,3.542,0,0,1,182.976,292.756Zm-1.889,2.387a1.894,1.894,0,0,0-.582-1.445,2.036,2.036,0,0,0-1.466-.587,2,2,0,0,0-1.467.558,1.892,1.892,0,0,0-.61,1.433l-.018,1.821,4.125.041Z"/>
      <path d="M185.665,281.01l-2.273,9.638-7.658-1.806,2.209-9.365a1.734,1.734,0,0,1,.878-1.178,2,2,0,0,1,1.491-.2,1.787,1.787,0,0,1,.962.573,2.091,2.091,0,0,1,.5,1,2.36,2.36,0,0,1,.991-.921,1.89,1.89,0,0,1,1.318-.151,2.129,2.129,0,0,1,1.315.887A1.862,1.862,0,0,1,185.665,281.01Zm-5.414,2.049a.721.721,0,0,0-.073-.525.617.617,0,0,0-.408-.327.666.666,0,0,0-.5.066.543.543,0,0,0-.3.38l-.606,2.571,1.3.307Zm3.074.332a.643.643,0,0,0-.1-.554.779.779,0,0,0-.479-.321.706.706,0,0,0-.582.117.819.819,0,0,0-.348.5l-.65,2.757,1.488.351Z"/>
      <path d="M187.777,277.179l-1.62,3.794-7.236-3.089,1.62-3.794Z"/>
      <path d="M192.489,269.539l-2.23,3.471-5.04-3.237-2,3.111-1.579-1.014,6.22-9.685,1.579,1.015-1.992,3.1Z"/>
      <path d="M198.353,263.838a8.685,8.685,0,0,1-3.718,2.414,3.945,3.945,0,0,1-4.669-4.694,8.694,8.694,0,0,1,2.434-3.7,11.783,11.783,0,0,1,2.254-1.782,4.814,4.814,0,0,1,2.283-.749,3.405,3.405,0,0,1,2.208.69l-2.933,2.917a1.742,1.742,0,0,0-1.215-.377,2.114,2.114,0,0,0-1.218.688,1.923,1.923,0,0,0-.711,1.484,3.395,3.395,0,0,0,2.41,2.423,1.924,1.924,0,0,0,1.488-.7,2.161,2.161,0,0,0,.7-1.207,1.788,1.788,0,0,0-.378-1.225l2.933-2.916a3.453,3.453,0,0,1,.685,2.219,4.964,4.964,0,0,1-.761,2.279A11.755,11.755,0,0,1,198.353,263.838Z"/>
      <path d="M240.529,185.867l-3.522,2.147-1.562-2.562-3.109,1.9,1.562,2.563-3.523,2.147-4.095-6.718,3.522-2.147,1.562,2.562,3.11-1.895-1.562-2.563,3.522-2.147Z"/>
      <path d="M249.676,183.482l-9.41,3.084-2.451-7.477,9.143-3a1.738,1.738,0,0,1,1.464.136,2,2,0,0,1,.95,1.167,1.788,1.788,0,0,1,.012,1.12,2.1,2.1,0,0,1-.587.949,2.363,2.363,0,0,1,1.3.366,1.89,1.89,0,0,1,.816,1.045,2.126,2.126,0,0,1-.072,1.585A1.86,1.86,0,0,1,249.676,183.482Zm-4.571-3.553a.713.713,0,0,0,.41-.336.614.614,0,0,0,.067-.518.669.669,0,0,0-.318-.393.545.545,0,0,0-.48-.056l-2.51.823.417,1.271Zm1.319,2.8a.647.647,0,0,0,.421-.375.781.781,0,0,0,.024-.575.7.7,0,0,0-.4-.436.815.815,0,0,0-.6-.039l-2.692.882.476,1.453Z"/>
      <path d="M500.369,224.552l-4.2.4-.774-1.134-5.035.48-.546,1.26-2.675.255,3.573-8.244,4.588-.438Zm-6.15-2.451-1.772-2.6-1.26,2.886Z"/>
      <path d="M604.157,325.781q-1.082-.133-2.12-.351a8.853,8.853,0,0,1-1.852-.59,3.2,3.2,0,0,1-1.239-.979,2.09,2.09,0,0,1-.323-1.523l4.095.5a.827.827,0,0,0,.135.65,1.2,1.2,0,0,0,.581.344,5.488,5.488,0,0,0,.895.177l.413.051a4.2,4.2,0,0,0,.959.027.481.481,0,0,0,.487-.461q.039-.324-.611-.562-.62-.212-1.563-.452-1.12-.285-2.284-.677a6.171,6.171,0,0,1-1.922-1.04,1.8,1.8,0,0,1-.695-1.716,1.95,1.95,0,0,1,.621-1.283,2.883,2.883,0,0,1,1.389-.61,7.88,7.88,0,0,1,1.924-.081q1.056.061,2.139.194t2.108.35a7.491,7.491,0,0,1,1.809.584,2.962,2.962,0,0,1,1.216.976,2.081,2.081,0,0,1,.313,1.511l-4-.492a.837.837,0,0,0-.135-.651,1.161,1.161,0,0,0-.581-.343,9.058,9.058,0,0,0-1.3-.227,4,4,0,0,0-.926-.023.453.453,0,0,0-.428.446l-.011.089c.007.182.217.351.628.507a16.448,16.448,0,0,0,1.571.488q1.106.3,2.255.729a6.547,6.547,0,0,1,1.933,1.042,1.774,1.774,0,0,1,.691,1.659,1.974,1.974,0,0,1-.651,1.335,2.806,2.806,0,0,1-1.42.585,9.089,9.089,0,0,1-1.94.033Q605.251,325.915,604.157,325.781Z"/>
      <path d="M614.993,328.679l-3.9-1.337,1.943-5.667-3.5-1.2.609-1.775,10.888,3.732-.609,1.776-3.488-1.2Z"/>
      <path d="M832.119,428.521l-3.6-2.194.059-1.372-4.319-2.633-1.192.682-2.294-1.4,7.8-4.46,3.935,2.4Zm-3.456-5.647.138-3.142-2.739,1.556Z"/>
      <path d="M838.56,435.949l-2.9-2.807.362-3.122-1.244-1.2-1.735,1.793-2.964-2.869,5.472-5.653,6.72,6.5a2.352,2.352,0,0,1,.777,1.832,2.729,2.729,0,0,1-.821,1.865,2.547,2.547,0,0,1-1.584.8,2.767,2.767,0,0,1-1.715-.362Zm-.52-6.574a.972.972,0,0,0,.609.293.812.812,0,0,0,.6-1.393l-2.035-1.97-1.134,1.171Z"/>
      <path d="M637.409,349.753l-4.577-6.986,6.581-4.312,4.577,6.986a3.489,3.489,0,0,1,.6,1.9,3.768,3.768,0,0,1-.458,1.886,4.061,4.061,0,0,1-1.39,1.488,4.138,4.138,0,0,1-1.929.686,3.656,3.656,0,0,1-1.911-.333A3.543,3.543,0,0,1,637.409,349.753Zm.242-3.035a1.89,1.89,0,0,0,1.287.877,2.043,2.043,0,0,0,1.546-.327,2.005,2.005,0,0,0,.908-1.281,1.891,1.891,0,0,0-.29-1.53l-1-1.523-3.451,2.261Z"/>
      <path d="M678.074,401.856l-1.46-3.954.9-1.038-1.753-4.745-1.358-.206-.93-2.52,8.883,1.345,1.6,4.323Zm.8-6.572,2.058-2.378-3.113-.48Z"/>
      <path d="M677.422,405.591q-.149-1.08-.2-2.139a8.91,8.91,0,0,1,.1-1.942,3.184,3.184,0,0,1,.63-1.448,2.092,2.092,0,0,1,1.389-.7l.562,4.087a.831.831,0,0,0-.594.3,1.194,1.194,0,0,0-.183.649,5.428,5.428,0,0,0,.057.912l.056.412a4.262,4.262,0,0,0,.22.934.482.482,0,0,0,.57.353q.322-.045.387-.734.046-.654.037-1.628-.011-1.155.07-2.381a6.182,6.182,0,0,1,.514-2.124,1.8,1.8,0,0,1,1.481-1.111,1.947,1.947,0,0,1,1.4.273,2.884,2.884,0,0,1,.946,1.186,7.92,7.92,0,0,1,.57,1.839q.21,1.036.359,2.117t.2,2.128a7.5,7.5,0,0,1-.1,1.9,2.964,2.964,0,0,1-.633,1.425,2.072,2.072,0,0,1-1.38.689l-.549-4a.831.831,0,0,0,.594-.3,1.16,1.16,0,0,0,.183-.65,8.9,8.9,0,0,0-.112-1.312,3.981,3.981,0,0,0-.215-.9.455.455,0,0,0-.54-.3l-.089.013q-.261.081-.33.737a16.182,16.182,0,0,0-.069,1.643q-.012,1.147-.129,2.367a6.505,6.505,0,0,1-.512,2.135,1.772,1.772,0,0,1-1.427,1.092,1.973,1.973,0,0,1-1.457-.287,2.794,2.794,0,0,1-.928-1.223,8.955,8.955,0,0,1-.529-1.867Q677.572,406.683,677.422,405.591Z"/>
      <path d="M677.219,415.15q.078-1.087.243-2.135a8.834,8.834,0,0,1,.5-1.88,3.192,3.192,0,0,1,.915-1.287,2.092,2.092,0,0,1,1.5-.4l-.295,4.115a.826.826,0,0,0-.643.168,1.2,1.2,0,0,0-.313.6,5.324,5.324,0,0,0-.132.9l-.03.415a4.314,4.314,0,0,0,.021.959.481.481,0,0,0,.485.463q.325.024.531-.638.18-.628.372-1.584.228-1.134.561-2.316a6.168,6.168,0,0,1,.941-1.972,1.8,1.8,0,0,1,1.679-.781,1.953,1.953,0,0,1,1.312.556,2.89,2.89,0,0,1,.681,1.356,7.954,7.954,0,0,1,.178,1.917q-.009,1.059-.086,2.146t-.243,2.124a7.488,7.488,0,0,1-.492,1.835,2.965,2.965,0,0,1-.913,1.265,2.079,2.079,0,0,1-1.493.389l.289-4.025a.833.833,0,0,0,.643-.168,1.162,1.162,0,0,0,.313-.6,8.918,8.918,0,0,0,.161-1.307,4,4,0,0,0-.024-.925.454.454,0,0,0-.466-.406l-.09-.006q-.273.026-.475.653a16.342,16.342,0,0,0-.407,1.594q-.249,1.12-.615,2.289a6.536,6.536,0,0,1-.942,1.983,1.775,1.775,0,0,1-1.622.774,1.976,1.976,0,0,1-1.367-.582,2.8,2.8,0,0,1-.655-1.388,9.062,9.062,0,0,1-.132-1.937Q677.141,416.249,677.219,415.15Z"/>
      <path d="M535.279,374.66l1.3-3.915,4.016-.254-3.138-2.392,1.3-3.915,8.434-.435-1.285,3.873-4.709.238,3.7,2.813-1.133,3.414-4.727.291,3.715,2.76-.814,2.454Z"/>
      <path d="M527.816,384.973l2.3-3.53,1.369.1,2.765-4.236-.645-1.213,1.468-2.249,4.218,7.933-2.519,3.86Zm5.751-3.28,3.135.234-1.47-2.785Z"/>
      <path d="M520.067,391.151l3.479-3.29,7.052.6-3.629-3.839,1.739-1.645,5.405,5.718-3.487,3.3-7.044-.611,3.629,3.839-1.739,1.644Z"/>
      <path d="M493.625,415.759l3.985-2.316,3.99,1.229.483-.982-1.238-2.128,3.567-2.073,3.954,6.8-3.566,2.073-1.424-2.449-2.23,4.573-3.314,1.926,2.195-4.5Z"/>
      <path d="M485.5,417.468l10.038-3.259,2.43,7.484-10.038,3.259-.549-1.689,6.115-1.986-.392-1.208-5.474,1.778-.239-1.684,5.2-1.687-.365-1.122-6.115,1.985Z"/>
      <path d="M495.823,357.721l4.015-.408,2.153,2.29,1.722-.176-.252-2.482,4.1-.417.8,7.828-9.3.945a2.344,2.344,0,0,1-1.9-.586,2.729,2.729,0,0,1-.9-1.83,2.548,2.548,0,0,1,.412-1.725,2.766,2.766,0,0,1,1.382-1.078Zm5.362,3.839a.973.973,0,0,0-.616.277.812.812,0,0,0,.68,1.355l2.818-.287-.165-1.621Z"/>
      <path d="M490.913,347.977l7.38.787-.736,6.954-7.381-.787a3.093,3.093,0,0,1-1.648-.658,3.355,3.355,0,0,1-1.04-1.376,3.625,3.625,0,0,1-.242-1.794,3.668,3.668,0,0,1,.614-1.713,3.239,3.239,0,0,1,1.3-1.127A3.152,3.152,0,0,1,490.913,347.977Zm1.951,1.876a1.68,1.68,0,0,0-1.328.391,1.818,1.818,0,0,0-.644,1.247,1.783,1.783,0,0,0,.37,1.346,1.682,1.682,0,0,0,1.216.662l1.609.171.386-3.646Z"/>
      <path d="M486.285,346.417l3.521,1.024-1.942,6.718-3.521-1.024Z"/>
      <path d="M411.56,162.554a7.732,7.732,0,0,1,3.1,2.437,3.17,3.17,0,0,1,.131,3.354,3.127,3.127,0,0,1-2.73,1.925,7.716,7.716,0,0,1-3.813-.985A10.449,10.449,0,0,1,406.1,167.9a4.288,4.288,0,0,1-1.286-1.707,3.037,3.037,0,0,1-.056-2.057l3.294,1.632a1.559,1.559,0,0,0,.033,1.131,1.876,1.876,0,0,0,.929.828,1.707,1.707,0,0,0,1.452.173,3.024,3.024,0,0,0,1.341-2.725,1.713,1.713,0,0,0-1.019-1.051,1.921,1.921,0,0,0-1.216-.245,1.591,1.591,0,0,0-.92.67l-3.294-1.632a3.059,3.059,0,0,1,1.667-1.214,4.4,4.4,0,0,1,2.133-.014A10.464,10.464,0,0,1,411.56,162.554Z"/>
      <path d="M399.945,154.005l3.18,2.582.242,3.709.967.09,1.374-1.7,2.846,2.311-4.391,5.442-2.846-2.31,1.58-1.96-4.5-.408-2.645-2.147,4.426.4Z"/>
      <path d="M395.892,147.273l2.243,2.9-2.105,1.638,1.979,2.561,2.106-1.638,2.242,2.9-5.519,4.294-2.243-2.9,2.1-1.638-1.979-2.561-2.106,1.638-2.242-2.9Z"/>
      <path d="M323.561,103.87l-4.39-8.291,6.173-3.286,4.389,8.291-1.392.741-2.674-5.05-1,.531,2.394,4.52-1.436.47-2.271-4.29L322.43,98l2.674,5.05Z"/>
      <path d="M190.408,298.019l.8,3.659-.918.806.962,4.391,1.17.346.511,2.332-7.654-2.261-.877-4Zm-1.5,5.692-2.1,1.844,2.68.8Z"/>
      <path d="M191.347,293.125l-.073,7.423-6.993-.07.073-7.422a3.1,3.1,0,0,1,.5-1.7,3.347,3.347,0,0,1,1.27-1.166,3.624,3.624,0,0,1,1.762-.412,3.689,3.689,0,0,1,1.764.447,3.239,3.239,0,0,1,1.247,1.192A3.149,3.149,0,0,1,191.347,293.125Zm-1.679,2.122a1.682,1.682,0,0,0-.517-1.284,1.816,1.816,0,0,0-1.3-.523,1.78,1.78,0,0,0-1.3.5A1.681,1.681,0,0,0,186,295.21l-.016,1.618,3.667.037Z"/>
      <path d="M193.687,283.426l-2.014,8.568-6.805-1.61,1.957-8.325a1.54,1.54,0,0,1,.78-1.047,1.771,1.771,0,0,1,1.325-.179,1.6,1.6,0,0,1,.855.51,1.87,1.87,0,0,1,.448.886,2.091,2.091,0,0,1,.88-.818,1.676,1.676,0,0,1,1.171-.134,1.9,1.9,0,0,1,1.169.79A1.656,1.656,0,0,1,193.687,283.426Zm-4.809,1.819a.642.642,0,0,0-.065-.467.547.547,0,0,0-.363-.291.584.584,0,0,0-.445.059.483.483,0,0,0-.264.338l-.537,2.285,1.157.274Zm2.731.3a.568.568,0,0,0-.089-.493.691.691,0,0,0-.425-.286.624.624,0,0,0-.517.1.722.722,0,0,0-.309.44l-.576,2.451,1.322.312Z"/>
      <path d="M195.37,280.674l-1.435,3.374-6.429-2.754,1.436-3.373Z"/>
      <path d="M199.357,274.288l-1.977,3.087-4.476-2.883-1.773,2.768-1.4-.9,5.516-8.615,1.4.9-1.767,2.759Z"/>
      <path d="M232.831,201.256a7.709,7.709,0,0,1-3.3,2.149,3.507,3.507,0,0,1-4.143-4.178,7.732,7.732,0,0,1,2.16-3.3,10.477,10.477,0,0,1,2-1.587,4.263,4.263,0,0,1,2.026-.666,3.014,3.014,0,0,1,1.96.614l-2.6,2.6a1.541,1.541,0,0,0-1.078-.335,1.87,1.87,0,0,0-1.081.612,1.712,1.712,0,0,0-.631,1.321,3.019,3.019,0,0,0,2.138,2.157,1.705,1.705,0,0,0,1.321-.626,1.927,1.927,0,0,0,.623-1.074,1.6,1.6,0,0,0-.335-1.09l2.6-2.6a3.088,3.088,0,0,1,.609,1.976,4.435,4.435,0,0,1-.676,2.028A10.479,10.479,0,0,1,232.831,201.256Z"/>
      <path d="M244.25,193.356l-3.128,1.912-1.385-2.279-2.761,1.688,1.385,2.28-3.128,1.912-3.632-5.976,3.128-1.912,1.385,2.279,2.762-1.689-1.385-2.279,3.127-1.912Z"/>
      <path d="M251.663,191.615l-8.361,2.748-2.172-6.647,8.124-2.671a1.542,1.542,0,0,1,1.3.12,1.772,1.772,0,0,1,.843,1.037,1.593,1.593,0,0,1,.01,1,1.866,1.866,0,0,1-.522.845,2.088,2.088,0,0,1,1.157.324,1.683,1.683,0,0,1,.724.929,1.9,1.9,0,0,1-.065,1.41A1.663,1.663,0,0,1,251.663,191.615Zm-4.058-3.157a.64.64,0,0,0,.365-.3.552.552,0,0,0,.059-.462.593.593,0,0,0-.282-.349.484.484,0,0,0-.426-.049l-2.23.733.369,1.13Zm1.17,2.487a.575.575,0,0,0,.374-.334.69.69,0,0,0,.022-.512.625.625,0,0,0-.358-.387.72.72,0,0,0-.536-.034l-2.392.786.422,1.292Z"/>
      <path d="M500.222,232.982l-3.73.357-.687-1.008-4.475.427-.486,1.121-2.377.227,3.178-7.329,4.077-.39Zm-5.465-2.177-1.574-2.308-1.121,2.566Z"/>
      <path d="M807.1,426.287q-.963-.118-1.885-.313a7.817,7.817,0,0,1-1.646-.525,2.835,2.835,0,0,1-1.1-.87,1.867,1.867,0,0,1-.287-1.354l3.639.448a.736.736,0,0,0,.12.578,1.079,1.079,0,0,0,.517.306,4.782,4.782,0,0,0,.8.158l.366.045a3.78,3.78,0,0,0,.853.025.427.427,0,0,0,.432-.41c.024-.192-.157-.358-.542-.5-.367-.125-.831-.26-1.39-.4q-1-.254-2.03-.6a5.476,5.476,0,0,1-1.709-.925,1.6,1.6,0,0,1-.618-1.526,1.731,1.731,0,0,1,.552-1.139,2.554,2.554,0,0,1,1.234-.543,7.009,7.009,0,0,1,1.71-.071q.939.055,1.9.174t1.874.311a6.65,6.65,0,0,1,1.607.52,2.634,2.634,0,0,1,1.081.868,1.851,1.851,0,0,1,.279,1.343l-3.56-.438a.738.738,0,0,0-.12-.579,1.029,1.029,0,0,0-.516-.305,7.971,7.971,0,0,0-1.153-.2,3.592,3.592,0,0,0-.823-.02.4.4,0,0,0-.38.4l-.01.079q.011.243.559.451a14.353,14.353,0,0,0,1.4.434q.982.271,2,.649a5.8,5.8,0,0,1,1.718.927,1.578,1.578,0,0,1,.615,1.475,1.757,1.757,0,0,1-.578,1.187,2.493,2.493,0,0,1-1.261.519,8.08,8.08,0,0,1-1.725.029Q808.066,426.407,807.1,426.287Z"/>
      <path d="M816.026,428.76l-3.467-1.193,1.722-5.039-3.108-1.069.539-1.579,9.673,3.328-.539,1.579-3.1-1.066Z"/>
      <path d="M826.817,435.3l-3.2-1.955.052-1.221-3.835-2.345-1.058.606-2.037-1.245,6.922-3.965,3.494,2.137Zm-3.07-5.028.12-2.795-2.43,1.383Z"/>
      <path d="M831.9,441.494l-2.573-2.5.322-2.779-1.1-1.071-1.54,1.595-2.63-2.554,4.856-5.032,5.963,5.79a2.093,2.093,0,0,1,.689,1.631,2.43,2.43,0,0,1-.727,1.66,2.258,2.258,0,0,1-1.407.709,2.443,2.443,0,0,1-1.522-.322Zm-.462-5.851a.86.86,0,0,0,.541.26.722.722,0,0,0,.53-1.239L830.7,432.91l-1,1.042Z"/>
      <path d="M834.117,446.316l-4.059-6.215,5.844-3.84,4.059,6.214a3.114,3.114,0,0,1,.533,1.694,3.355,3.355,0,0,1-.407,1.678,3.625,3.625,0,0,1-1.235,1.326,3.675,3.675,0,0,1-1.712.611,3.23,3.23,0,0,1-1.7-.3A3.135,3.135,0,0,1,834.117,446.316Zm.216-2.7a1.676,1.676,0,0,0,1.142.78,1.808,1.808,0,0,0,1.372-.292,1.786,1.786,0,0,0,.807-1.14,1.685,1.685,0,0,0-.257-1.361l-.885-1.355-3.064,2.013Z"/>
      <path d="M838.346,457.945l-1.294-3.516.8-.924-1.553-4.219-1.206-.182-.825-2.24,7.89,1.189,1.415,3.844Zm.711-5.846,1.829-2.116-2.764-.425Z"/>
      <path d="M668.77,406.644q-.13-.96-.18-1.9a7.905,7.905,0,0,1,.086-1.726,2.849,2.849,0,0,1,.56-1.288,1.867,1.867,0,0,1,1.236-.624l.5,3.633a.735.735,0,0,0-.528.264,1.072,1.072,0,0,0-.163.577,4.891,4.891,0,0,0,.05.81l.051.366a3.811,3.811,0,0,0,.194.831.428.428,0,0,0,.507.313q.286-.039.344-.653.042-.581.034-1.446-.01-1.027.063-2.117a5.472,5.472,0,0,1,.457-1.888,1.6,1.6,0,0,1,1.316-.988,1.726,1.726,0,0,1,1.243.242,2.547,2.547,0,0,1,.841,1.054,7.054,7.054,0,0,1,.506,1.634q.188.922.318,1.882t.179,1.892a6.652,6.652,0,0,1-.092,1.686,2.63,2.63,0,0,1-.562,1.268,1.852,1.852,0,0,1-1.227.613l-.487-3.553a.741.741,0,0,0,.529-.265,1.031,1.031,0,0,0,.163-.577,7.891,7.891,0,0,0-.1-1.166,3.524,3.524,0,0,0-.19-.8.4.4,0,0,0-.48-.266l-.079.011q-.232.072-.294.655t-.062,1.461q-.01,1.02-.115,2.1a5.756,5.756,0,0,1-.456,1.9,1.576,1.576,0,0,1-1.268.972,1.752,1.752,0,0,1-1.295-.255,2.485,2.485,0,0,1-.825-1.086,8.04,8.04,0,0,1-.469-1.66Q668.9,407.615,668.77,406.644Z"/>
      <path d="M668.525,414.456q.069-.968.215-1.9a7.916,7.916,0,0,1,.44-1.671,2.838,2.838,0,0,1,.813-1.143,1.857,1.857,0,0,1,1.337-.355l-.261,3.657a.739.739,0,0,0-.571.149,1.085,1.085,0,0,0-.279.531,4.909,4.909,0,0,0-.117.8l-.026.369a3.793,3.793,0,0,0,.019.852.428.428,0,0,0,.431.412q.29.021.471-.567.161-.56.331-1.409.2-1.007.5-2.057a5.493,5.493,0,0,1,.836-1.753,1.6,1.6,0,0,1,1.492-.694,1.73,1.73,0,0,1,1.166.5,2.54,2.54,0,0,1,.6,1.2,6.965,6.965,0,0,1,.159,1.7q-.008.941-.076,1.907t-.215,1.888a6.67,6.67,0,0,1-.437,1.631,2.637,2.637,0,0,1-.811,1.124,1.85,1.85,0,0,1-1.327.345l.256-3.577a.741.741,0,0,0,.571-.149,1.025,1.025,0,0,0,.278-.531,7.929,7.929,0,0,0,.143-1.162,3.481,3.481,0,0,0-.021-.823.4.4,0,0,0-.415-.36l-.08-.006q-.242.022-.422.581a14.558,14.558,0,0,0-.361,1.416q-.222,1-.546,2.034a5.776,5.776,0,0,1-.837,1.763,1.577,1.577,0,0,1-1.441.688,1.76,1.76,0,0,1-1.215-.518,2.493,2.493,0,0,1-.583-1.234,8.077,8.077,0,0,1-.118-1.721Q668.456,415.433,668.525,414.456Z"/>
      <path d="M527.17,371.386l1.151-3.481,3.567-.224-2.789-2.128,1.151-3.481,7.492-.382-1.139,3.443-4.183.209,3.286,2.5-1,3.035-4.2.256,3.3,2.457-.722,2.181Z"/>
      <path d="M520.9,379.694l2.044-3.14,1.215.092,2.452-3.768-.573-1.08,1.3-2,3.748,7.062-2.234,3.433Zm5.1-2.916,2.783.211-1.307-2.48Z"/>
      <path d="M514.465,384.582l3.088-2.928,6.258.537-3.221-3.417,1.544-1.464,4.8,5.089-3.1,2.935-6.25-.544,3.22,3.417-1.544,1.464Z"/>
      <path d="M505.594,389l3.539-2.063,3.542,1.091.429-.874-1.1-1.893,3.167-1.847,3.506,6.05-3.167,1.847-1.262-2.178-1.983,4.07-2.943,1.716,1.951-4Z"/>
      <path d="M499.017,390.187l8.919-2.905,2.154,6.653-8.92,2.9-.486-1.5,5.434-1.769-.348-1.074-4.864,1.583-.211-1.5,4.617-1.5-.323-1-5.434,1.77Z"/>
      <path d="M495.482,349.255l3.568-.364,1.913,2.034,1.531-.156-.224-2.206,3.647-.372.705,6.957-8.268.843a2.085,2.085,0,0,1-1.69-.52,2.425,2.425,0,0,1-.8-1.626,2.263,2.263,0,0,1,.367-1.534,2.46,2.46,0,0,1,1.228-.959Zm4.764,3.41a.863.863,0,0,0-.548.247.722.722,0,0,0,.6,1.2l2.5-.256-.146-1.441Z"/>
    </g>
  </g>
</svg>
