<svg width="161" height="230" viewBox="0 0 161 230" fill="none" xmlns="http://www.w3.org/2000/svg">
<rect x="30" y="70" width="11" height="70" fill="white"/>
<rect x="121" y="80" width="11" height="41" fill="white"/>
<rect x="150" y="99" width="11" height="52" fill="white"/>
<rect y="100" width="11" height="40" fill="white"/>
<rect x="150" y="160" width="11" height="22" fill="white"/>
<rect x="20" y="160" width="11" height="22" fill="white"/>
<rect x="11" y="140" width="11" height="22" fill="white"/>
<rect x="141" y="178" width="11" height="22" fill="white"/>
<rect x="31" y="178" width="11" height="22" fill="white"/>
<rect x="130" y="200" width="11" height="30" fill="white"/>
<rect x="41" y="200" width="11" height="30" fill="white"/>
<rect x="61" y="10" width="11" height="101" fill="white"/>
<rect x="90" y="10" width="11" height="101" fill="white"/>
<rect x="41" y="220" width="100" height="10" fill="white"/>
<rect x="40" y="70" width="21" height="10" fill="white"/>
<rect x="101" y="70" width="21" height="10" fill="white"/>
<rect x="70" width="22" height="10" fill="white"/>
<rect x="11" y="100" width="22" height="10" fill="white"/>
<rect x="141" y="90" width="11" height="10" fill="white"/>
<rect x="130" y="80" width="11" height="10" fill="white"/>
</svg>
